<svg width="16" height="16" viewBox="0 0 16 16" fill="none" xmlns="http://www.w3.org/2000/svg">
<path fill-rule="evenodd" clip-rule="evenodd" d="M15.6501 10C15.6501 12.5681 13.5683 14.65 11.0001 14.65H10.0001C9.64116 14.65 9.35015 14.359 9.35015 14C9.35015 13.641 9.64116 13.35 10.0001 13.35H11.0001C12.8503 13.35 14.3501 11.8502 14.3501 10C14.3501 8.14987 12.8503 6.65002 11.0001 6.65002H1.00015C0.641162 6.65002 0.350147 6.35901 0.350147 6.00002C0.350147 5.64104 0.641162 5.35003 1.00015 5.35003H11.0001C13.5683 5.35003 15.6501 7.4319 15.6501 10Z" fill="#292A43"/>
<path fill-rule="evenodd" clip-rule="evenodd" d="M5.45977 10.4596C5.20593 10.7135 4.79437 10.7135 4.54053 10.4596L0.540527 6.45964C0.286686 6.2058 0.286686 5.79425 0.540527 5.5404L4.54053 1.54041C4.79437 1.28656 5.20593 1.28656 5.45977 1.54041C5.71361 1.79425 5.71361 2.2058 5.45977 2.45964L1.91939 6.00002L5.45977 9.54041C5.71361 9.79425 5.71361 10.2058 5.45977 10.4596Z" fill="#292A43"/>
</svg>
