<svg width="16" height="16" viewBox="0 0 16 16" fill="none" xmlns="http://www.w3.org/2000/svg">
<path fill-rule="evenodd" clip-rule="evenodd" d="M0.349854 2.00001C0.349854 1.08874 1.08858 0.350006 1.99985 0.350006H13.9999C14.9111 0.350006 15.6499 1.08874 15.6499 2.00001V10C15.6499 10.9113 14.9111 11.65 13.9999 11.65H1.99985C1.08858 11.65 0.349854 10.9113 0.349854 10V2.00001ZM1.99985 1.65001C1.80655 1.65001 1.64985 1.80671 1.64985 2.00001V10C1.64985 10.1933 1.80655 10.35 1.99985 10.35H13.9999C14.1932 10.35 14.3499 10.1933 14.3499 10V2.00001C14.3499 1.80671 14.1932 1.65001 13.9999 1.65001H1.99985Z" fill="#292A43"/>
<path fill-rule="evenodd" clip-rule="evenodd" d="M6.45947 11.0404C6.71331 11.2942 6.71331 11.7058 6.45947 11.9596L3.95947 14.4596C3.70563 14.7135 3.29407 14.7135 3.04023 14.4596C2.78639 14.2058 2.78639 13.7942 3.04023 13.5404L5.54023 11.0404C5.79407 10.7865 6.20563 10.7865 6.45947 11.0404Z" fill="#292A43"/>
<path fill-rule="evenodd" clip-rule="evenodd" d="M9.54028 11.0404C9.28644 11.2942 9.28644 11.7058 9.54028 11.9596L12.0403 14.4596C12.2941 14.7135 12.7057 14.7135 12.9595 14.4596C13.2134 14.2058 13.2134 13.7942 12.9595 13.5404L10.4595 11.0404C10.2057 10.7865 9.79412 10.7865 9.54028 11.0404Z" fill="#292A43"/>
</svg>
