<svg width="16" height="16" viewBox="0 0 16 16" fill="none" xmlns="http://www.w3.org/2000/svg">
<path d="M2 14V11.3333C2 10.8059 2.1564 10.2903 2.44941 9.8518C2.74243 9.41327 3.15891 9.07148 3.64618 8.86965C4.13345 8.66781 4.66962 8.615 5.18691 8.7179C5.70419 8.82079 6.17934 9.07477 6.55229 9.44771C6.92523 9.82065 7.1792 10.2958 7.28209 10.8131C7.38499 11.3304 7.33218 11.8665 7.13035 12.3538C6.92851 12.8411 6.58672 13.2576 6.14819 13.5506C5.70966 13.8436 5.19408 14 4.66667 14H2Z" stroke="#292A43" stroke-width="1.3" stroke-linecap="round" stroke-linejoin="round"/>
<path d="M13.9999 2C12.0971 2.26027 10.2999 3.02943 8.79792 4.22629C7.29597 5.42316 6.14502 7.00333 5.46655 8.8" stroke="#292A43" stroke-width="1.3" stroke-linecap="round" stroke-linejoin="round"/>
<path d="M14 2C13.7397 3.90279 12.9705 5.70001 11.7737 7.20196C10.5768 8.70391 8.99662 9.85487 7.19995 10.5333" stroke="#292A43" stroke-width="1.3" stroke-linecap="round" stroke-linejoin="round"/>
<path d="M7.06665 6C8.36209 6.59791 9.40207 7.63789 9.99998 8.93333" stroke="#292A43" stroke-width="1.3" stroke-linecap="round" stroke-linejoin="round"/>
</svg>
