<svg width="16" height="16" viewBox="0 0 16 16" fill="none" xmlns="http://www.w3.org/2000/svg">
<path fill-rule="evenodd" clip-rule="evenodd" d="M11.3168 1.99998C11.3168 1.64099 11.0258 1.34998 10.6668 1.34998C10.3079 1.34998 10.0168 1.64099 10.0168 1.99998V2.68335H5.98347V1.99998C5.98347 1.64099 5.69246 1.34998 5.33347 1.34998C4.97449 1.34998 4.68347 1.64099 4.68347 1.99998V2.68335H3.5001C2.38677 2.68335 1.3501 3.50146 1.3501 4.66668V6.66666V12.6667C1.3501 13.8319 2.38677 14.65 3.5001 14.65H12.5001C13.6134 14.65 14.6501 13.8319 14.6501 12.6667L14.6501 6.66666L14.6501 4.66668C14.6501 3.50146 13.6134 2.68335 12.5001 2.68335H11.3168V1.99998ZM13.3501 6.01666V4.66668C13.3501 4.35915 13.0436 3.98335 12.5001 3.98335H11.3168V3.99998C11.3168 4.35896 11.0258 4.64998 10.6668 4.64998C10.3079 4.64998 10.0168 4.35896 10.0168 3.99998V3.98335H5.98347V3.99998C5.98347 4.35896 5.69246 4.64998 5.33347 4.64998C4.97449 4.64998 4.68347 4.35896 4.68347 3.99998V3.98335H3.5001C2.95657 3.98335 2.6501 4.35915 2.6501 4.66668V6.01666H13.3501ZM2.6501 7.31666H13.3501V12.6667C13.3501 12.9742 13.0436 13.35 12.5001 13.35H3.5001C2.95657 13.35 2.6501 12.9742 2.6501 12.6667V7.31666ZM7.33347 8.68335C6.97449 8.68335 6.68347 8.97436 6.68347 9.33335C6.68347 9.69233 6.97449 9.98335 7.33347 9.98335H7.3501V11.3334C7.3501 11.6923 7.64111 11.9833 8.0001 11.9833C8.35908 11.9833 8.6501 11.6923 8.6501 11.3334V9.34068L8.65014 9.33335C8.65014 8.97436 8.35912 8.68335 8.00014 8.68335H8.0001H7.33347Z" fill="#292A43"/>
</svg>
