<svg width="20" height="20" viewBox="0 0 20 20" fill="none" xmlns="http://www.w3.org/2000/svg">
<g clip-path="url(#clip0_14922_110)">
<path fill-rule="evenodd" clip-rule="evenodd" d="M17.8781 6.7005C17.878 6.70052 17.8781 6.70048 17.8781 6.7005L14.4 8.78381V12.0412L17.8781 14.1245C17.8989 14.137 17.9123 14.1378 17.9191 14.1374C17.9263 14.1371 17.9432 14.1343 17.9679 14.116C17.9938 14.0968 18.0274 14.0606 18.0551 14.0011C18.0828 13.9417 18.0999 13.8684 18.1 13.7892V7.0358C18.0999 6.95665 18.0828 6.88332 18.0551 6.82389C18.0274 6.76448 17.9938 6.72819 17.9679 6.70899C17.9432 6.69068 17.9263 6.68797 17.9191 6.68758C17.9123 6.68721 17.8988 6.68807 17.8781 6.7005ZM17.2102 5.58515C17.4434 5.44553 17.7123 5.37453 17.9892 5.38947C18.2657 5.40439 18.5245 5.5036 18.7414 5.66415C18.957 5.82379 19.1229 6.03737 19.2336 6.2751C19.3443 6.51283 19.3999 6.77408 19.4 7.03522V13.7895C19.3999 14.0507 19.3443 14.3122 19.2336 14.5499C19.1229 14.7877 18.9571 15.0012 18.7414 15.1609C18.5245 15.3214 18.2657 15.4206 17.9892 15.4356C17.7123 15.4505 17.4434 15.3795 17.2102 15.2399L13.416 12.9672C13.22 12.8498 13.1 12.6381 13.1 12.4096V8.41547C13.1 8.18697 13.22 7.97526 13.416 7.85785L17.2102 5.58515Z" fill="white"/>
<path fill-rule="evenodd" clip-rule="evenodd" d="M3.33331 4.81251C2.5417 4.81251 1.89998 5.45424 1.89998 6.24585V14.5792C1.89998 15.3708 2.5417 16.0125 3.33331 16.0125H11.6666C12.4583 16.0125 13.1 15.3708 13.1 14.5792V6.24585C13.1 5.45424 12.4583 4.81251 11.6666 4.81251H3.33331ZM0.599976 6.24585C0.599976 4.73627 1.82373 3.51251 3.33331 3.51251H11.6666C13.1762 3.51251 14.4 4.73627 14.4 6.24585V14.5792C14.4 16.0888 13.1762 17.3125 11.6666 17.3125H3.33331C1.82373 17.3125 0.599976 16.0888 0.599976 14.5792V6.24585Z" fill="white"/>
</g>
<defs>
<clipPath id="clip0_14922_110">
<rect width="20" height="20" fill="white"/>
</clipPath>
</defs>
</svg>
