<svg width="16" height="16" viewBox="0 0 16 16" fill="none" xmlns="http://www.w3.org/2000/svg">
<path fill-rule="evenodd" clip-rule="evenodd" d="M8.0001 1.64998C4.49309 1.64998 1.6501 4.49297 1.6501 7.99998C1.6501 11.507 4.49309 14.35 8.0001 14.35C11.5071 14.35 14.3501 11.507 14.3501 7.99998C14.3501 4.49297 11.5071 1.64998 8.0001 1.64998ZM0.350098 7.99998C0.350098 3.775 3.77512 0.349976 8.0001 0.349976C12.2251 0.349976 15.6501 3.775 15.6501 7.99998C15.6501 12.225 12.2251 15.65 8.0001 15.65C3.77512 15.65 0.350098 12.225 0.350098 7.99998Z" fill="#292A43"/>
<path fill-rule="evenodd" clip-rule="evenodd" d="M13.4193 3.49999L3.50005 13.4192L2.58081 12.5L12.5 2.58075L13.4193 3.49999Z" fill="#292A43"/>
</svg>
