<svg width="16" height="16" viewBox="0 0 16 16" fill="none" xmlns="http://www.w3.org/2000/svg">
<path fill-rule="evenodd" clip-rule="evenodd" d="M5.0001 3.64998C3.70223 3.64998 2.6501 4.70211 2.6501 5.99998V13.5436L4.4115 11.9633C4.71425 11.6917 5.10664 11.5415 5.51337 11.5415H11.0001C12.298 11.5415 13.3501 10.4893 13.3501 9.19147V5.99998C13.3501 4.70211 12.298 3.64998 11.0001 3.64998H5.0001ZM1.3501 5.99998C1.3501 3.98414 2.98426 2.34998 5.0001 2.34998H11.0001C13.0159 2.34998 14.6501 3.98414 14.6501 5.99998V9.19147C14.6501 11.2073 13.0159 12.8415 11.0001 12.8415H5.51337C5.42709 12.8415 5.34386 12.8733 5.27964 12.9309L2.43417 15.4838C2.24324 15.6551 1.96942 15.6981 1.73519 15.5935C1.50095 15.489 1.3501 15.2565 1.3501 15V5.99998Z" fill="#292A43"/>
</svg>
