<svg width="20" height="20" viewBox="0 0 20 20" fill="none" xmlns="http://www.w3.org/2000/svg">
<path fill-rule="evenodd" clip-rule="evenodd" d="M5.62855 4.76659C7.04535 3.79052 8.83847 3.28385 10.6739 3.35611C12.5094 3.42838 14.2378 4.07361 15.5408 5.15287C16.8418 6.23045 17.6242 7.66006 17.7761 9.16617C17.9279 10.6707 17.4442 12.1851 16.3882 13.4292C15.3294 14.6765 13.7652 15.5671 11.9744 15.9116C10.1835 16.2561 8.31128 16.0261 6.71077 15.2716C6.57857 15.2092 6.42971 15.1915 6.28657 15.2211L3.18981 15.8609L3.98271 13.5511C4.05255 13.3476 4.02118 13.123 3.89826 12.9465C2.98235 11.6311 2.65923 10.0889 2.96944 8.60071C3.28028 7.10947 4.21328 5.7416 5.62855 4.76659ZM2.3151 17.4195C2.2534 17.4334 2.18935 17.4387 2.12473 17.4345C2.04193 17.4293 1.96204 17.4088 1.88853 17.3754C1.79937 17.335 1.72265 17.277 1.66113 17.207C1.59943 17.1371 1.55157 17.0536 1.5228 16.96C1.49893 16.8828 1.48874 16.801 1.49405 16.7183C1.49812 16.6536 1.51149 16.5908 1.53308 16.5313L2.59859 13.4273C1.62588 11.8826 1.28248 10.0813 1.6485 8.32537C2.03707 6.46123 3.19131 4.80712 4.86305 3.65542C6.53326 2.50478 8.61684 1.92475 10.727 2.00783C12.8371 2.09091 14.8547 2.83251 16.4015 4.11371C17.9504 5.39658 18.9279 7.14043 19.1186 9.03074C19.3095 10.9226 18.6952 12.7964 17.4169 14.3024C16.1412 15.8052 14.2935 16.8395 12.2293 17.2366C10.2413 17.619 8.1612 17.3902 6.34365 16.5871L2.3151 17.4195ZM11.1012 9.71784C11.1012 9.28791 10.7527 8.93939 10.3228 8.93939C9.89283 8.93939 9.5443 9.28791 9.5443 9.71784V9.7264C9.5443 10.1563 9.89283 10.5049 10.3228 10.5049C10.7527 10.5049 11.1012 10.1563 11.1012 9.7264V9.71784ZM6.86283 8.93939C7.29276 8.93939 7.64128 9.28791 7.64128 9.71784V9.7264C7.64128 10.1563 7.29276 10.5049 6.86283 10.5049C6.4329 10.5049 6.08437 10.1563 6.08437 9.7264V9.71784C6.08437 9.28791 6.4329 8.93939 6.86283 8.93939ZM14.5612 9.71784C14.5612 9.28791 14.2126 8.93939 13.7827 8.93939C13.3528 8.93939 13.0042 9.28791 13.0042 9.71784V9.7264C13.0042 10.1563 13.3528 10.5049 13.7827 10.5049C14.2126 10.5049 14.5612 10.1563 14.5612 9.7264V9.71784Z" fill="white"/>
</svg>
