<svg width="24" height="24" viewBox="0 0 24 24" fill="none" xmlns="http://www.w3.org/2000/svg">
<rect x="1.75" y="4.75" width="20.5" height="14.5" rx="2.25" stroke="#292A43" stroke-width="1.5"/>
<path d="M14.5 10L18.5 10" stroke="#292A43" stroke-width="1.5" stroke-linecap="round"/>
<path d="M14.5 12L18.5 12" stroke="#292A43" stroke-width="1.5" stroke-linecap="round"/>
<path d="M14.5 14L16.5 14" stroke="#292A43" stroke-width="1.5" stroke-linecap="round"/>
<path fill-rule="evenodd" clip-rule="evenodd" d="M6.02051 15.0721H6.52805V15.4C6.52805 15.445 6.53301 15.4889 6.54242 15.5311C6.60223 15.7994 6.84172 16 7.12805 16H7.26799C7.55432 16 7.79381 15.7994 7.85362 15.5311C7.86302 15.4889 7.86799 15.445 7.86799 15.4V15.0721H9.66926C9.93827 15.0721 10.1596 14.8681 10.1869 14.6063C10.1888 14.5883 10.1898 14.5701 10.1898 14.5516C10.1898 14.2642 9.95673 14.0311 9.66926 14.0311H7.86799V13.1485H9.43894C9.51668 13.1485 9.59345 13.1469 9.66926 13.1435C9.89971 13.1335 10.1212 13.1081 10.3338 13.0674C10.337 13.0668 10.3402 13.0662 10.3434 13.0656C10.4524 13.0445 10.5591 13.0193 10.6634 12.9901C10.7337 12.9704 10.8022 12.9489 10.8688 12.9255C11.0348 12.8673 11.1892 12.7976 11.332 12.7166C11.4391 12.6558 11.5397 12.5885 11.6337 12.5149C11.8426 12.3453 12.0168 12.1417 12.1564 11.9041C12.1637 11.8916 12.1709 11.8791 12.178 11.8664C12.2103 11.8091 12.2406 11.7499 12.269 11.6888C12.4179 11.3679 12.4948 11.0187 12.4997 10.6413C12.4999 10.6284 12.5 10.6155 12.5 10.6025V10.546C12.5 10.0977 12.4349 9.7165 12.3047 9.40245C12.3022 9.39642 12.2997 9.39042 12.2971 9.38443C12.2917 9.37169 12.2862 9.35906 12.2805 9.34653C12.1419 9.02216 11.9417 8.7619 11.6799 8.56577C11.6238 8.52218 11.5653 8.48136 11.5044 8.4433C11.4834 8.4302 11.4621 8.41743 11.4406 8.40499C11.2319 8.28463 10.996 8.1949 10.7327 8.13578C10.6295 8.11051 10.523 8.08876 10.4131 8.07054C10.3999 8.06834 10.3866 8.06619 10.3732 8.06409C10.101 8.02136 9.80885 8 9.4967 8H7.12805C6.79668 8 6.52805 8.26863 6.52805 8.6V12.0396H6.05446C5.74824 12.0396 5.5 12.2878 5.5 12.5941C5.5 12.5956 5.50001 12.5972 5.50002 12.5988C5.50247 12.8915 5.73166 13.13 6.02051 13.1475C6.03174 13.1482 6.04306 13.1485 6.05446 13.1485H6.52805V14.0311H6.02051C5.73304 14.0311 5.5 14.2642 5.5 14.5516C5.5 14.5588 5.50014 14.5659 5.50043 14.5729C5.51161 14.8505 5.74018 15.0721 6.02051 15.0721ZM7.86799 12.0396H9.38119C9.40056 12.0396 9.41981 12.0394 9.43894 12.0391C9.66321 12.0353 9.87113 12.0091 10.0627 11.9604C10.164 11.9356 10.2594 11.9041 10.3487 11.866C10.4496 11.823 10.543 11.7715 10.6287 11.7115C10.7047 11.6583 10.7731 11.5976 10.8338 11.5294C10.8387 11.5239 10.8435 11.5183 10.8483 11.5127C10.9106 11.4401 10.9644 11.3592 11.0099 11.2702C11.0337 11.2271 11.0549 11.1818 11.0734 11.1341C11.133 10.981 11.1657 10.8038 11.1716 10.6025C11.1716 10.5835 11.1714 10.5646 11.1711 10.546C11.1662 10.2922 11.1278 10.081 11.0561 9.9123C11.0546 9.9085 11.053 9.90472 11.0514 9.90095C11.0479 9.89266 11.0444 9.88446 11.0407 9.87633C10.9988 9.78251 10.9467 9.69957 10.8845 9.6275C10.8792 9.62129 10.8737 9.61517 10.8682 9.60912C10.8209 9.55711 10.768 9.51107 10.7096 9.471C10.6366 9.41454 10.5549 9.36746 10.4646 9.32978C10.4573 9.32672 10.4499 9.32372 10.4425 9.32079C10.3579 9.28743 10.2659 9.26206 10.1667 9.2447C9.97168 9.20377 9.74836 9.18134 9.4967 9.17743C9.47006 9.17701 9.44311 9.1768 9.41584 9.1768H7.86799V12.0396Z" fill="#292A43"/>
</svg>
