<svg xmlns:xlink="http://www.w3.org/1999/xlink" xmlns="http://www.w3.org/2000/svg" width="24" height="24" viewBox="0 0 24 24">
    <g xmlns="http://www.w3.org/2000/svg" fill-rule="evenodd" fill="#000">
        <path d="M12 5a7 7 0 1 0 0 14 7 7 0 0 0 0-14zm0-4c6.075 0 11 4.925 11 11s-4.925 11-11 11S1 18.075 1 12 5.925 1 12 1z" fill-rule="nonzero" fill-opacity="0.04"></path>
        <path d="M12 5V1c1.491 0 2.914.297 4.21.835L14.68 5.53A6.979 6.979 0 0 0 12 5zm4.95 2.048l2.828-2.828a11.016 11.016 0 0 1 2.388 3.568l-3.697 1.53a7.01 7.01 0 0 0-1.519-2.27zM19 12h4c0 1.491-.297 2.914-.835 4.21l-3.696-1.53c.342-.826.531-1.73.531-2.68zm-2.05 4.95l2.828 2.828a11.016 11.016 0 0 1-3.567 2.387l-1.532-3.696a7.01 7.01 0 0 0 2.27-1.52zM12 19v4c-1.491 0-2.914-.297-4.21-.835l1.53-3.696c.826.342 1.73.531 2.68.531zm-4.95-2.05l-2.828 2.828a11.016 11.016 0 0 1-2.387-3.567l3.696-1.532a7.01 7.01 0 0 0 1.52 2.27zM5 12H1c0-1.491.297-2.914.835-4.21L5.53 9.32A6.979 6.979 0 0 0 5 12zm2.05-4.95L4.222 4.222a11.016 11.016 0 0 1 3.567-2.387L9.321 5.53a7.01 7.01 0 0 0-2.27 1.52z" fill-opacity="0.12"></path>
    </g>
</svg>