<svg width="16" height="16" viewBox="0 0 16 16" fill="none" xmlns="http://www.w3.org/2000/svg">
<path fill-rule="evenodd" clip-rule="evenodd" d="M3.29775 3.29777C3.55159 3.04393 3.96315 3.04393 4.21699 3.29777L12.7023 11.783C12.9561 12.0369 12.9561 12.4484 12.7023 12.7023C12.4484 12.9561 12.0369 12.9561 11.783 12.7023L3.29775 4.217C3.04391 3.96316 3.04391 3.55161 3.29775 3.29777Z" fill="#292A43"/>
<path fill-rule="evenodd" clip-rule="evenodd" d="M12.7023 3.29775C12.9561 3.55159 12.9561 3.96315 12.7023 4.21699L4.21701 12.7023C3.96317 12.9561 3.55162 12.9561 3.29777 12.7023C3.04393 12.4484 3.04393 12.0369 3.29777 11.783L11.7831 3.29775C12.0369 3.04391 12.4485 3.04391 12.7023 3.29775Z" fill="#292A43"/>
</svg>
