<svg width="16" height="16" viewBox="0 0 16 16" fill="none" xmlns="http://www.w3.org/2000/svg">
<path d="M11.9999 5.33334H6.66659C5.93021 5.33334 5.33325 5.9303 5.33325 6.66668V12C5.33325 12.7364 5.93021 13.3333 6.66659 13.3333H11.9999C12.7363 13.3333 13.3333 12.7364 13.3333 12V6.66668C13.3333 5.9303 12.7363 5.33334 11.9999 5.33334Z" stroke="#292A43" stroke-width="1.3" stroke-linecap="round" stroke-linejoin="round"/>
<path d="M10.6667 5.33332V3.99999C10.6667 3.64637 10.5263 3.30723 10.2762 3.05718C10.0262 2.80713 9.68704 2.66666 9.33341 2.66666H4.00008C3.64646 2.66666 3.30732 2.80713 3.05727 3.05718C2.80722 3.30723 2.66675 3.64637 2.66675 3.99999V9.33332C2.66675 9.68694 2.80722 10.0261 3.05727 10.2761C3.30732 10.5262 3.64646 10.6667 4.00008 10.6667H5.33341" stroke="#292A43" stroke-width="1.3" stroke-linecap="round" stroke-linejoin="round"/>
</svg>
