<svg width="16" height="16" viewBox="0 0 16 16" fill="none" xmlns="http://www.w3.org/2000/svg">
<path fill-rule="evenodd" clip-rule="evenodd" d="M1.3501 2.99998C1.3501 2.08871 2.08883 1.34998 3.0001 1.34998H9.0001C9.91137 1.34998 10.6501 2.08871 10.6501 2.99998V5.99998H9.3501V2.99998C9.3501 2.80668 9.1934 2.64998 9.0001 2.64998H3.0001C2.8068 2.64998 2.6501 2.80668 2.6501 2.99998V8.99998C2.6501 9.19328 2.8068 9.34998 3.0001 9.34998H6.0001V10.65H3.0001C2.08883 10.65 1.3501 9.91125 1.3501 8.99998V2.99998Z" fill="#292A43"/>
<path fill-rule="evenodd" clip-rule="evenodd" d="M5.3501 6.99998C5.3501 6.08871 6.08883 5.34998 7.0001 5.34998H13.0001C13.9114 5.34998 14.6501 6.08871 14.6501 6.99998V13C14.6501 13.9112 13.9114 14.65 13.0001 14.65H7.0001C6.08883 14.65 5.3501 13.9112 5.3501 13V6.99998ZM7.0001 6.64998C6.8068 6.64998 6.6501 6.80668 6.6501 6.99998V13C6.6501 13.1933 6.8068 13.35 7.0001 13.35H13.0001C13.1934 13.35 13.3501 13.1933 13.3501 13V6.99998C13.3501 6.80668 13.1934 6.64998 13.0001 6.64998H7.0001Z" fill="#292A43"/>
</svg>
