<svg width="20" height="20" viewBox="0 0 20 20" fill="none" xmlns="http://www.w3.org/2000/svg">
<g clip-path="url(#clip0_963_204086)">
<path fill-rule="evenodd" clip-rule="evenodd" d="M2.35479 4.9254C2.351 4.95603 2.34937 4.98698 2.34998 5.01801V15.8264C2.34849 15.9032 2.36059 15.9809 2.38727 16.0558C2.44957 16.2313 2.58507 16.372 2.75704 16.4414C2.92415 16.5086 3.11748 16.506 3.28889 16.4207C3.29608 16.4171 3.30322 16.4134 3.31033 16.4096L3.32496 16.4014C4.36629 15.8001 5.54754 15.4836 6.74996 15.4836C7.95239 15.4836 9.13363 15.8001 10.175 16.4014C10.1872 16.4084 10.1996 16.415 10.2121 16.4212C10.2492 16.4396 10.2882 16.4545 10.3289 16.4655C10.4372 16.4951 10.5514 16.496 10.6601 16.4684C10.7122 16.4552 10.7618 16.4357 10.8081 16.4108L10.825 16.4014C11.8663 15.8001 13.0475 15.4836 14.25 15.4836C15.4524 15.4836 16.6336 15.8001 17.675 16.4014C17.8577 16.5069 18.0704 16.5135 18.2512 16.438C18.4276 16.364 18.5645 16.2144 18.6213 16.0298C18.6418 15.9635 18.6511 15.8953 18.65 15.8279V5.01655C18.6504 4.99085 18.6493 4.96521 18.6467 4.93977C18.6383 4.85535 18.6138 4.77568 18.5762 4.7039C18.521 4.598 18.436 4.50603 18.325 4.4419C17.086 3.72659 15.6806 3.35001 14.25 3.35001C12.943 3.35001 11.6571 3.66428 10.5 4.26398C9.34279 3.66428 8.05689 3.35001 6.74996 3.35001C5.31934 3.35001 3.91392 3.72659 2.67496 4.4419C2.56008 4.50823 2.47311 4.60432 2.41816 4.71482C2.38579 4.7796 2.36393 4.85054 2.35479 4.9254ZM17.35 5.39162C16.3909 4.90487 15.329 4.65001 14.25 4.65001C13.171 4.65001 12.1091 4.90487 11.15 5.3916V14.7962C12.1302 14.3931 13.1831 14.1836 14.25 14.1836C15.3168 14.1836 16.3697 14.3931 17.35 14.7962V5.39162ZM9.84998 5.39162V14.7962C8.86971 14.3931 7.81685 14.1836 6.74996 14.1836C5.68309 14.1836 4.63023 14.3931 3.64998 14.7962V5.3916C4.60906 4.90487 5.67098 4.65001 6.74996 4.65001C7.82895 4.65001 8.89089 4.90487 9.84998 5.39162Z" fill="#292A43"/>
</g>
<defs>
<clipPath id="clip0_963_204086">
<rect width="20" height="20" fill="white"/>
</clipPath>
</defs>
</svg>
