<svg width="16" height="16" viewBox="0 0 16 16" fill="none" xmlns="http://www.w3.org/2000/svg">
<path d="M2.66675 5.33335V4.00002C2.66675 3.6464 2.80722 3.30726 3.05727 3.05721C3.30732 2.80716 3.64646 2.66669 4.00008 2.66669H5.33341" stroke="#292A43" stroke-width="1.3" stroke-linecap="round" stroke-linejoin="round"/>
<path d="M2.66675 10.6667V12C2.66675 12.3536 2.80722 12.6928 3.05727 12.9428C3.30732 13.1928 3.64646 13.3333 4.00008 13.3333H5.33341" stroke="#292A43" stroke-width="1.3" stroke-linecap="round" stroke-linejoin="round"/>
<path d="M10.6667 2.66669H12.0001C12.3537 2.66669 12.6928 2.80716 12.9429 3.05721C13.1929 3.30726 13.3334 3.6464 13.3334 4.00002V5.33335" stroke="#292A43" stroke-width="1.3" stroke-linecap="round" stroke-linejoin="round"/>
<path d="M10.6667 13.3333H12.0001C12.3537 13.3333 12.6928 13.1928 12.9429 12.9428C13.1929 12.6928 13.3334 12.3536 13.3334 12V10.6667" stroke="#292A43" stroke-width="1.3" stroke-linecap="round" stroke-linejoin="round"/>
</svg>
