<svg width="16" height="16" viewBox="0 0 16 16" fill="none" xmlns="http://www.w3.org/2000/svg">
<path d="M5.33325 2.66668V4.00001C5.33325 4.35363 5.19278 4.69277 4.94273 4.94282C4.69268 5.19287 4.35354 5.33334 3.99992 5.33334H2.66659" stroke="#292A43" stroke-width="1.3" stroke-linecap="round" stroke-linejoin="round"/>
<path d="M5.33325 13.3333V12C5.33325 11.6464 5.19278 11.3072 4.94273 11.0572C4.69268 10.8071 4.35354 10.6666 3.99992 10.6666H2.66659" stroke="#292A43" stroke-width="1.3" stroke-linecap="round" stroke-linejoin="round"/>
<path d="M13.3333 5.33334H11.9999C11.6463 5.33334 11.3072 5.19287 11.0571 4.94282C10.8071 4.69277 10.6666 4.35363 10.6666 4.00001V2.66668" stroke="#292A43" stroke-width="1.3" stroke-linecap="round" stroke-linejoin="round"/>
<path d="M13.3333 10.6666H11.9999C11.6463 10.6666 11.3072 10.8071 11.0571 11.0572C10.8071 11.3072 10.6666 11.6464 10.6666 12V13.3333" stroke="#292A43" stroke-width="1.3" stroke-linecap="round" stroke-linejoin="round"/>
</svg>
