<svg width="80" height="80" viewBox="0 0 80 80" fill="none" xmlns="http://www.w3.org/2000/svg">
<g clip-path="url(#clip0_11116_93271)">
<path d="M25 36.875L37.2727 50L70 15" stroke="#292A43" stroke-width="4" stroke-linecap="round" stroke-linejoin="round"/>
<path d="M74.8271 36.5249C75.5807 44.0774 73.8588 51.6702 69.921 58.1588C65.9832 64.6473 60.0428 69.68 52.9954 72.4981C45.948 75.3162 38.1755 75.7671 30.8495 73.7828C23.5236 71.7984 17.0411 67.4864 12.3795 61.4967C7.7178 55.507 5.12952 48.1642 5.00479 40.5753C4.88006 32.9863 7.22564 25.5625 11.688 19.4228C16.1503 13.2832 22.4875 8.76043 29.7443 6.53641C32.7734 5.60807 35.8942 5.10124 39.0214 5.01379C43.386 4.89173 47.763 5.58661 51.9205 7.0926" stroke="#292A43" stroke-width="4" stroke-linecap="round"/>
</g>
<defs>
<clipPath id="clip0_11116_93271">
<rect width="80" height="80" fill="white"/>
</clipPath>
</defs>
</svg>
