<svg width="16" height="16" viewBox="0 0 16 16" fill="none" xmlns="http://www.w3.org/2000/svg">
<g clip-path="url(#clip0_16399_9413)">
<path d="M5.9987 4.00033C6.36689 4.00033 6.66536 3.70185 6.66536 3.33366C6.66536 2.96547 6.36689 2.66699 5.9987 2.66699C5.63051 2.66699 5.33203 2.96547 5.33203 3.33366C5.33203 3.70185 5.63051 4.00033 5.9987 4.00033Z" fill="#8A94AE" stroke="#8A94AE" stroke-linecap="round" stroke-linejoin="round"/>
<path d="M5.9987 8.66634C6.36689 8.66634 6.66536 8.36786 6.66536 7.99967C6.66536 7.63148 6.36689 7.33301 5.9987 7.33301C5.63051 7.33301 5.33203 7.63148 5.33203 7.99967C5.33203 8.36786 5.63051 8.66634 5.9987 8.66634Z" fill="#8A94AE" stroke="#8A94AE" stroke-linecap="round" stroke-linejoin="round"/>
<path d="M5.9987 13.3333C6.36689 13.3333 6.66536 13.0349 6.66536 12.6667C6.66536 12.2985 6.36689 12 5.9987 12C5.63051 12 5.33203 12.2985 5.33203 12.6667C5.33203 13.0349 5.63051 13.3333 5.9987 13.3333Z" fill="#8A94AE" stroke="#8A94AE" stroke-linecap="round" stroke-linejoin="round"/>
<path d="M9.9987 4.00033C10.3669 4.00033 10.6654 3.70185 10.6654 3.33366C10.6654 2.96547 10.3669 2.66699 9.9987 2.66699C9.63051 2.66699 9.33203 2.96547 9.33203 3.33366C9.33203 3.70185 9.63051 4.00033 9.9987 4.00033Z" fill="#8A94AE" stroke="#8A94AE" stroke-linecap="round" stroke-linejoin="round"/>
<path d="M9.9987 8.66634C10.3669 8.66634 10.6654 8.36786 10.6654 7.99967C10.6654 7.63148 10.3669 7.33301 9.9987 7.33301C9.63051 7.33301 9.33203 7.63148 9.33203 7.99967C9.33203 8.36786 9.63051 8.66634 9.9987 8.66634Z" fill="#8A94AE" stroke="#8A94AE" stroke-linecap="round" stroke-linejoin="round"/>
<path d="M9.9987 13.3333C10.3669 13.3333 10.6654 13.0349 10.6654 12.6667C10.6654 12.2985 10.3669 12 9.9987 12C9.63051 12 9.33203 12.2985 9.33203 12.6667C9.33203 13.0349 9.63051 13.3333 9.9987 13.3333Z" fill="#8A94AE" stroke="#8A94AE" stroke-linecap="round" stroke-linejoin="round"/>
</g>
<defs>
<clipPath id="clip0_16399_9413">
<rect width="16" height="16" fill="white"/>
</clipPath>
</defs>
</svg>
