<svg width="16" height="16" viewBox="0 0 16 16" fill="none" xmlns="http://www.w3.org/2000/svg">
<g clip-path="url(#clip0_22130_28240)">
<path fill-rule="evenodd" clip-rule="evenodd" d="M5.98333 1.99998C5.98333 1.64099 5.69231 1.34998 5.33333 1.34998C4.97434 1.34998 4.68333 1.64099 4.68333 1.99998V2.67233H3.29277C2.21582 2.67233 1.34277 3.54537 1.34277 4.62233V12.6821C1.34277 13.7591 2.21582 14.6321 3.29277 14.6321H7.98163C8.34061 14.6321 8.63163 14.3411 8.63163 13.9821C8.63163 13.6231 8.34061 13.3321 7.98163 13.3321H3.29277C2.93379 13.3321 2.64277 13.0411 2.64277 12.6821V7.31666H13.3572V7.6502C13.3572 8.00918 13.6482 8.3002 14.0072 8.3002C14.3662 8.3002 14.6572 8.00918 14.6572 7.6502V4.62233C14.6572 3.54537 13.7841 2.67233 12.7072 2.67233H11.3167V1.99998C11.3167 1.64099 11.0257 1.34998 10.6667 1.34998C10.3077 1.34998 10.0167 1.64099 10.0167 1.99998V2.67233H5.98333V1.99998ZM4.68333 3.97233V3.99998C4.68333 4.35896 4.97434 4.64998 5.33333 4.64998C5.69231 4.64998 5.98333 4.35896 5.98333 3.99998V3.97233H10.0167V3.99998C10.0167 4.35896 10.3077 4.64998 10.6667 4.64998C11.0257 4.64998 11.3167 4.35896 11.3167 3.99998V3.97233H12.7072C13.0662 3.97233 13.3572 4.26334 13.3572 4.62233V6.01666H2.64277V4.62233C2.64277 4.26334 2.93379 3.97233 3.29277 3.97233H4.68333Z" fill="#FF8A00"/>
<path d="M10.2212 10.2445L13.9786 14.0019" stroke="#FF8A00" stroke-width="1.3" stroke-linecap="round"/>
<path d="M13.9785 10.2445L10.2212 14.0019" stroke="#FF8A00" stroke-width="1.3" stroke-linecap="round"/>
</g>
<defs>
<clipPath id="clip0_22130_28240">
<rect width="16" height="16" fill="white"/>
</clipPath>
</defs>
</svg>
