<svg width="16" height="16" viewBox="0 0 16 16" fill="none" xmlns="http://www.w3.org/2000/svg">
<path fill-rule="evenodd" clip-rule="evenodd" d="M9.20698 3.2069C9.6825 2.73138 10.3274 2.46423 10.9999 2.46423C11.6724 2.46423 12.3174 2.73138 12.7929 3.2069C13.2684 3.68242 13.5356 4.32736 13.5356 4.99985C13.5356 5.67234 13.2684 6.31728 12.7929 6.7928L5.79289 13.7928C5.67099 13.9147 5.50566 13.9832 5.33327 13.9832H2.6666C2.30762 13.9832 2.0166 13.6922 2.0166 13.3332V10.6665C2.0166 10.4941 2.08508 10.3288 2.20698 10.2069L9.20698 3.2069ZM10.9999 3.76423C10.6722 3.76423 10.3579 3.89441 10.1262 4.12614L3.3166 10.9358V12.6832H5.06403L11.8736 5.87357C12.1054 5.64184 12.2356 5.32756 12.2356 4.99985C12.2356 4.67214 12.1054 4.35786 11.8736 4.12614C11.6419 3.89441 11.3276 3.76423 10.9999 3.76423Z" fill="#292A43"/>
<path fill-rule="evenodd" clip-rule="evenodd" d="M8.54048 3.87373C8.79432 3.61989 9.20588 3.61989 9.45972 3.87373L12.1264 6.5404C12.3802 6.79424 12.3802 7.2058 12.1264 7.45964C11.8725 7.71348 11.461 7.71348 11.2071 7.45964L8.54048 4.79297C8.28664 4.53913 8.28664 4.12757 8.54048 3.87373Z" fill="#292A43"/>
</svg>
