<svg width="16" height="16" viewBox="0 0 16 16" fill="none" xmlns="http://www.w3.org/2000/svg">
<path d="M5.84615 4H3.53846C3.13044 4 2.73912 4.16209 2.4506 4.4506C2.16209 4.73912 2 5.13044 2 5.53846V12.4615C2 12.8696 2.16209 13.2609 2.4506 13.5494C2.73912 13.8379 3.13044 14 3.53846 14H10.4615C10.8696 14 11.2609 13.8379 11.5494 13.5494C11.8379 13.2609 12 12.8696 12 12.4615V10.1538" stroke="#292A43" stroke-width="1.3" stroke-linecap="round" stroke-linejoin="round"/>
<path d="M6 10H8.22748L14.5387 3.68881C14.8341 3.39342 15 2.9928 15 2.57507C15 2.15733 14.8341 1.75671 14.5387 1.46133C14.2433 1.16594 13.8427 1 13.4249 1C13.0072 1 12.6066 1.16594 12.3112 1.46133L6 7.77252V10Z" stroke="#292A43" stroke-width="1.3" stroke-linecap="round" stroke-linejoin="round"/>
<path d="M12 3L13.5 4.5" stroke="#292A43" stroke-width="1.3" stroke-linecap="round" stroke-linejoin="round"/>
</svg>
