<svg width="16" height="16" viewBox="0 0 16 16" fill="none" xmlns="http://www.w3.org/2000/svg">
<path d="M7.99992 10.6666C9.47268 10.6666 10.6666 9.47274 10.6666 7.99998C10.6666 6.52722 9.47268 5.33331 7.99992 5.33331C6.52716 5.33331 5.33325 6.52722 5.33325 7.99998C5.33325 9.47274 6.52716 10.6666 7.99992 10.6666Z" stroke="#292A43" stroke-width="1.3" stroke-linecap="round" stroke-linejoin="round"/>
<path d="M10.6667 8.00002V9.00002C10.6667 9.44205 10.8423 9.86597 11.1548 10.1785C11.4674 10.4911 11.8913 10.6667 12.3333 10.6667C12.7754 10.6667 13.1993 10.4911 13.5118 10.1785C13.8244 9.86597 14 9.44205 14 9.00002V8.00002C14.0017 6.71076 13.588 5.45525 12.8203 4.41948C12.0525 3.38372 10.9716 2.62279 9.73759 2.24942C8.50357 1.87605 7.18211 1.9101 5.96896 2.34653C4.7558 2.78295 3.7155 3.59854 3.00214 4.67247C2.28878 5.7464 1.94031 7.02155 2.00837 8.30902C2.07642 9.59648 2.55737 10.8278 3.37997 11.8205C4.20257 12.8133 5.32306 13.5146 6.57546 13.8207C7.82786 14.1269 9.14555 14.0214 10.3333 13.52" stroke="#292A43" stroke-width="1.3" stroke-linecap="round" stroke-linejoin="round"/>
</svg>
