<svg width="20" height="20" viewBox="0 0 20 20" fill="none" xmlns="http://www.w3.org/2000/svg">
<g id="Icon / 24 px / Folder" clip-path="url(#clip0_788_36150)">
<path id="Union" fill-rule="evenodd" clip-rule="evenodd" d="M3.19444 3.125C2.83303 3.125 2.49328 3.26071 2.24827 3.49171C2.00452 3.72154 1.875 4.02513 1.875 4.33333V14.4167C1.875 14.7249 2.00452 15.0285 2.24827 15.2583C2.49328 15.4893 2.83303 15.625 3.19444 15.625H16.8056C17.167 15.625 17.5067 15.4893 17.7517 15.2583C17.9955 15.0285 18.125 14.7249 18.125 14.4167V7.08333C18.125 6.77513 17.9955 6.47154 17.7517 6.24171C17.5067 6.01071 17.167 5.875 16.8056 5.875H10C9.8406 5.875 9.68722 5.81409 9.57124 5.70474L6.83515 3.125H3.19444ZM1.39076 2.58223C1.87506 2.1256 2.52446 1.875 3.19444 1.875H7.08333C7.24273 1.875 7.39611 1.93591 7.51209 2.04526L10.2482 4.625H16.8056C17.4755 4.625 18.1249 4.8756 18.6092 5.33223C19.0948 5.79003 19.375 6.41908 19.375 7.08333V14.4167C19.375 15.0809 19.0948 15.71 18.6092 16.1678C18.1249 16.6244 17.4755 16.875 16.8056 16.875H3.19444C2.52446 16.875 1.87506 16.6244 1.39076 16.1678C0.905204 15.71 0.625 15.0809 0.625 14.4167V4.33333C0.625 3.66908 0.905204 3.04003 1.39076 2.58223Z" fill="currentColor"/>
</g>
<defs>
<clipPath id="clip0_788_36150">
<rect width="20" height="20" fill="white"/>
</clipPath>
</defs>
</svg>
