<svg width="16" height="16" viewBox="0 0 16 16" fill="none" xmlns="http://www.w3.org/2000/svg">
<path fill-rule="evenodd" clip-rule="evenodd" d="M8.04053 5.04042C7.78669 5.29426 7.78669 5.70582 8.04053 5.95966L9.43091 7.35004H1.00015C0.641162 7.35004 0.350147 7.64105 0.350147 8.00004C0.350147 8.35902 0.641162 8.65004 1.00015 8.65004H9.43091L8.04053 10.0404C7.78669 10.2943 7.78669 10.7058 8.04053 10.9597C8.29437 11.2135 8.70593 11.2135 8.95977 10.9597L11.4598 8.45966C11.7136 8.20582 11.7136 7.79426 11.4598 7.54042L8.95977 5.04042C8.70593 4.78658 8.29437 4.78658 8.04053 5.04042Z" fill="#292A43"/>
<path fill-rule="evenodd" clip-rule="evenodd" d="M3.3501 1.49998C3.3501 1.14099 3.64111 0.849976 4.0001 0.849976H14.0001C14.3591 0.849976 14.6501 1.14099 14.6501 1.49998V14.65C14.6501 15.009 14.3591 15.3 14.0001 15.3H4.0001C3.64111 15.3 3.3501 15.009 3.3501 14.65V12.1045C3.3501 11.7456 3.64111 11.4545 4.0001 11.4545C4.35908 11.4545 4.6501 11.7456 4.6501 12.1045V14H13.3501V2.14998H4.6501V4.04543C4.6501 4.40442 4.35908 4.69543 4.0001 4.69543C3.64111 4.69543 3.3501 4.40442 3.3501 4.04543V1.49998Z" fill="#292A43"/>
</svg>
