<svg width="20" height="21" viewBox="0 0 20 21" fill="none" xmlns="http://www.w3.org/2000/svg">
<path d="M13.4257 4.79155V4.32857C13.4257 3.31868 12.6071 2.5 11.5972 2.5H3.82637C2.81645 2.5 1.99776 3.31873 1.9978 4.32865L1.99832 16.6715C1.99836 17.6814 2.81544 18.5 3.82531 18.5H11.5989C12.6088 18.5 13.4257 17.6813 13.4257 16.6714V15.0709M4.65989 5.31853H8.84928M4.65989 11.1024H5.80937M4.65989 8.18025H7.20119M14.5815 6.79524L16.3708 8.50616M8.66657 12.9984L15.8686 5.44539C16.3403 4.95062 17.1239 4.93198 17.6186 5.40375C18.1134 5.87553 18.1321 6.65906 17.6603 7.15383L10.4583 14.7068L7.89724 15.5959L8.66657 12.9984Z" stroke="white" stroke-width="1.3" stroke-linecap="round" stroke-linejoin="round"/>
</svg>
