<svg width="16" height="16" viewBox="0 0 16 16" fill="none" xmlns="http://www.w3.org/2000/svg">
<path fill-rule="evenodd" clip-rule="evenodd" d="M4.68581 2.2C4.17168 2.2 3.8001 2.59255 3.8001 3.02222V12.9778C3.8001 13.4075 4.17168 13.8 4.68581 13.8H12.1144C12.6285 13.8 13.0001 13.4075 13.0001 12.9778V3.02222C13.0001 2.59255 12.6285 2.2 12.1144 2.2H4.68581ZM2.6001 3.02222C2.6001 1.88095 3.55887 1 4.68581 1H12.1144C13.2413 1 14.2001 1.88095 14.2001 3.02222V12.9778C14.2001 14.119 13.2413 15 12.1144 15H4.68581C3.55887 15 2.6001 14.119 2.6001 12.9778V3.02222Z" fill="#292A43"/>
<path fill-rule="evenodd" clip-rule="evenodd" d="M5.3999 4.66665C5.3999 4.33528 5.66853 4.06665 5.9999 4.06665H9.9999C10.3313 4.06665 10.5999 4.33528 10.5999 4.66665C10.5999 4.99802 10.3313 5.26665 9.9999 5.26665H5.9999C5.66853 5.26665 5.3999 4.99802 5.3999 4.66665Z" fill="#292A43"/>
<path fill-rule="evenodd" clip-rule="evenodd" d="M5.3999 7.33334C5.3999 7.00197 5.66853 6.73334 5.9999 6.73334H9.9999C10.3313 6.73334 10.5999 7.00197 10.5999 7.33334C10.5999 7.66471 10.3313 7.93334 9.9999 7.93334H5.9999C5.66853 7.93334 5.3999 7.66471 5.3999 7.33334Z" fill="#292A43"/>
<path fill-rule="evenodd" clip-rule="evenodd" d="M5.3999 10C5.3999 9.66865 5.66853 9.40002 5.9999 9.40002H8.66657C8.99794 9.40002 9.26657 9.66865 9.26657 10C9.26657 10.3314 8.99794 10.6 8.66657 10.6H5.9999C5.66853 10.6 5.3999 10.3314 5.3999 10Z" fill="#292A43"/>
</svg>
