<svg width="16" height="16" viewBox="0 0 16 16" fill="none" xmlns="http://www.w3.org/2000/svg">
<path fill-rule="evenodd" clip-rule="evenodd" d="M12.0405 10.9596C11.7867 10.7058 11.7867 10.2942 12.0405 10.0404L13.4309 8.64999H5.00015C4.64116 8.64999 4.35015 8.35898 4.35015 7.99999C4.35015 7.64101 4.64116 7.34999 5.00015 7.34999H13.4309L12.0405 5.95961C11.7867 5.70577 11.7867 5.29422 12.0405 5.04037C12.2944 4.78653 12.7059 4.78653 12.9598 5.04037L15.4598 7.54037C15.7136 7.79422 15.7136 8.20577 15.4598 8.45961L12.9598 10.9596C12.7059 11.2135 12.2944 11.2135 12.0405 10.9596Z" fill="#292A43"/>
<path fill-rule="evenodd" clip-rule="evenodd" d="M10.6501 1.49998C10.6501 1.14099 10.3591 0.849976 10.0001 0.849976H2.00015C1.64116 0.849976 1.35015 1.14099 1.35015 1.49998V14.65C1.35015 15.009 1.64116 15.3 2.00015 15.3H10.0001C10.3591 15.3 10.6501 15.009 10.6501 14.65V12.1045C10.6501 11.7456 10.3591 11.4545 10.0001 11.4545C9.64116 11.4545 9.35015 11.7456 9.35015 12.1045V14H2.65015V2.14998H9.35015V4.04543C9.35015 4.40442 9.64116 4.69543 10.0001 4.69543C10.3591 4.69543 10.6501 4.40442 10.6501 4.04543V1.49998Z" fill="#292A43"/>
</svg>
