<svg width="16" height="16" viewBox="0 0 16 16" fill="none" xmlns="http://www.w3.org/2000/svg">
<path fill-rule="evenodd" clip-rule="evenodd" d="M4.35355 5.97976C4.54882 6.17502 4.54882 6.4916 4.35355 6.68687L3.20711 7.83331H9.33333C9.60947 7.83331 9.83333 8.05717 9.83333 8.33331C9.83333 8.60946 9.60947 8.83331 9.33333 8.83331H3.20711L4.35355 9.97976C4.54882 10.175 4.54882 10.4916 4.35355 10.6869C4.15829 10.8821 3.84171 10.8821 3.64645 10.6869L1.64645 8.68687C1.45118 8.4916 1.45118 8.17502 1.64645 7.97976L3.64645 5.97976C3.84171 5.7845 4.15829 5.7845 4.35355 5.97976Z" fill="#292A43"/>
<path fill-rule="evenodd" clip-rule="evenodd" d="M5.5 3.66665C5.5 3.20641 5.8731 2.83331 6.33333 2.83331H11.6667C12.1269 2.83331 12.5 3.20641 12.5 3.66665V13C12.5 13.4602 12.1269 13.8333 11.6667 13.8333H6.33333C5.8731 13.8333 5.5 13.4602 5.5 13V11.8627C5.5 11.5866 5.72386 11.3627 6 11.3627C6.27614 11.3627 6.5 11.5866 6.5 11.8627V12.8333H11.5V3.83331H6.5V4.66665C6.5 4.94279 6.27614 5.16665 6 5.16665C5.72386 5.16665 5.5 4.94279 5.5 4.66665V3.66665Z" fill="#292A43"/>
</svg>
