<svg width="16" height="16" viewBox="0 0 16 16" fill="none" xmlns="http://www.w3.org/2000/svg">
<path fill-rule="evenodd" clip-rule="evenodd" d="M1.24043 1.54036C1.49427 1.28652 1.90583 1.28652 2.15967 1.54036L14.7597 14.1404C15.0135 14.3942 15.0135 14.8058 14.7597 15.0596C14.5058 15.3134 14.0943 15.3134 13.8404 15.0596L1.24043 2.45959C0.986589 2.20575 0.986589 1.7942 1.24043 1.54036Z" fill="#292A43"/>
<path fill-rule="evenodd" clip-rule="evenodd" d="M7.46851 6.85143C7.72226 7.10536 7.72211 7.51692 7.46818 7.77067C7.32743 7.91133 7.24831 8.10214 7.24824 8.30112C7.24817 8.50011 7.32715 8.69098 7.46781 8.83173C7.60846 8.97249 7.79927 9.0516 7.99826 9.05167C8.19725 9.05174 8.38811 8.97276 8.52887 8.83211C8.7828 8.57836 9.19436 8.5785 9.44811 8.83243C9.70186 9.08636 9.70171 9.49792 9.44778 9.75167C9.06314 10.136 8.54157 10.3519 7.9978 10.3517C7.45403 10.3515 6.93261 10.1353 6.54824 9.75065C6.16388 9.36601 5.94805 8.84443 5.94824 8.30066C5.94843 7.7569 6.16463 7.23547 6.54927 6.85111C6.8032 6.59736 7.21476 6.5975 7.46851 6.85143Z" fill="#292A43"/>
<path fill-rule="evenodd" clip-rule="evenodd" d="M7.48879 4.06988L13.2131 9.78801C13.5692 9.34773 13.9139 8.85216 14.2466 8.29992C12.4889 5.38102 10.4013 4.04998 8.0001 4.04998H7.9978V4.04998C7.82774 4.04937 7.65792 4.05603 7.48879 4.06988ZM8.00125 2.74998C7.31614 2.74766 6.63413 2.84212 5.97543 3.03055C5.75398 3.0939 5.58259 3.26971 5.52491 3.49271C5.46723 3.7157 5.53187 3.95257 5.69483 4.11535L12.7886 11.2014C12.9137 11.3264 13.0842 11.395 13.261 11.3915C13.4377 11.3879 13.6054 11.3126 13.7253 11.1828C14.3883 10.4655 15.0001 9.60979 15.5644 8.62256C15.6786 8.42271 15.6787 8.17734 15.5644 7.97748C13.6273 4.58766 11.1127 2.75044 8.00125 2.74998ZM4.78042 4.1964C4.98194 4.49349 4.90446 4.89769 4.60737 5.09921C3.58287 5.79413 2.62744 6.8498 1.75365 8.30005C3.51129 11.2189 5.59885 12.55 8.0001 12.55C9.22779 12.55 10.3504 12.2042 11.3865 11.5054C11.6842 11.3047 12.0882 11.3832 12.2889 11.6808C12.4896 11.9785 12.4111 12.3824 12.1134 12.5832C10.8662 13.4244 9.4912 13.85 8.0001 13.85C4.88809 13.85 2.37313 12.0127 0.435747 8.62248C0.321535 8.42262 0.321549 8.17726 0.435783 7.97741C1.42788 6.24179 2.56999 4.91032 3.87762 4.02335C4.17471 3.82184 4.57891 3.89932 4.78042 4.1964Z" fill="#292A43"/>
</svg>
