<svg width="16" height="16" viewBox="0 0 16 16" fill="none" xmlns="http://www.w3.org/2000/svg">
<path fill-rule="evenodd" clip-rule="evenodd" d="M8.0002 7.14998C7.58598 7.14998 7.2502 7.48576 7.2502 7.89998C7.2502 8.31419 7.58598 8.64998 8.0002 8.64998C8.41441 8.64998 8.7502 8.31419 8.7502 7.89998C8.7502 7.48576 8.41441 7.14998 8.0002 7.14998ZM5.9502 7.89998C5.9502 6.76779 6.86801 5.84998 8.0002 5.84998C9.13238 5.84998 10.0502 6.76779 10.0502 7.89998C10.0502 9.03216 9.13238 9.94998 8.0002 9.94998C6.86801 9.94998 5.9502 9.03216 5.9502 7.89998Z" fill="#292A43"/>
<path fill-rule="evenodd" clip-rule="evenodd" d="M1.7536 7.89997C3.51126 10.8189 5.59883 12.15 8.0001 12.15C10.4014 12.15 12.4889 10.8189 14.2466 7.89997C12.4889 4.98103 10.4014 3.64998 8.0001 3.64998C5.59883 3.64998 3.51126 4.98103 1.7536 7.89997ZM0.435747 7.57747C2.37313 4.18724 4.88809 2.34998 8.0001 2.34998C11.1121 2.34998 13.6271 4.18724 15.5644 7.57747C15.6786 7.77731 15.6786 8.02264 15.5644 8.22248C13.6271 11.6127 11.1121 13.45 8.0001 13.45C4.88809 13.45 2.37313 11.6127 0.435747 8.22248C0.321548 8.02264 0.321548 7.77731 0.435747 7.57747Z" fill="#292A43"/>
</svg>
