<svg width="16" height="16" viewBox="0 0 16 16" fill="none" xmlns="http://www.w3.org/2000/svg">
<path fill-rule="evenodd" clip-rule="evenodd" d="M2.3501 3.49998C2.3501 2.31256 3.31269 1.34998 4.5001 1.34998H8.58588C9.02349 1.34998 9.44317 1.52381 9.75261 1.83325L13.1668 5.24746C13.4763 5.5569 13.6501 5.97658 13.6501 6.41419V12.5C13.6501 13.6874 12.6875 14.65 11.5001 14.65H4.5001C3.31269 14.65 2.3501 13.6874 2.3501 12.5V3.49998ZM4.5001 2.64998C4.03066 2.64998 3.6501 3.03053 3.6501 3.49998V12.5C3.6501 12.9694 4.03066 13.35 4.5001 13.35H11.5001C11.9695 13.35 12.3501 12.9694 12.3501 12.5V6.64998H9.0001C8.64111 6.64998 8.3501 6.35896 8.3501 5.99998V2.64998H4.5001ZM9.6501 3.56921V5.34998H11.4309L9.6501 3.56921Z" fill="#292A43"/>
</svg>
