<svg width="16" height="16" viewBox="0 0 16 16" fill="none" xmlns="http://www.w3.org/2000/svg">
<path d="M10 1V4.26316C10 4.45858 10.0776 4.646 10.2158 4.78418C10.354 4.92237 10.5414 5 10.7368 5H14" stroke="#292A43" stroke-width="1.3" stroke-linecap="round" stroke-linejoin="round"/>
<path d="M3 8V2.47368C3 2.08284 3.15526 1.708 3.43163 1.43163C3.708 1.15526 4.08284 1 4.47368 1H10L14 5V13C14 13.3908 13.8447 13.7657 13.5684 14.0421C13.292 14.3184 12.9172 14.4737 12.5263 14.4737H8.5M1 12.7895H6.15789M6.15789 12.7895L3.94737 10.5789M6.15789 12.7895L3.94737 15" stroke="#292A43" stroke-width="1.3" stroke-linecap="round" stroke-linejoin="round"/>
</svg>
