<svg width="16" height="16" viewBox="0 0 16 16" fill="none" xmlns="http://www.w3.org/2000/svg">
<path fill-rule="evenodd" clip-rule="evenodd" d="M14.95 3.33279C14.95 3.69177 14.6589 3.98279 14.3 3.98279L12.2 3.98279L12.2 4.11643C12.2 4.39257 11.9761 4.61643 11.7 4.61643L10.1335 4.61643C9.85737 4.61643 9.63351 4.39257 9.63351 4.11643L9.63351 3.98279L1.69995 3.98279C1.34097 3.98279 1.04995 3.69177 1.04995 3.33279C1.04995 2.9738 1.34097 2.68279 1.69995 2.68279L9.63351 2.68279L9.63351 2.54999C9.63351 2.27385 9.85737 2.04999 10.1335 2.04999L11.7 2.04999C11.9761 2.04999 12.2 2.27385 12.2 2.54999L12.2 2.68279L14.3 2.68279C14.6589 2.68279 14.95 2.9738 14.95 3.33279ZM14.3 8.64948C14.6589 8.64948 14.95 8.35846 14.95 7.99948C14.95 7.64049 14.6589 7.34947 14.3 7.34947L6.59997 7.34947L6.59997 7.23999C6.59997 6.96385 6.37612 6.73999 6.09997 6.73999L4.53097 6.73999C4.25483 6.73999 4.03097 6.96385 4.03097 7.23999L4.03097 7.34947L1.69995 7.34947C1.34097 7.34947 1.04995 7.64049 1.04995 7.99947C1.04995 8.35846 1.34097 8.64947 1.69995 8.64947L4.03097 8.64947L4.03097 8.80899C4.03097 9.08513 4.25483 9.30899 4.53097 9.30899L6.09997 9.30899C6.37612 9.30899 6.59997 9.08513 6.59997 8.80899L6.59997 8.64947L14.3 8.64948ZM14.3 13.3161C14.6589 13.3161 14.95 13.0251 14.95 12.6661C14.95 12.3071 14.6589 12.0161 14.3 12.0161L10.8 12.0161L10.8 11.86C10.8 11.5838 10.5762 11.36 10.3 11.36L8.73105 11.36C8.45491 11.36 8.23105 11.5838 8.23105 11.86L8.23105 12.0161L1.69995 12.0161C1.34097 12.0161 1.04995 12.3071 1.04995 12.6661C1.04995 13.0251 1.34097 13.3161 1.69995 13.3161L8.23105 13.3161L8.23105 13.429C8.23105 13.7051 8.45491 13.929 8.73105 13.929L10.3 13.929C10.5762 13.929 10.8 13.7051 10.8 13.429L10.8 13.3161L14.3 13.3161Z" fill="#292A43"/>
</svg>
