<svg width="16" height="16" viewBox="0 0 16 16" fill="none" xmlns="http://www.w3.org/2000/svg">
<path fill-rule="evenodd" clip-rule="evenodd" d="M2.34032 1.88824C2.41081 1.86292 2.48515 1.84998 2.56005 1.84998H13.4401C13.515 1.84998 13.5894 1.86292 13.6599 1.88824C13.8756 1.96573 14.0698 2.09228 14.2281 2.25699C14.3864 2.42163 14.5048 2.62007 14.5752 2.83659C14.6457 3.05308 14.6667 3.28275 14.637 3.50833C14.6073 3.73393 14.5274 3.9505 14.4027 4.14137C14.3852 4.16803 14.3659 4.19337 14.3447 4.21719L10.324 8.74685V14.5C10.324 14.7475 10.1833 14.9736 9.9613 15.083C9.73926 15.1924 9.47433 15.1663 9.27801 15.0155L5.93029 12.444C5.77012 12.321 5.67624 12.1305 5.67624 11.9285V8.74685L1.65547 4.21719C1.63432 4.19337 1.61496 4.16803 1.59753 4.14137C1.47275 3.95049 1.3929 3.73393 1.36318 3.50833C1.33346 3.28276 1.3545 3.05308 1.42496 2.83659C1.49543 2.62007 1.61378 2.42163 1.77206 2.25699C1.9304 2.09228 2.12458 1.96573 2.34032 1.88824ZM2.71733 3.14998C2.71458 3.15253 2.71188 3.15518 2.70923 3.15793C2.68828 3.17972 2.67144 3.20725 2.66113 3.23894C2.65081 3.27065 2.6476 3.30483 2.65205 3.33853C2.65501 3.36106 2.66128 3.3825 2.67029 3.40217L6.81235 8.06847C6.91793 8.18742 6.97624 8.34094 6.97624 8.49998V11.6082L9.02396 13.1811V8.49998C9.02396 8.34094 9.08227 8.18742 9.18784 8.06847L13.3299 3.40217C13.3389 3.3825 13.3452 3.36106 13.3482 3.33853C13.3526 3.30483 13.3494 3.27066 13.3391 3.23894C13.3287 3.20725 13.3119 3.17972 13.291 3.15793C13.2883 3.15518 13.2856 3.15253 13.2829 3.14998H2.71733Z" fill="#292A43"/>
</svg>
