<svg width="16" height="16" viewBox="0 0 16 16" fill="none" xmlns="http://www.w3.org/2000/svg">
<path fill-rule="evenodd" clip-rule="evenodd" d="M8.0001 2.64998C5.04537 2.64998 2.6501 5.04525 2.6501 7.99998C2.6501 10.9547 5.04537 13.35 8.0001 13.35C8.35908 13.35 8.6501 13.641 8.6501 14C8.6501 14.359 8.35908 14.65 8.0001 14.65C4.3274 14.65 1.3501 11.6727 1.3501 7.99998C1.3501 4.32728 4.3274 1.34998 8.0001 1.34998C11.6728 1.34998 14.6501 4.32728 14.6501 7.99998C14.6501 8.35896 14.3591 8.64998 14.0001 8.64998C13.6411 8.64998 13.3501 8.35896 13.3501 7.99998C13.3501 5.04525 10.9548 2.64998 8.0001 2.64998Z" fill="#292A43"/>
<path fill-rule="evenodd" clip-rule="evenodd" d="M15.4067 10.8488C15.6988 11.0575 15.7665 11.4635 15.5579 11.7556L12.529 14.8778C12.418 15.0333 12.2441 15.132 12.0537 15.1478C11.8633 15.1635 11.6756 15.0947 11.5405 14.9596L10.0405 13.4596C9.78664 13.2058 9.78664 12.7942 10.0405 12.5404C10.2943 12.2865 10.7059 12.2865 10.9597 12.5404L11.9172 13.4978L14.5 11C14.7087 10.7078 15.1146 10.6402 15.4067 10.8488Z" fill="#292A43"/>
<path fill-rule="evenodd" clip-rule="evenodd" d="M8.0001 4.34998C8.35908 4.34998 8.6501 4.64099 8.6501 4.99998V8.17498L10.3901 9.47998C10.6773 9.69537 10.7355 10.1028 10.5201 10.39C10.3047 10.6772 9.89729 10.7354 9.6101 10.52L7.3501 8.82498V4.99998C7.3501 4.64099 7.64111 4.34998 8.0001 4.34998Z" fill="#292A43"/>
</svg>
