<svg width="16" height="16" viewBox="0 0 16 16" fill="none" xmlns="http://www.w3.org/2000/svg">
<path fill-rule="evenodd" clip-rule="evenodd" d="M8.01936 0.800378C8.21814 0.661607 8.47763 0.64499 8.69248 0.757273C10.575 1.74106 12.2203 3.13776 13.1942 5.16006C14.1274 6.9817 14.222 9.11386 13.5355 10.8948C12.8438 12.6894 11.3509 14.1358 9.14796 14.5052C3.3999 15.7492 -0.465593 8.71875 3.87026 4.58069C4.07831 4.37577 4.67346 3.82098 4.9552 3.61939C5.1533 3.47766 5.414 3.45857 5.63063 3.56994C5.84725 3.68131 5.98343 3.90444 5.98343 4.14802C5.98343 4.27668 6.02326 4.81152 6.12068 5.28049C6.14699 5.40717 6.17422 5.51211 6.19998 5.59426C6.72443 5.51306 7.14647 5.10362 7.44448 4.34928C7.77828 3.50434 7.8734 2.3875 7.74689 1.4174C7.71554 1.17701 7.82057 0.939149 8.01936 0.800378ZM6.27446 5.77725C6.27442 5.77737 6.27326 5.77579 6.27109 5.77217C6.27341 5.77533 6.2745 5.77714 6.27446 5.77725ZM12.6121 5.44935L12.0262 5.73079C11.3744 4.37381 10.3525 3.32319 9.09725 2.49893C9.07447 3.29862 8.934 4.11703 8.65355 4.82693C8.23382 5.88939 7.42054 6.86395 6.09375 6.90781C5.86829 6.95417 5.64632 6.90109 5.46809 6.78079C5.28747 6.65888 5.17926 6.48866 5.11642 6.3702C4.98618 6.1247 4.90346 5.81261 4.84785 5.54488C4.84199 5.51669 4.83631 5.48831 4.83078 5.45979C4.81203 5.47792 4.7948 5.49473 4.77938 5.50996L4.77122 5.51801L4.77115 5.51794C1.40306 8.72711 4.37602 14.2197 8.88635 13.2317C8.8974 13.2293 8.9085 13.2272 8.91965 13.2254C10.6282 12.9435 11.7761 11.8447 12.3225 10.4272C12.8749 8.99405 12.8037 7.24442 12.034 5.74643L12.6121 5.44935Z" fill="#292A43"/>
</svg>
