<svg width="16" height="16" viewBox="0 0 16 16" fill="none" xmlns="http://www.w3.org/2000/svg">
<path fill-rule="evenodd" clip-rule="evenodd" d="M2.55565 2.64998C2.30355 2.64998 2.0689 2.74476 1.90162 2.90249C1.73563 3.05899 1.6501 3.2628 1.6501 3.46664V11.5333C1.6501 11.7371 1.73563 11.941 1.90162 12.0975C2.0689 12.2552 2.30355 12.35 2.55565 12.35H13.4445C13.6966 12.35 13.9313 12.2552 14.0986 12.0975C14.2646 11.941 14.3501 11.7371 14.3501 11.5333V5.66664C14.3501 5.4628 14.2646 5.25899 14.0986 5.10249C13.9313 4.94476 13.6966 4.84998 13.4445 4.84998H8.0001C7.83432 4.84998 7.67481 4.78663 7.55419 4.67291L5.40865 2.64998H2.55565ZM1.0098 1.95662C1.42596 1.56424 1.98264 1.34998 2.55565 1.34998H5.66676C5.83254 1.34998 5.99205 1.41332 6.11267 1.52704L8.25821 3.54998H13.4445C14.0176 3.54998 14.5742 3.76424 14.9904 4.15662C15.4079 4.55022 15.6501 5.09251 15.6501 5.66664V11.5333C15.6501 12.1074 15.4079 12.6497 14.9904 13.0433C14.5742 13.4357 14.0176 13.65 13.4445 13.65H2.55565C1.98264 13.65 1.42596 13.4357 1.0098 13.0433C0.592344 12.6497 0.350098 12.1074 0.350098 11.5333V3.46664C0.350098 2.89251 0.592344 2.35022 1.0098 1.95662Z" fill="#292A43"/>
<path fill-rule="evenodd" clip-rule="evenodd" d="M8.0001 6.0166C8.35908 6.0166 8.6501 6.30762 8.6501 6.6666V10.6666C8.6501 11.0256 8.35908 11.3166 8.0001 11.3166C7.64111 11.3166 7.3501 11.0256 7.3501 10.6666V6.6666C7.3501 6.30762 7.64111 6.0166 8.0001 6.0166Z" fill="#292A43"/>
<path fill-rule="evenodd" clip-rule="evenodd" d="M5.3501 8.6666C5.3501 8.30762 5.64111 8.0166 6.0001 8.0166H10.0001C10.3591 8.0166 10.6501 8.30762 10.6501 8.6666C10.6501 9.02559 10.3591 9.3166 10.0001 9.3166H6.0001C5.64111 9.3166 5.3501 9.02559 5.3501 8.6666Z" fill="#292A43"/>
</svg>
