<svg width="16" height="16" viewBox="0 0 16 16" fill="none" xmlns="http://www.w3.org/2000/svg">
<path fill-rule="evenodd" clip-rule="evenodd" d="M0.350098 10C0.350098 12.5681 2.43197 14.65 5.0001 14.65H6.0001C6.35908 14.65 6.6501 14.359 6.6501 14C6.6501 13.641 6.35908 13.35 6.0001 13.35H5.0001C3.14994 13.35 1.6501 11.8502 1.6501 10C1.6501 8.14987 3.14994 6.65002 5.0001 6.65002H15.0001C15.3591 6.65002 15.6501 6.35901 15.6501 6.00002C15.6501 5.64104 15.3591 5.35003 15.0001 5.35003H5.0001C2.43197 5.35003 0.350098 7.4319 0.350098 10Z" fill="#292A43"/>
<path fill-rule="evenodd" clip-rule="evenodd" d="M10.5405 10.4596C10.7943 10.7135 11.2059 10.7135 11.4597 10.4596L15.4597 6.45964C15.7136 6.2058 15.7136 5.79425 15.4597 5.5404L11.4597 1.54041C11.2059 1.28656 10.7943 1.28656 10.5405 1.54041C10.2866 1.79425 10.2866 2.2058 10.5405 2.45964L14.0809 6.00002L10.5405 9.54041C10.2866 9.79425 10.2866 10.2058 10.5405 10.4596Z" fill="#292A43"/>
</svg>
