<svg width="13" height="16" viewBox="0 0 13 16" fill="none" xmlns="http://www.w3.org/2000/svg">
    <path d="M11.0724 5.48643L11.8393 4.71953C12.059 4.4998 12.059 4.14385 11.8393 3.92412C11.6196 3.70439 11.2636 3.70439 11.0439 3.92412L10.277 4.69102C9.32613 3.89634 8.13683 3.38032 6.8335 3.26342V2.74247H7.3493C7.8082 2.74247 8.18151 2.3692 8.18151 1.91052V0.832215C8.18151 0.373309 7.80824 0 7.3493 0H5.1927C4.73379 0 4.36048 0.373277 4.36048 0.832215V1.91052C4.36048 2.3692 4.73376 2.74247 5.1927 2.74247H5.70849V3.26342C4.40506 3.38031 3.21577 3.89634 2.26501 4.69102L1.49811 3.92412C1.27839 3.70439 0.922431 3.70439 0.702701 3.92412C0.482975 4.14384 0.482975 4.4998 0.702701 4.71953L1.4696 5.48643C0.56169 6.57277 0.0134907 7.96935 0.0134907 9.49241C0.0134907 12.943 2.82048 15.75 6.27109 15.75C9.72171 15.75 12.5287 12.943 12.5287 9.49241C12.5287 7.96925 11.9805 6.57267 11.0726 5.48643H11.0724ZM6.27087 14.625C3.44077 14.625 1.13827 12.3225 1.13827 9.49241C1.13827 6.66232 3.44077 4.35981 6.27087 4.35981C9.10096 4.35981 11.4035 6.66232 11.4035 9.49241C11.4035 12.3225 9.10096 14.625 6.27087 14.625ZM5.48536 1.12494H7.05648V1.61737H5.48536V1.12494Z" fill="#292A43"/>
    <path d="M8.5371 8.92988H6.83339V7.12598C6.83339 6.81535 6.58152 6.56348 6.27089 6.56348C5.96025 6.56348 5.70839 6.81535 5.70839 7.12598V9.49238C5.70839 9.80301 5.96025 10.0549 6.27089 10.0549H8.5371C8.84773 10.0549 9.0996 9.80301 9.0996 9.49238C9.0996 9.18175 8.84773 8.92988 8.5371 8.92988Z" fill="#292A43"/>
</svg>
