<svg width="20" height="20" viewBox="0 0 20 20" fill="none" xmlns="http://www.w3.org/2000/svg">
<path fill-rule="evenodd" clip-rule="evenodd" d="M5.00026 3.98359C4.43877 3.98359 3.98359 4.43877 3.98359 5.00026V9.35043H9.35034V3.98359H5.00026ZM10.0003 2.68359H5.00026C3.7208 2.68359 2.68359 3.7208 2.68359 5.00026V10.0004V15.0003C2.68359 16.2797 3.7208 17.3169 5.00026 17.3169H10.0003H15.0003C16.2797 17.3169 17.3169 16.2797 17.3169 15.0003V10.0004V5.00026C17.3169 3.7208 16.2797 2.68359 15.0003 2.68359H10.0003ZM10.6503 3.98359V9.35043H16.0169V5.00026C16.0169 4.43877 15.5618 3.98359 15.0003 3.98359H10.6503ZM9.35034 10.6504H3.98359V15.0003C3.98359 15.5618 4.43877 16.0169 5.00026 16.0169H9.35034V10.6504ZM10.6503 16.0169V10.6504H16.0169V15.0003C16.0169 15.5618 15.5618 16.0169 15.0003 16.0169H10.6503Z" fill="white"/>
</svg>
