<svg width="20" height="16" viewBox="0 0 20 16" fill="none" xmlns="http://www.w3.org/2000/svg">
<path d="M5.99992 7.33333C7.47268 7.33333 8.66659 6.13943 8.66659 4.66667C8.66659 3.19391 7.47268 2 5.99992 2C4.52716 2 3.33325 3.19391 3.33325 4.66667C3.33325 6.13943 4.52716 7.33333 5.99992 7.33333Z" stroke="#292A43" stroke-width="1.3" stroke-linecap="round" stroke-linejoin="round"/>
<path d="M2 14V12.6667C2 11.9594 2.28095 11.2811 2.78105 10.781C3.28115 10.281 3.95942 10 4.66667 10H7.33333C8.04058 10 8.71885 10.281 9.21895 10.781C9.71905 11.2811 10 11.9594 10 12.6667V14" stroke="#292A43" stroke-width="1.3" stroke-linecap="round" stroke-linejoin="round"/>
<path d="M10.6667 2.08667C11.2404 2.23354 11.7488 2.56714 12.1118 3.03488C12.4749 3.50262 12.672 4.07789 12.672 4.67C12.672 5.26212 12.4749 5.83739 12.1118 6.30513C11.7488 6.77287 11.2404 7.10647 10.6667 7.25334" stroke="#292A43" stroke-width="1.3" stroke-linecap="round" stroke-linejoin="round"/>
<path d="M14 14.0001V12.6668C13.9966 12.0782 13.7986 11.5073 13.4368 11.043C13.0751 10.5788 12.5699 10.2472 12 10.1001" stroke="#292A43" stroke-width="1.3" stroke-linecap="round" stroke-linejoin="round"/>
<path d="M14.6719 2C15.2455 2.14687 15.7539 2.48047 16.117 2.94821C16.48 3.41595 16.6771 3.99122 16.6771 4.58333C16.6771 5.17545 16.48 5.75072 16.117 6.21846C15.7539 6.6862 15.2455 7.0198 14.6719 7.16667" stroke="#292A43" stroke-width="1.3" stroke-linecap="round" stroke-linejoin="round"/>
<path d="M18 14.0001V12.6668C17.9966 12.0782 17.7986 11.5073 17.4368 11.043C17.0751 10.5788 16.5699 10.2472 16 10.1001" stroke="#292A43" stroke-width="1.3" stroke-linecap="round" stroke-linejoin="round"/>
</svg>
