<svg width="40" height="40" viewBox="0 0 40 40" fill="none" xmlns="http://www.w3.org/2000/svg">
<path d="M10 35V31.6667C10 29.8986 10.7024 28.2029 11.9526 26.9526C13.2029 25.7024 14.8986 25 16.6667 25H23.3333C25.1014 25 26.7971 25.7024 28.0474 26.9526C29.2976 28.2029 30 29.8986 30 31.6667V35M26.6667 11.6667C26.6667 15.3486 23.6819 18.3333 20 18.3333C16.3181 18.3333 13.3333 15.3486 13.3333 11.6667C13.3333 7.98477 16.3181 5 20 5C23.6819 5 26.6667 7.98477 26.6667 11.6667Z" stroke="white" stroke-width="2.8" stroke-linecap="round" stroke-linejoin="round"/>
<path d="M31.3789 11.7242C32.3193 11.965 33.1528 12.5119 33.748 13.2787C34.3432 14.0456 34.6663 14.9887 34.6663 15.9594C34.6663 16.9301 34.3432 17.8732 33.748 18.64C33.1528 19.4068 32.3193 19.9537 31.3789 20.1945M36.8436 31.255V29.0691C36.838 28.1043 36.5134 27.1683 35.9203 26.4072C35.3273 25.6461 34.499 25.1025 33.5648 24.8613" stroke="white" stroke-width="2.8" stroke-linecap="round" stroke-linejoin="round"/>
<path d="M8.62109 11.7242C7.68072 11.965 6.84722 12.5119 6.252 13.2787C5.65679 14.0456 5.33371 14.9887 5.33371 15.9594C5.33371 16.9301 5.65679 17.8732 6.252 18.64C6.84722 19.4068 7.68072 19.9537 8.62109 20.1945M3.15641 31.255V29.0691C3.16196 28.1043 3.48657 27.1683 4.07965 26.4072C4.67273 25.6461 5.50095 25.1025 6.43522 24.8613" stroke="white" stroke-width="2.8" stroke-linecap="round" stroke-linejoin="round"/>
</svg>
