<svg width="16" height="16" viewBox="0 0 16 16" fill="none" xmlns="http://www.w3.org/2000/svg">
<path d="M4.5332 8.70008V3.45008C4.5332 3.17161 4.65788 2.90454 4.8798 2.70762C5.10172 2.51071 5.40271 2.40009 5.71655 2.40009C6.03039 2.40009 6.33138 2.51071 6.5533 2.70762C6.77522 2.90454 6.89989 3.17161 6.89989 3.45008V8.00008" stroke="#292A43" stroke-width="1.3" stroke-linecap="round" stroke-linejoin="round"/>
<path d="M6.8999 3.45V2.05C6.8999 1.91211 6.93051 1.77557 6.98998 1.64818C7.04945 1.52079 7.13661 1.40504 7.2465 1.30754C7.35638 1.21004 7.48683 1.13269 7.6304 1.07993C7.77397 1.02716 7.92785 1 8.08325 1C8.23865 1 8.39252 1.02716 8.5361 1.07993C8.67967 1.13269 8.81012 1.21004 8.92 1.30754C9.02988 1.40504 9.11705 1.52079 9.17652 1.64818C9.23599 1.77557 9.26659 1.91211 9.26659 2.05V7.99999" stroke="#292A43" stroke-width="1.3" stroke-linecap="round" stroke-linejoin="round"/>
<path d="M9.26685 3.45008C9.26685 3.17161 9.39152 2.90454 9.61344 2.70762C9.83536 2.51071 10.1363 2.40009 10.4502 2.40009C10.764 2.40009 11.065 2.51071 11.2869 2.70762C11.5089 2.90454 11.6335 3.17161 11.6335 3.45008V8.00008" stroke="#292A43" stroke-width="1.3" stroke-linecap="round" stroke-linejoin="round"/>
<path d="M11.6333 4.84999C11.6333 4.57151 11.758 4.30444 11.9799 4.10753C12.2018 3.91061 12.5028 3.79999 12.8167 3.79999C13.1305 3.79999 13.4315 3.91061 13.6534 4.10753C13.8753 4.30444 14 4.57151 14 4.84999V10.8C14 11.9139 13.5013 12.9822 12.6136 13.7698C11.7259 14.5575 10.522 15 9.26662 15H7.68882H7.85291C7.06901 15.0001 6.29735 14.8275 5.60722 14.4976C4.9171 14.1677 4.3301 13.6909 3.89896 13.11C3.84722 13.0401 3.79567 12.9701 3.74434 12.9C3.4982 12.5647 2.63436 11.2284 1.15202 8.89038C1.00091 8.65205 0.960541 8.37082 1.03951 8.10649C1.11848 7.84216 1.31055 7.61559 1.57487 7.47498C1.85641 7.32509 2.18632 7.26296 2.5122 7.29847C2.83809 7.33399 3.14126 7.4651 3.37355 7.67098L4.53323 8.69998" stroke="#292A43" stroke-width="1.3" stroke-linecap="round" stroke-linejoin="round"/>
</svg>
