<svg width="16" height="16" viewBox="0 0 16 16" fill="none" xmlns="http://www.w3.org/2000/svg">
<path d="M8 15C11.866 15 15 11.866 15 8C15 4.13401 11.866 1 8 1C4.13401 1 1 4.13401 1 8C1 11.866 4.13401 15 8 15Z" stroke="#292A43" stroke-width="1.3" stroke-linecap="round" stroke-linejoin="round"/>
<path d="M8 11.3333V11.34" stroke="#292A43" stroke-width="2" stroke-linecap="round" stroke-linejoin="round"/>
<path d="M8.00008 9.00003C7.98781 8.78361 8.04619 8.56906 8.16643 8.3887C8.28667 8.20834 8.46226 8.07194 8.66675 8.00003C8.91733 7.9042 9.14225 7.75152 9.32379 7.554C9.50534 7.35648 9.63856 7.11951 9.71296 6.86175C9.78737 6.604 9.80092 6.33249 9.75257 6.06861C9.70421 5.80472 9.59526 5.55566 9.43429 5.34104C9.27332 5.12642 9.06473 4.95209 8.82494 4.83177C8.58515 4.71146 8.32071 4.64846 8.05243 4.64771C7.78415 4.64697 7.51936 4.70851 7.27891 4.82749C7.03846 4.94647 6.8289 5.11963 6.66675 5.33336" stroke="#292A43" stroke-width="1.3" stroke-linecap="round" stroke-linejoin="round"/>
</svg>
