<svg width="16" height="16" viewBox="0 0 16 16" fill="none" xmlns="http://www.w3.org/2000/svg">
<path fill-rule="evenodd" clip-rule="evenodd" d="M7.5405 1.54039C7.79434 1.28655 8.2059 1.28655 8.45974 1.54039L14.4597 7.54039C14.6456 7.72629 14.7012 8.00586 14.6006 8.24875C14.5 8.49164 14.263 8.65001 14.0001 8.65001H13.3167V12.6667C13.3167 13.1927 13.1077 13.6972 12.7358 14.0691C12.3638 14.441 11.8594 14.65 11.3333 14.65H4.66668C4.14067 14.65 3.6362 14.441 3.26425 14.0691C2.89231 13.6972 2.68335 13.1927 2.68335 12.6667V8.65001H2.00012C1.73722 8.65001 1.5002 8.49164 1.39959 8.24875C1.29899 8.00586 1.3546 7.72629 1.5405 7.54039L7.5405 1.54039ZM8.00012 2.91924L12.4633 7.38245C12.2039 7.46782 12.0167 7.71204 12.0167 8.00001V12.6667C12.0167 12.8479 11.9447 13.0217 11.8165 13.1499C11.6884 13.278 11.5146 13.35 11.3333 13.35H10.6501V10C10.6501 9.47398 10.4411 8.96951 10.0692 8.59757C9.69725 8.22562 9.19278 8.01666 8.66676 8.01666H7.33343C6.80742 8.01666 6.30295 8.22562 5.931 8.59757C5.55906 8.96951 5.3501 9.47398 5.3501 10V13.35H4.66668C4.48545 13.35 4.31164 13.278 4.18349 13.1499C4.05534 13.0217 3.98335 12.8479 3.98335 12.6667V8.01155L3.98345 8.00001C3.98345 7.71207 3.79623 7.46786 3.53689 7.38248L8.00012 2.91924ZM6.6501 13.35H9.3501V10C9.3501 9.81877 9.2781 9.64496 9.14995 9.51681C9.0218 9.38866 8.84799 9.31666 8.66676 9.31666H7.33343C7.1522 9.31666 6.97839 9.38866 6.85024 9.51681C6.72209 9.64496 6.6501 9.81877 6.6501 10V13.35Z" fill="#292A43"/>
</svg>
