<svg width="16" height="16" viewBox="0 0 16 16" fill="none" xmlns="http://www.w3.org/2000/svg">
<path d="M2.55556 8H1L8 1L15 8H13.4444" stroke="#292A43" stroke-width="1.3" stroke-linecap="round" stroke-linejoin="round"/>
<path d="M3 8V13.4444C3 13.857 3.15051 14.2527 3.41842 14.5444C3.68633 14.8361 4.04969 15 4.42857 15H11.5714C11.9503 15 12.3137 14.8361 12.5816 14.5444C12.8495 14.2527 13 13.857 13 13.4444V8" stroke="#292A43" stroke-width="1.3" stroke-linecap="round" stroke-linejoin="round"/>
<path d="M6 15V10.5C6 10.1022 6.14048 9.72064 6.39052 9.43934C6.64057 9.15804 6.97971 9 7.33333 9H8.66667C9.02029 9 9.35943 9.15804 9.60948 9.43934C9.85952 9.72064 10 10.1022 10 10.5V15" stroke="#292A43" stroke-width="1.3" stroke-linecap="round" stroke-linejoin="round"/>
</svg>
