<svg width="20" height="20" viewBox="0 0 20 20" fill="none" xmlns="http://www.w3.org/2000/svg">
<rect width="20" height="20" rx="10" fill="#FF8A00"/>
<path fill-rule="evenodd" clip-rule="evenodd" d="M7.6755 7.39381C7.62468 7.52268 7.52268 7.62468 7.39381 7.6755L2.67935 9.53486C2.25728 9.70132 2.25727 10.2987 2.67935 10.4651L7.39381 12.3245C7.52268 12.3753 7.62468 12.4773 7.6755 12.6062L9.53486 17.3206C9.70132 17.7427 10.2987 17.7427 10.4651 17.3206L12.3245 12.6062C12.3753 12.4773 12.4773 12.3753 12.6062 12.3245L17.3206 10.4651C17.7427 10.2987 17.7427 9.70132 17.3206 9.53486L12.6062 7.6755C12.4773 7.62468 12.3753 7.52268 12.3245 7.39381L10.4651 2.67935C10.2987 2.25728 9.70132 2.25727 9.53486 2.67935L7.6755 7.39381ZM9.99999 5.04328L8.88484 7.87077C8.70188 8.33467 8.33467 8.70188 7.87077 8.88484L5.04328 9.99999L7.87077 11.1151C8.33467 11.2981 8.70188 11.6653 8.88484 12.1292L9.99999 14.9567L11.1151 12.1292C11.2981 11.6653 11.6653 11.2981 12.1292 11.1151L14.9567 9.99999L12.1292 8.88484C11.6653 8.70188 11.2981 8.33467 11.1151 7.87077L9.99999 5.04328Z" fill="white"/>
</svg>
