<svg width="16" height="16" viewBox="0 0 16 16" fill="none" xmlns="http://www.w3.org/2000/svg">
<path fill-rule="evenodd" clip-rule="evenodd" d="M5.67552 5.39383C5.62469 5.52269 5.52269 5.62469 5.39383 5.67552L0.679364 7.53487C0.257291 7.70134 0.257289 8.29867 0.679362 8.46514L5.39383 10.3245C5.52269 10.3753 5.62469 10.4773 5.67552 10.6062L7.53487 15.3206C7.70134 15.7427 8.29868 15.7427 8.46514 15.3206L10.3245 10.6062C10.3753 10.4773 10.4773 10.3753 10.6062 10.3245L15.3206 8.46514C15.7427 8.29867 15.7427 7.70134 15.3206 7.53487L10.6062 5.67552C10.4773 5.62469 10.3753 5.52269 10.3245 5.39383L8.46514 0.679364C8.29867 0.257291 7.70134 0.257289 7.53487 0.679362L5.67552 5.39383ZM8.00001 3.04329L6.88486 5.87079C6.7019 6.33469 6.33469 6.7019 5.87079 6.88486L3.04329 8.00001L5.87079 9.11515C6.33469 9.29811 6.7019 9.66533 6.88486 10.1292L8.00001 12.9567L9.11515 10.1292C9.29811 9.66532 9.66533 9.29811 10.1292 9.11515L12.9567 8.00001L10.1292 6.88486C9.66532 6.7019 9.29811 6.33469 9.11515 5.87079L8.00001 3.04329Z" fill="#FF8A00"/>
</svg>
