<svg width="16" height="16" viewBox="0 0 16 16" fill="none" xmlns="http://www.w3.org/2000/svg">
<path fill-rule="evenodd" clip-rule="evenodd" d="M1.3501 3.99998C1.3501 2.53642 2.53654 1.34998 4.0001 1.34998H12.0001C13.4637 1.34998 14.6501 2.53642 14.6501 3.99998V12C14.6501 13.4635 13.4637 14.65 12.0001 14.65H4.0001C2.53654 14.65 1.3501 13.4635 1.3501 12V3.99998ZM4.0001 2.64998C3.25451 2.64998 2.6501 3.25439 2.6501 3.99998V12C2.6501 12.7456 3.25451 13.35 4.0001 13.35H12.0001C12.7457 13.35 13.3501 12.7456 13.3501 12V3.99998C13.3501 3.25439 12.7457 2.64998 12.0001 2.64998H4.0001Z" fill="#292A43"/>
<path fill-rule="evenodd" clip-rule="evenodd" d="M6.45876 7.68726C5.94535 7.22519 5.16597 7.22519 4.65256 7.68726L2.43493 9.68313C2.1681 9.92327 1.75711 9.90164 1.51696 9.63481C1.27681 9.36798 1.29844 8.95699 1.56528 8.71684L3.7829 6.72098C4.79071 5.81395 6.32061 5.81395 7.32841 6.72098L10.4349 9.51684C10.7018 9.75699 10.7234 10.168 10.4832 10.4348C10.2431 10.7016 9.83211 10.7233 9.56528 10.4831L6.45876 7.68726Z" fill="#292A43"/>
<path fill-rule="evenodd" clip-rule="evenodd" d="M12.9547 9.87381C12.4275 9.3466 11.5727 9.3466 11.0455 9.87381L10.4597 10.4596C10.2059 10.7134 9.79432 10.7134 9.54048 10.4596C9.28664 10.2058 9.28664 9.7942 9.54048 9.54036L10.1263 8.95457C11.1612 7.91968 12.839 7.91968 13.8739 8.95457L14.4597 9.54036C14.7136 9.7942 14.7136 10.2058 14.4597 10.4596C14.2059 10.7134 13.7943 10.7134 13.5405 10.4596L12.9547 9.87381Z" fill="#292A43"/>
<path d="M11.5 4.75C11.5 5.16421 11.1642 5.5 10.75 5.5C10.3358 5.5 10 5.16421 10 4.75C10 4.33579 10.3358 4 10.75 4C11.1642 4 11.5 4.33579 11.5 4.75Z" fill="#292A43"/>
</svg>
