<svg width="16" height="16" viewBox="0 0 16 16" fill="none" xmlns="http://www.w3.org/2000/svg">
<path fill-rule="evenodd" clip-rule="evenodd" d="M8.0001 1.64998C4.49309 1.64998 1.6501 4.49297 1.6501 7.99998C1.6501 11.507 4.49309 14.35 8.0001 14.35C11.5071 14.35 14.3501 11.507 14.3501 7.99998C14.3501 4.49297 11.5071 1.64998 8.0001 1.64998ZM0.350098 7.99998C0.350098 3.775 3.77512 0.349976 8.0001 0.349976C12.2251 0.349976 15.6501 3.775 15.6501 7.99998C15.6501 12.225 12.2251 15.65 8.0001 15.65C3.77512 15.65 0.350098 12.225 0.350098 7.99998Z" fill="#292A43"/>
<path fill-rule="evenodd" clip-rule="evenodd" d="M7.1001 5.33323C7.1001 4.83617 7.50304 4.43323 8.0001 4.43323H8.00761C8.50467 4.43323 8.90761 4.83617 8.90761 5.33323C8.90761 5.83028 8.50467 6.23323 8.00761 6.23323H8.0001C7.50304 6.23323 7.1001 5.83028 7.1001 5.33323Z" fill="#292A43"/>
<path fill-rule="evenodd" clip-rule="evenodd" d="M6.68359 7.99998C6.68359 7.64099 6.97461 7.34998 7.33359 7.34998H8.00026C8.35925 7.34998 8.65026 7.64099 8.65026 7.99998V10.0166H8.66693C9.02591 10.0166 9.31693 10.3077 9.31693 10.6666C9.31693 11.0256 9.02591 11.3166 8.66693 11.3166H8.00026C7.64128 11.3166 7.35026 11.0256 7.35026 10.6666V8.64998H7.33359C6.97461 8.64998 6.68359 8.35896 6.68359 7.99998Z" fill="#292A43"/>
</svg>
