<svg width="16" height="16" viewBox="0 0 16 16" fill="none" xmlns="http://www.w3.org/2000/svg">
<path d="M6.00008 2.66669H3.33341C2.96522 2.66669 2.66675 2.96516 2.66675 3.33335V6.00002C2.66675 6.36821 2.96522 6.66669 3.33341 6.66669H6.00008C6.36827 6.66669 6.66675 6.36821 6.66675 6.00002V3.33335C6.66675 2.96516 6.36827 2.66669 6.00008 2.66669Z" stroke="#292A43" stroke-width="1.3" stroke-linecap="round" stroke-linejoin="round"/>
<path d="M12.6666 2.66669H9.99992C9.63173 2.66669 9.33325 2.96516 9.33325 3.33335V6.00002C9.33325 6.36821 9.63173 6.66669 9.99992 6.66669H12.6666C13.0348 6.66669 13.3333 6.36821 13.3333 6.00002V3.33335C13.3333 2.96516 13.0348 2.66669 12.6666 2.66669Z" stroke="#292A43" stroke-width="1.3" stroke-linecap="round" stroke-linejoin="round"/>
<path d="M6.00008 9.33331H3.33341C2.96522 9.33331 2.66675 9.63179 2.66675 9.99998V12.6666C2.66675 13.0348 2.96522 13.3333 3.33341 13.3333H6.00008C6.36827 13.3333 6.66675 13.0348 6.66675 12.6666V9.99998C6.66675 9.63179 6.36827 9.33331 6.00008 9.33331Z" stroke="#292A43" stroke-width="1.3" stroke-linecap="round" stroke-linejoin="round"/>
<path d="M12.6666 9.33331H9.99992C9.63173 9.33331 9.33325 9.63179 9.33325 9.99998V12.6666C9.33325 13.0348 9.63173 13.3333 9.99992 13.3333H12.6666C13.0348 13.3333 13.3333 13.0348 13.3333 12.6666V9.99998C13.3333 9.63179 13.0348 9.33331 12.6666 9.33331Z" stroke="#292A43" stroke-width="1.3" stroke-linecap="round" stroke-linejoin="round"/>
</svg>
