<svg width="16" height="16" viewBox="0 0 16 16" fill="none" xmlns="http://www.w3.org/2000/svg">
<path d="M6.66675 9.33336C6.884 9.55509 7.14331 9.73125 7.4295 9.8515C7.71568 9.97176 8.02299 10.0337 8.33341 10.0337C8.64384 10.0337 8.95114 9.97176 9.23733 9.8515C9.52352 9.73125 9.78283 9.55509 10.0001 9.33336L12.6667 6.66669C13.1088 6.22467 13.3571 5.62515 13.3571 5.00003C13.3571 4.37491 13.1088 3.77539 12.6667 3.33336C12.2247 2.89133 11.6252 2.64301 11.0001 2.64301C10.375 2.64301 9.77544 2.89133 9.33341 3.33336L9.00008 3.66669" stroke="#292A43" stroke-width="1.3" stroke-linecap="round" stroke-linejoin="round"/>
<path d="M9.33342 6.66665C9.11617 6.44492 8.85686 6.26876 8.57067 6.14851C8.28449 6.02825 7.97718 5.96631 7.66676 5.96631C7.35633 5.96631 7.04903 6.02825 6.76284 6.14851C6.47665 6.26876 6.21734 6.44492 6.00009 6.66665L3.33342 9.33332C2.89139 9.77534 2.64307 10.3749 2.64307 11C2.64307 11.6251 2.89139 12.2246 3.33342 12.6666C3.77545 13.1087 4.37497 13.357 5.00009 13.357C5.62521 13.357 6.22473 13.1087 6.66676 12.6666L7.00009 12.3333" stroke="#292A43" stroke-width="1.3" stroke-linecap="round" stroke-linejoin="round"/>
</svg>
