<svg width="16" height="16" viewBox="0 0 16 16" fill="none" xmlns="http://www.w3.org/2000/svg">
<path d="M4.36353 4H13.4544" stroke="#292A43" stroke-width="1.3" stroke-linecap="round" stroke-linejoin="round"/>
<path d="M4.36353 8H13.4544" stroke="#292A43" stroke-width="1.3" stroke-linecap="round" stroke-linejoin="round"/>
<path d="M4.36353 12H13.4544" stroke="#292A43" stroke-width="1.3" stroke-linecap="round" stroke-linejoin="round"/>
<g clip-path="url(#clip0_2535_433356)">
<path d="M1.73332 5.06668V2.93335L1.06665 3.60002" stroke="#292A43" stroke-width="0.8" stroke-linecap="round" stroke-linejoin="round"/>
</g>
<g clip-path="url(#clip1_2535_433356)">
<path d="M1.06665 7.46668C1.06665 7.32523 1.12284 7.18958 1.22286 7.08956C1.32288 6.98954 1.45853 6.93335 1.59998 6.93335C1.74143 6.93335 1.87709 6.98954 1.97711 7.08956C2.07713 7.18958 2.13332 7.32523 2.13332 7.46668C2.13332 7.61308 2.05812 7.73668 1.97878 7.84202L1.06665 9.06668H2.13332" stroke="#292A43" stroke-width="0.8" stroke-linecap="round" stroke-linejoin="round"/>
</g>
<g clip-path="url(#clip2_2535_433356)">
<path d="M1.59998 12C1.70547 12 1.80858 11.9687 1.89629 11.9101C1.98399 11.8515 2.05235 11.7682 2.09272 11.6708C2.13309 11.5733 2.14365 11.4661 2.12307 11.3626C2.10249 11.2592 2.0517 11.1641 1.97711 11.0896C1.90252 11.015 1.80749 10.9642 1.70403 10.9436C1.60058 10.923 1.49334 10.9336 1.39589 10.9739C1.29843 11.0143 1.21514 11.0827 1.15653 11.1704C1.09793 11.2581 1.06665 11.3612 1.06665 11.4667" stroke="#292A43" stroke-width="0.8" stroke-linecap="round" stroke-linejoin="round"/>
<path d="M1.06665 12.5333C1.06665 12.6388 1.09793 12.7419 1.15653 12.8296C1.21514 12.9173 1.29843 12.9857 1.39589 13.0261C1.49334 13.0664 1.60058 13.077 1.70403 13.0564C1.80749 13.0358 1.90252 12.985 1.97711 12.9105C2.0517 12.8359 2.10249 12.7408 2.12307 12.6374C2.14365 12.5339 2.13309 12.4267 2.09272 12.3292C2.05235 12.2318 1.98399 12.1485 1.89629 12.0899C1.80858 12.0313 1.70547 12 1.59998 12" stroke="#292A43" stroke-width="0.8" stroke-linecap="round" stroke-linejoin="round"/>
</g>
<defs>
<clipPath id="clip0_2535_433356">
<rect width="3.2" height="3.2" fill="white" transform="translate(0 2.40002)"/>
</clipPath>
<clipPath id="clip1_2535_433356">
<rect width="3.2" height="3.2" fill="white" transform="translate(0 6.40002)"/>
</clipPath>
<clipPath id="clip2_2535_433356">
<rect width="3.2" height="3.2" fill="white" transform="translate(0 10.4)"/>
</clipPath>
</defs>
</svg>
