<svg width="16" height="16" viewBox="0 0 16 16" fill="none" xmlns="http://www.w3.org/2000/svg">
<path d="M12 5.32617C12.5304 5.32617 13.0391 5.53689 13.4142 5.91196C13.7893 6.28703 14 6.79574 14 7.32617C14 7.8566 13.7893 8.36531 13.4142 8.74039C13.0391 9.11546 12.5304 9.32617 12 9.32617" stroke="#292A43" stroke-width="1.3" stroke-linecap="round" stroke-linejoin="round"/>
<path d="M6.66699 5.32617V12.6595C6.66699 12.8363 6.59675 13.0059 6.47173 13.1309C6.34671 13.2559 6.17714 13.3262 6.00033 13.3262H5.33366C5.15685 13.3262 4.98728 13.2559 4.86225 13.1309C4.73723 13.0059 4.66699 12.8363 4.66699 12.6595V9.32617" stroke="#292A43" stroke-width="1.3" stroke-linecap="round" stroke-linejoin="round"/>
<path d="M8 5.32614L11.016 2.8128C11.1036 2.73981 11.2103 2.6933 11.3234 2.67874C11.4365 2.66418 11.5514 2.68216 11.6547 2.73057C11.758 2.77899 11.8453 2.85583 11.9065 2.9521C11.9676 3.04837 12.0001 3.16008 12 3.27414V11.3781C12.0001 11.4922 11.9676 11.6039 11.9065 11.7002C11.8453 11.7964 11.758 11.8733 11.6547 11.9217C11.5514 11.9701 11.4365 11.9881 11.3234 11.9735C11.2103 11.959 11.1036 11.9125 11.016 11.8395L8 9.32614H2.66667C2.48986 9.32614 2.32029 9.2559 2.19526 9.13087C2.07024 9.00585 2 8.83628 2 8.65947V5.9928C2 5.81599 2.07024 5.64642 2.19526 5.5214C2.32029 5.39637 2.48986 5.32614 2.66667 5.32614H8" stroke="#292A43" stroke-width="1.3" stroke-linecap="round" stroke-linejoin="round"/>
</svg>
