<svg width="20" height="20" viewBox="0 0 20 20" fill="none" xmlns="http://www.w3.org/2000/svg">
<path fill-rule="evenodd" clip-rule="evenodd" d="M4.99989 3.98359C4.4384 3.98359 3.98323 4.43877 3.98323 5.00026V9.35043H9.34998V3.98359H4.99989ZM9.99998 2.68359H4.99989C3.72043 2.68359 2.68323 3.7208 2.68323 5.00026V10.0004V15.0003C2.68323 16.2797 3.72043 17.3169 4.99989 17.3169H9.99998H14.9999C16.2794 17.3169 17.3166 16.2797 17.3166 15.0003V10.0004V5.00026C17.3166 3.7208 16.2794 2.68359 14.9999 2.68359H9.99998ZM10.65 3.98359V9.35043H16.0166V5.00026C16.0166 4.43877 15.5614 3.98359 14.9999 3.98359H10.65ZM9.34998 10.6504H3.98323V15.0003C3.98323 15.5618 4.4384 16.0169 4.99989 16.0169H9.34998V10.6504ZM10.65 16.0169V10.6504H16.0166V15.0003C16.0166 15.5618 15.5614 16.0169 14.9999 16.0169H10.65Z" fill="white"/>
</svg>
