<svg width="37" height="37" viewBox="0 0 37 37" fill="none" xmlns="http://www.w3.org/2000/svg">
<path fill-rule="evenodd" clip-rule="evenodd" d="M7.03743 0C3.15077 0 0 3.15076 0 7.03743V29.3582C0 33.2448 3.15076 36.3956 7.03743 36.3956H29.3582C33.2448 36.3956 36.3956 33.2448 36.3956 29.3582V7.03743C36.3956 3.15077 33.2448 0 29.3582 0H7.03743ZM21.7977 4.51112H20.1023C18.8868 4.51112 17.9698 5.02293 17.3514 6.04656L15.8159 8.50966C15.6027 8.85087 15.592 9.19208 15.7839 9.53329C15.9759 9.8745 16.2744 10.0451 16.6796 10.0451H16.9035C18.1191 10.0451 19.1214 9.59726 19.9104 8.70159L22.4055 5.85463C22.6401 5.59872 22.6827 5.31083 22.5335 4.99094C22.4055 4.67106 22.1603 4.51112 21.7977 4.51112ZM8.61854 27.1269C9.81277 28.5344 11.3269 29.2381 13.1609 29.2381C14.3764 29.2381 15.4214 28.8756 16.2957 28.1505C17.1914 27.4041 17.8099 26.3591 18.1511 25.0156C18.1511 24.9943 18.1617 24.9836 18.1831 24.9836C18.2044 24.9836 18.215 24.9943 18.215 25.0156C18.5562 26.3591 19.164 27.4041 20.0384 28.1505C20.934 28.8756 21.9897 29.2381 23.2052 29.2381C25.0392 29.2381 26.5533 28.5344 27.7476 27.1269C28.9418 25.6981 29.5389 23.7361 29.5389 21.241C29.5389 18.7459 29.0591 16.3148 28.0994 13.9477C27.8862 13.4359 27.5343 13.0307 27.0438 12.7321C26.5747 12.4336 26.0522 12.2843 25.4764 12.2843H24.9646C24.5594 12.2843 24.2395 12.4655 24.0049 12.8281C23.7917 13.1693 23.7703 13.5212 23.9409 13.8837C24.9646 16.2082 25.4764 18.554 25.4764 20.9211C25.4764 22.5419 25.2098 23.7894 24.6767 24.6638C24.1435 25.5168 23.4718 25.9433 22.6614 25.9433C21.8937 25.9433 21.2753 25.4421 20.8061 24.4398C20.3369 23.4375 20.1023 21.8914 20.1023 19.8015V16.0269C20.1023 15.5364 19.9211 15.1099 19.5585 14.7474C19.196 14.3849 18.7695 14.2036 18.279 14.2036H18.0871C17.5966 14.2036 17.1701 14.3849 16.8076 14.7474C16.445 15.1099 16.2638 15.5364 16.2638 16.0269V19.8015C16.2638 21.8914 16.0292 23.4375 15.56 24.4398C15.0908 25.4421 14.4724 25.9433 13.7047 25.9433C12.8943 25.9433 12.2226 25.5168 11.6894 24.6638C11.1563 23.7894 10.8897 22.5419 10.8897 20.9211C10.8897 18.554 11.4015 16.2082 12.4252 13.8837C12.5958 13.5212 12.5638 13.1693 12.3292 12.8281C12.1159 12.4655 11.8067 12.2843 11.4015 12.2843H10.8897C10.3139 12.2843 9.78078 12.4336 9.29029 12.7321C8.82113 13.0307 8.47992 13.4359 8.26667 13.9477C7.30702 16.3148 6.82719 18.7459 6.82719 21.241C6.82719 23.7361 7.42431 25.6981 8.61854 27.1269Z" fill="white"/>
</svg>
