<svg width="75" height="19" viewBox="0 0 75 19" fill="none" xmlns="http://www.w3.org/2000/svg">
<path d="M0.988792 5.33495V18.1978H3.10358V10.1865C3.10358 9.93772 3.16163 9.63087 3.27773 9.26596C3.41043 8.88447 3.60947 8.51957 3.87485 8.17125C4.15682 7.82293 4.51343 7.52438 4.94468 7.27558C5.39252 7.02678 5.92329 6.90238 6.53699 6.90238C7.018 6.90238 7.40778 6.97702 7.70634 7.1263C8.02149 7.25899 8.27028 7.45803 8.45274 7.72341C8.63519 7.97221 8.75959 8.27077 8.82593 8.61909C8.90886 8.96741 8.95033 9.3489 8.95033 9.76356V18.1978H11.0651V10.1865C11.0651 9.19132 11.3637 8.39517 11.9608 7.79805C12.5579 7.20094 13.3789 6.90238 14.4239 6.90238C14.9381 6.90238 15.3527 6.97702 15.6679 7.1263C15.9996 7.27558 16.2567 7.48291 16.4392 7.74829C16.6216 7.99709 16.746 8.29565 16.8124 8.64397C16.8787 8.99229 16.9119 9.36548 16.9119 9.76356V18.1978H19.0267V8.76837C19.0267 8.10491 18.9188 7.54096 18.7032 7.07654C18.5042 6.59553 18.2139 6.20575 17.8324 5.90719C17.4675 5.60863 17.0197 5.39301 16.4889 5.26031C15.9747 5.11103 15.3942 5.0364 14.7473 5.0364C13.9014 5.0364 13.1218 5.22714 12.4086 5.60863C11.712 5.99012 11.148 6.52918 10.7168 7.22582C10.4514 6.42967 9.99528 5.86572 9.34841 5.53399C8.70153 5.20226 7.98002 5.0364 7.18386 5.0364C5.37593 5.0364 3.99096 5.7662 3.02894 7.22582H2.97918V5.33495H0.988792ZM31.1317 10.5348H23.7423C23.7755 10.0372 23.8833 9.57281 24.0658 9.14156C24.2482 8.69373 24.497 8.30394 24.8122 7.97221C25.1273 7.64048 25.5005 7.38339 25.9318 7.20094C26.3796 7.0019 26.8772 6.90238 27.4246 6.90238C27.9553 6.90238 28.4363 7.0019 28.8676 7.20094C29.3154 7.38339 29.6969 7.64048 30.0121 7.97221C30.3438 8.28736 30.6009 8.66885 30.7833 9.11668C30.9824 9.56452 31.0985 10.0372 31.1317 10.5348ZM33.1718 14.1175H31.0819C30.8994 14.9634 30.518 15.5937 29.9374 16.0084C29.3735 16.4231 28.6437 16.6304 27.748 16.6304C27.0514 16.6304 26.446 16.5143 25.9318 16.2821C25.4176 16.0499 24.9946 15.743 24.6629 15.3615C24.3312 14.9634 24.0907 14.5156 23.9414 14.018C23.7921 13.5038 23.7258 12.9648 23.7423 12.4008H33.3708C33.404 11.6213 33.3294 10.8002 33.1469 9.93772C32.9811 9.07522 32.6659 8.27906 32.2015 7.54926C31.7536 6.81945 31.1482 6.22233 30.3853 5.75791C29.6389 5.2769 28.6934 5.0364 27.549 5.0364C26.6699 5.0364 25.8571 5.20226 25.1107 5.53399C24.3809 5.86572 23.7423 6.33015 23.195 6.92726C22.6642 7.52438 22.2496 8.2293 21.951 9.04204C21.6524 9.85479 21.5032 10.7505 21.5032 11.7291C21.5363 12.7077 21.6773 13.6116 21.9261 14.441C22.1915 15.2703 22.5813 15.9835 23.0955 16.5806C23.6097 17.1777 24.2399 17.6422 24.9863 17.9739C25.7493 18.3056 26.645 18.4715 27.6734 18.4715C29.133 18.4715 30.3438 18.1066 31.3058 17.3768C32.2678 16.647 32.8898 15.5606 33.1718 14.1175ZM35.6874 0.433631V18.1978H37.8022V0.433631H35.6874ZM50.0102 10.5348H42.6209C42.654 10.0372 42.7619 9.57281 42.9443 9.14156C43.1268 8.69373 43.3756 8.30394 43.6907 7.97221C44.0059 7.64048 44.379 7.38339 44.8103 7.20094C45.2581 7.0019 45.7557 6.90238 46.3031 6.90238C46.8339 6.90238 47.3149 7.0019 47.7461 7.20094C48.194 7.38339 48.5754 7.64048 48.8906 7.97221C49.2223 8.28736 49.4794 8.66885 49.6619 9.11668C49.8609 9.56452 49.977 10.0372 50.0102 10.5348ZM52.0503 14.1175H49.9604C49.778 14.9634 49.3965 15.5937 48.8159 16.0084C48.252 16.4231 47.5222 16.6304 46.6265 16.6304C45.9299 16.6304 45.3245 16.5143 44.8103 16.2821C44.2961 16.0499 43.8732 15.743 43.5414 15.3615C43.2097 14.9634 42.9692 14.5156 42.8199 14.018C42.6706 13.5038 42.6043 12.9648 42.6209 12.4008H52.2494C52.2825 11.6213 52.2079 10.8002 52.0254 9.93772C51.8596 9.07522 51.5444 8.27906 51.08 7.54926C50.6322 6.81945 50.0268 6.22233 49.2638 5.75791C48.5174 5.2769 47.572 5.0364 46.4275 5.0364C45.5484 5.0364 44.7357 5.20226 43.9893 5.53399C43.2595 5.86572 42.6209 6.33015 42.0735 6.92726C41.5428 7.52438 41.1281 8.2293 40.8295 9.04204C40.531 9.85479 40.3817 10.7505 40.3817 11.7291C40.4149 12.7077 40.5559 13.6116 40.8046 14.441C41.07 15.2703 41.4598 15.9835 41.974 16.5806C42.4882 17.1777 43.1185 17.6422 43.8649 17.9739C44.6278 18.3056 45.5235 18.4715 46.5519 18.4715C48.0115 18.4715 49.2223 18.1066 50.1843 17.3768C51.1464 16.647 51.7684 15.5606 52.0503 14.1175ZM57.3773 5.33495V1.47858H55.2625V5.33495H53.0731V7.20094H55.2625V15.3864C55.2625 15.9835 55.3206 16.4645 55.4367 16.8294C55.5528 17.1943 55.727 17.4763 55.9592 17.6753C56.208 17.8744 56.5231 18.0154 56.9046 18.0983C57.3027 18.1646 57.7754 18.1978 58.3228 18.1978H59.9399V16.3318H58.9696C58.6379 16.3318 58.3642 16.3235 58.1486 16.3069C57.9496 16.2738 57.792 16.2157 57.6759 16.1328C57.5598 16.0499 57.4768 15.9338 57.4271 15.7845C57.3939 15.6352 57.3773 15.4362 57.3773 15.1874V7.20094H59.9399V5.33495H57.3773ZM63.8319 11.7788C63.8319 10.9993 63.9314 10.3109 64.1304 9.7138C64.3461 9.1001 64.6363 8.58592 65.0012 8.17125C65.3661 7.75659 65.7891 7.44144 66.2701 7.22582C66.7677 7.01019 67.2902 6.90238 67.8375 6.90238C68.3849 6.90238 68.8991 7.01019 69.3801 7.22582C69.8777 7.44144 70.3089 7.75659 70.6738 8.17125C71.0387 8.58592 71.3207 9.1001 71.5197 9.7138C71.7354 10.3109 71.8432 10.9993 71.8432 11.7788C71.8432 12.5584 71.7354 13.255 71.5197 13.8687C71.3207 14.4658 71.0387 14.9717 70.6738 15.3864C70.3089 15.7845 69.8777 16.0913 69.3801 16.3069C68.8991 16.5226 68.3849 16.6304 67.8375 16.6304C67.2902 16.6304 66.7677 16.5226 66.2701 16.3069C65.7891 16.0913 65.3661 15.7845 65.0012 15.3864C64.6363 14.9717 64.3461 14.4658 64.1304 13.8687C63.9314 13.255 63.8319 12.5584 63.8319 11.7788ZM61.5927 11.7788C61.5927 12.7243 61.7254 13.6033 61.9908 14.4161C62.2562 15.2288 62.6542 15.942 63.185 16.5557C63.7158 17.1529 64.3709 17.6256 65.1505 17.9739C65.9301 18.3056 66.8258 18.4715 67.8375 18.4715C68.8659 18.4715 69.7616 18.3056 70.5246 17.9739C71.3041 17.6256 71.9593 17.1529 72.4901 16.5557C73.0208 15.942 73.4189 15.2288 73.6843 14.4161C73.9497 13.6033 74.0824 12.7243 74.0824 11.7788C74.0824 10.8334 73.9497 9.9543 73.6843 9.14156C73.4189 8.31224 73.0208 7.59902 72.4901 7.0019C71.9593 6.3882 71.3041 5.90719 70.5246 5.55887C69.7616 5.21055 68.8659 5.0364 67.8375 5.0364C66.8258 5.0364 65.9301 5.21055 65.1505 5.55887C64.3709 5.90719 63.7158 6.3882 63.185 7.0019C62.6542 7.59902 62.2562 8.31224 61.9908 9.14156C61.7254 9.9543 61.5927 10.8334 61.5927 11.7788Z" fill="white"/>
</svg>
