<svg width="16" height="16" viewBox="0 0 16 16" fill="none" xmlns="http://www.w3.org/2000/svg">
<path fill-rule="evenodd" clip-rule="evenodd" d="M14.3 3.9828C14.6589 3.9828 14.95 3.69179 14.95 3.3328C14.95 2.97382 14.6589 2.6828 14.3 2.6828L1.69995 2.6828C1.34097 2.6828 1.04995 2.97381 1.04995 3.3328C1.04995 3.69178 1.34097 3.9828 1.69995 3.9828L14.3 3.9828ZM14.95 7.99949C14.95 8.35847 14.6589 8.64949 14.3 8.64949L1.69995 8.64949C1.34097 8.64949 1.04995 8.35847 1.04995 7.99949C1.04995 7.6405 1.34097 7.34949 1.69995 7.34949L14.3 7.34949C14.6589 7.34949 14.95 7.6405 14.95 7.99949ZM14.95 12.6661C14.95 13.0251 14.6589 13.3161 14.3 13.3161L1.69995 13.3161C1.34097 13.3161 1.04995 13.0251 1.04995 12.6661C1.04995 12.3071 1.34097 12.0161 1.69995 12.0161L14.3 12.0161C14.6589 12.0161 14.95 12.3071 14.95 12.6661Z" fill="#292A43"/>
</svg>
