<svg width="16" height="16" viewBox="0 0 16 16" fill="none" xmlns="http://www.w3.org/2000/svg">
<path fill-rule="evenodd" clip-rule="evenodd" d="M2.71996 4.36533C2.83133 4.13906 3.0642 3.98335 3.33343 3.98335H12.6668C12.936 3.98335 13.1689 4.13909 13.2803 4.3654L8.00017 7.88547L2.71996 4.36533ZM2.6501 5.88116L7.63961 9.2075C7.85795 9.35306 8.14239 9.35306 8.36072 9.2075L13.3501 5.88125V11.3334C13.3501 11.7107 13.0442 12.0167 12.6668 12.0167H3.33343C2.95604 12.0167 2.6501 11.7107 2.6501 11.3334V5.88116ZM14.6501 4.67952V11.3334C14.6501 12.4287 13.7621 13.3167 12.6668 13.3167H3.33343C2.23807 13.3167 1.3501 12.4287 1.3501 11.3334V4.66668C1.3501 4.66655 1.3501 4.66642 1.3501 4.66629C1.35031 3.57111 2.2382 2.68335 3.33343 2.68335H12.6668C13.7564 2.68335 14.6408 3.56202 14.65 4.64946C14.6503 4.65948 14.6503 4.66951 14.6501 4.67952Z" fill="#292A43"/>
</svg>
