<svg width="28" height="28" viewBox="0 0 28 28" fill="none" xmlns="http://www.w3.org/2000/svg">
    <path fill-rule="evenodd" clip-rule="evenodd" d="M13.8684 3.41499C12.3386 3.41499 11.0985 4.65514 11.0985 6.18495V11.9932C11.0985 13.523 12.3386 14.7632 13.8684 14.7632C15.3982 14.7632 16.6384 13.523 16.6384 11.9932V6.18495C16.6384 4.65514 15.3982 3.41499 13.8684 3.41499ZM9.66846 6.18495C9.66846 3.86537 11.5488 1.98499 13.8684 1.98499C16.188 1.98499 18.0684 3.86537 18.0684 6.18495V11.9932C18.0684 14.3128 16.188 16.1932 13.8684 16.1932C11.5488 16.1932 9.66846 14.3128 9.66846 11.9932V6.18495Z" fill="currentColor"/>
    <path fill-rule="evenodd" clip-rule="evenodd" d="M5.73673 11.2781C6.13161 11.2781 6.45173 11.5983 6.45173 11.9931C6.45173 13.9601 7.23312 15.8466 8.62399 17.2375C10.0149 18.6283 11.9013 19.4097 13.8683 19.4097C15.8353 19.4097 17.7217 18.6283 19.1126 17.2375C20.5035 15.8466 21.2849 13.9601 21.2849 11.9931C21.2849 11.5983 21.605 11.2781 21.9999 11.2781C22.3948 11.2781 22.7149 11.5983 22.7149 11.9931C22.7149 14.3394 21.7828 16.5896 20.1238 18.2486C18.4647 19.9077 16.2146 20.8397 13.8683 20.8397C11.5221 20.8397 9.27189 19.9077 7.61283 18.2486C5.95378 16.5896 5.02173 14.3394 5.02173 11.9931C5.02173 11.5983 5.34184 11.2781 5.73673 11.2781Z" fill="currentColor"/>
    <path fill-rule="evenodd" clip-rule="evenodd" d="M8.50659 24.7714C8.50659 24.3765 8.82671 24.0564 9.22159 24.0564H18.5148C18.9097 24.0564 19.2298 24.3765 19.2298 24.7714C19.2298 25.1663 18.9097 25.4864 18.5148 25.4864H9.22159C8.82671 25.4864 8.50659 25.1663 8.50659 24.7714Z" fill="currentColor"/>
    <path fill-rule="evenodd" clip-rule="evenodd" d="M13.8683 19.4098C14.2632 19.4098 14.5833 19.7299 14.5833 20.1248V24.7714C14.5833 25.1663 14.2632 25.4864 13.8683 25.4864C13.4734 25.4864 13.1533 25.1663 13.1533 24.7714V20.1248C13.1533 19.7299 13.4734 19.4098 13.8683 19.4098Z" fill="currentColor"/>
</svg>
