<svg width="28" height="28" viewBox="0 0 28 28" fill="none" xmlns="http://www.w3.org/2000/svg">
<path d="M11.7058 3.50687C12.4914 2.72134 13.5568 2.28003 14.6677 2.28003C15.7786 2.28003 16.844 2.72134 17.6295 3.50687C18.4151 4.2924 18.8564 5.35781 18.8564 6.46872V12.2581C18.8564 12.6716 18.7953 13.0828 18.6749 13.4784C18.6017 13.7187 18.4078 13.903 18.1641 13.9639C17.9204 14.0248 17.6627 13.9533 17.4851 13.7756L10.6883 6.97412C10.5543 6.84005 10.479 6.65826 10.479 6.46872C10.479 5.35781 10.9203 4.2924 11.7058 3.50687Z" fill="#FF3C49"/>
<path d="M4.48945 4.35376L10.4512 10.4951C10.4512 10.4951 10.479 10.8939 10.479 11.1026V12.2605C10.4788 12.9145 10.6318 13.5595 10.9257 14.1437C11.2196 14.728 11.6462 15.2354 12.1715 15.6252C12.6967 16.015 13.3059 16.2764 13.9503 16.3884C14.5948 16.5004 15.2564 16.4599 15.8824 16.2703C16.0104 16.2315 16.1196 16.16 16.2035 16.0678L18.6321 18.4964C17.5397 19.1908 16.2834 19.5865 14.9889 19.6428C14.8961 19.6469 14.8033 19.6492 14.7105 19.6497C14.6964 19.6489 14.682 19.6484 14.6676 19.6484C14.6532 19.6484 14.6389 19.6489 14.6247 19.6497C13.4163 19.6427 12.226 19.3394 11.1591 18.764C9.98523 18.1308 9.00455 17.1918 8.32111 16.0464C7.63767 14.901 7.27694 13.5921 7.27717 12.2583C7.27724 11.8634 6.95718 11.5432 6.56229 11.5432C6.16741 11.5431 5.84724 11.8631 5.84717 12.258C5.84689 13.8499 6.27742 15.4122 7.09311 16.7792C7.9088 18.1462 9.07923 19.2669 10.4803 20.0226C11.5576 20.6037 12.7405 20.9523 13.9526 21.0508V24.28H10.036C9.64116 24.28 9.32104 24.6001 9.32104 24.995C9.32104 25.3899 9.64116 25.71 10.036 25.71H19.2992C19.6941 25.71 20.0142 25.3899 20.0142 24.995C20.0142 24.6001 19.6941 24.28 19.2992 24.28H15.3826V21.0508C16.8552 20.931 18.2761 20.443 19.5135 19.6293C19.5646 19.5957 19.6099 19.5567 19.6493 19.5136L23.4018 23.2661C23.681 23.5453 24.1337 23.5453 24.4129 23.2661C24.6921 22.9868 24.6921 22.5341 24.4129 22.2549L5.50061 3.3426C5.22139 3.06337 4.76867 3.06337 4.48945 3.3426C4.21022 3.62182 4.21022 4.07454 4.48945 4.35376Z" fill="#FF3C49"/>
<path d="M23.4877 12.2569C23.487 11.862 23.1663 11.5424 22.7714 11.5432C22.3765 11.5439 22.057 11.8646 22.0577 12.2595C22.0603 13.7037 21.6375 15.1168 20.842 16.3222C20.6245 16.6518 20.7154 17.0953 21.045 17.3128C21.3746 17.5303 21.8181 17.4394 22.0356 17.1099C22.9858 15.6699 23.4908 13.982 23.4877 12.2569Z" fill="#FF3C49"/>
</svg>
