<svg width="16" height="16" viewBox="0 0 16 16" fill="none" xmlns="http://www.w3.org/2000/svg">
<path d="M1.87012 2.26678L13.8733 14.27" stroke="#292A43" stroke-width="1.3" stroke-linecap="round" stroke-linejoin="round"/>
<path d="M8.45177 8.85122C8.15281 8.94181 7.83679 8.96113 7.52902 8.90764C7.22124 8.85414 6.93028 8.72931 6.67942 8.54314C6.42857 8.35698 6.2248 8.11465 6.08443 7.83558C5.94406 7.5565 5.871 7.24844 5.87109 6.93605V6.26921M5.87109 3.6005C5.87109 3.06993 6.08186 2.56109 6.45703 2.18592C6.83221 1.81074 7.34105 1.59998 7.87162 1.59998C8.40219 1.59998 8.91104 1.81074 9.28621 2.18592C9.66138 2.56109 9.87215 3.06993 9.87215 3.6005V6.93472C9.87218 7.1322 9.84296 7.32861 9.78546 7.51754L5.87109 3.6005Z" stroke="#292A43" stroke-width="1.3" stroke-linecap="round" stroke-linejoin="round"/>
<path d="M3.20386 6.93469C3.20371 7.77714 3.43156 8.60393 3.86324 9.32738C4.29492 10.0508 4.91434 10.644 5.65581 11.0439C6.39729 11.4438 7.23317 11.6356 8.07483 11.599C8.91648 11.5623 9.73253 11.2986 10.4364 10.8357M11.7714 9.50204C12.2741 8.74029 12.5413 7.84735 12.5397 6.93469" stroke="#292A43" stroke-width="1.3" stroke-linecap="round" stroke-linejoin="round"/>
<path d="M5.2041 14.27H10.5388" stroke="#292A43" stroke-width="1.3" stroke-linecap="round" stroke-linejoin="round"/>
<path d="M7.87183 11.6026V14.27" stroke="#292A43" stroke-width="1.3" stroke-linecap="round" stroke-linejoin="round"/>
</svg>
