<svg width="16" height="16" viewBox="0 0 16 16" fill="none" xmlns="http://www.w3.org/2000/svg">
<path d="M9.86659 3.6001C9.86659 2.49553 8.97116 1.6001 7.86659 1.6001C6.76202 1.6001 5.86659 2.49553 5.86659 3.6001L5.86659 6.93343C5.86659 8.038 6.76202 8.93343 7.86659 8.93343C8.97116 8.93343 9.86659 8.038 9.86659 6.93343V3.6001Z" stroke="white" stroke-width="1.3" stroke-linecap="round" stroke-linejoin="round"/>
<path d="M3.2 6.93359C3.2 8.17127 3.69166 9.35826 4.56683 10.2334C5.442 11.1086 6.62899 11.6003 7.86666 11.6003C9.10434 11.6003 10.2913 11.1086 11.1665 10.2334C12.0417 9.35826 12.5333 8.17127 12.5333 6.93359" stroke="white" stroke-width="1.3" stroke-linecap="round" stroke-linejoin="round"/>
<path d="M5.2 14.2666H10.5333" stroke="white" stroke-width="1.3" stroke-linecap="round" stroke-linejoin="round"/>
<path d="M7.86659 11.6001V14.2668" stroke="white" stroke-width="1.3" stroke-linecap="round" stroke-linejoin="round"/>
</svg>
