<svg width="16" height="16" viewBox="0 0 16 16" fill="none" xmlns="http://www.w3.org/2000/svg">
<path fill-rule="evenodd" clip-rule="evenodd" d="M7.99998 2.65001C5.04525 2.65001 2.64998 5.04528 2.64998 8.00001C2.64998 10.9547 5.04525 13.35 7.99998 13.35C8.35896 13.35 8.64998 13.641 8.64998 14C8.64998 14.359 8.35896 14.65 7.99998 14.65C4.32728 14.65 1.34998 11.6727 1.34998 8.00001C1.34998 4.32731 4.32728 1.35001 7.99998 1.35001C11.6727 1.35001 14.65 4.32731 14.65 8.00001C14.65 8.35899 14.359 8.65001 14 8.65001C13.641 8.65001 13.35 8.35899 13.35 8.00001C13.35 5.04528 10.9547 2.65001 7.99998 2.65001Z" fill="#FF3C49"/>
<path fill-rule="evenodd" clip-rule="evenodd" d="M8.35 4.34998C7.99101 4.34998 7.7 4.64099 7.7 4.99998V8.17498L5.96 9.47998C5.67281 9.69537 5.61461 10.1028 5.83 10.39C6.04539 10.6772 6.45281 10.7354 6.74 10.52L9 8.82498V4.99998C9 4.64099 8.70899 4.34998 8.35 4.34998Z" fill="#FF3C49"/>
<path d="M10 10L13.7574 13.7574" stroke="#FF3C49" stroke-width="1.3" stroke-linecap="round"/>
<path d="M13.7573 10L9.99996 13.7574" stroke="#FF3C49" stroke-width="1.3" stroke-linecap="round"/>
</svg>
