<?xml version="1.0" standalone="no"?>
<!DOCTYPE svg PUBLIC "-//W3C//DTD SVG 20010904//EN"
 "http://www.w3.org/TR/2001/REC-SVG-20010904/DTD/svg10.dtd">
<svg version="1.0" xmlns="http://www.w3.org/2000/svg"
 width="512.000000pt" height="512.000000pt" viewBox="0 0 512.000000 512.000000"
 preserveAspectRatio="xMidYMid meet">

<g transform="translate(0.000000,512.000000) scale(0.100000,-0.100000)"
fill="#000000" stroke="none">
<path d="M1317 4624 c-423 -76 -748 -404 -822 -829 -23 -131 -23 -2339 0
-2470 75 -430 402 -756 833 -830 77 -13 216 -15 1003 -13 l914 3 73 27 c40 14
96 41 125 59 72 45 1034 1004 1093 1089 24 36 57 99 72 140 l27 75 3 914 c2
787 0 926 -13 1003 -74 432 -399 758 -830 833 -125 22 -2357 21 -2478 -1z
m2518 -336 c112 -39 198 -92 280 -173 81 -82 134 -168 173 -280 l27 -80 3
-732 3 -733 -490 0 c-315 0 -509 -4 -543 -11 -164 -34 -324 -159 -397 -312
-21 -45 -44 -106 -50 -135 -7 -34 -11 -228 -11 -543 l0 -490 -732 3 -733 3
-80 27 c-112 39 -198 92 -280 173 -81 82 -134 168 -173 280 l-27 80 0 1195 0
1195 27 80 c83 245 272 414 523 470 48 11 286 13 1230 12 l1170 -2 80 -27z
m480 -2350 c-17 -79 -54 -120 -533 -600 -480 -479 -521 -516 -599 -533 l-33
-7 0 480 c0 336 3 489 12 513 24 73 88 138 162 166 22 8 170 12 514 12 l484 1
-7 -32z"/>
</g>
</svg>
