<svg width="16" height="16" viewBox="0 0 16 16" fill="none" xmlns="http://www.w3.org/2000/svg">
<path fill-rule="evenodd" clip-rule="evenodd" d="M7.68304 3.14687C7.817 3.01001 7.99569 2.93574 8.17899 2.93574C8.36229 2.93574 8.54097 3.01001 8.67493 3.14687C8.80935 3.28421 8.88729 3.47339 8.88729 3.6735C8.88729 3.92289 9.02998 4.15029 9.25454 4.25878C9.92674 4.58352 10.5016 5.08995 10.9163 5.72544C11.3285 6.35706 11.5664 7.09193 11.6039 7.85221V9.9184C11.6039 9.94395 11.6054 9.96949 11.6084 9.99487C11.6652 10.4744 11.821 10.9362 12.0656 11.35H9.61717C9.61439 11.35 9.61161 11.35 9.60883 11.35C9.60604 11.35 9.60326 11.35 9.60048 11.35H6.75759C6.75481 11.35 6.75203 11.35 6.74924 11.35C6.74646 11.35 6.74368 11.35 6.7409 11.35H4.2924C4.53694 10.9362 4.69275 10.4744 4.74956 9.99487C4.75257 9.96949 4.75408 9.94395 4.75408 9.9184V7.85221C4.79155 7.09193 5.02951 6.35706 5.44165 5.72544C5.85633 5.08995 6.43124 4.58352 7.10343 4.25878C7.32799 4.15029 7.47068 3.92289 7.47068 3.6735C7.47068 3.47339 7.54862 3.28421 7.68304 3.14687ZM6.11282 12.65H3.49084C3.01244 12.65 2.75029 12.2889 2.66466 12.033C2.57915 11.7774 2.57834 11.3853 2.86639 11.0899C2.96152 10.9923 3.0476 10.885 3.12315 10.7692C3.29752 10.502 3.41087 10.1971 3.45408 9.87752V7.83676C3.45408 7.82682 3.45431 7.81687 3.45476 7.80693C3.5005 6.81136 3.81055 5.84625 4.35293 5.01503C4.82783 4.28724 5.46551 3.68568 6.21259 3.25938C6.29089 2.87659 6.47694 2.52061 6.754 2.23754C7.1295 1.8539 7.6418 1.63574 8.17899 1.63574C8.71618 1.63574 9.22847 1.8539 9.60397 2.23754C9.88103 2.52061 10.0671 2.8766 10.1454 3.25938C10.8925 3.68568 11.5301 4.28724 12.005 5.01503C12.5474 5.84625 12.8575 6.81136 12.9032 7.80693C12.9037 7.81687 12.9039 7.82682 12.9039 7.83676V9.87752C12.9471 10.1971 13.0604 10.502 13.2348 10.7692C13.3104 10.885 13.3965 10.9923 13.4916 11.0899C13.7796 11.3853 13.7788 11.7774 13.6933 12.033C13.6077 12.2889 13.3455 12.65 12.8671 12.65H10.2453C10.1896 13.1016 9.96589 13.5142 9.62467 13.821C9.23063 14.1753 8.70966 14.3643 8.17904 14.3643C7.64841 14.3643 7.12744 14.1753 6.7334 13.821C6.39218 13.5142 6.16843 13.1016 6.11282 12.65ZM7.4491 12.65C7.48247 12.7221 7.53311 12.7918 7.60264 12.8544C7.74488 12.9823 7.95125 13.0643 8.17904 13.0643C8.40682 13.0643 8.61319 12.9823 8.75543 12.8544C8.82496 12.7918 8.8756 12.7221 8.90897 12.65H7.4491Z" fill="#292A43"/>
</svg>
