<svg width="16" height="16" viewBox="0 0 16 16" fill="none" xmlns="http://www.w3.org/2000/svg">
<path fill-rule="evenodd" clip-rule="evenodd" d="M8.90675 3.44009H6.30675C6.01959 3.44009 5.78675 3.20725 5.78675 2.92009C5.78675 2.63292 6.01959 2.40009 6.30675 2.40009H12.5467C12.8339 2.40009 13.0667 2.63292 13.0667 2.92009C13.0667 3.20725 12.8339 3.44009 12.5467 3.44009H9.94675L6.82675 11.7601H9.42675C9.71391 11.7601 9.94675 11.9929 9.94675 12.2801C9.94675 12.5672 9.71391 12.8001 9.42675 12.8001H3.18675C2.89959 12.8001 2.66675 12.5672 2.66675 12.2801C2.66675 11.9929 2.89959 11.7601 3.18675 11.7601H5.78675L8.90675 3.44009Z" fill="#292A43"/>
</svg>
