<svg width="16" height="16" viewBox="0 0 16 16" fill="none" xmlns="http://www.w3.org/2000/svg">
    <path d="M1.45964 6.0588C5.06404 2.45363 10.9107 2.45153 14.5418 6.06027C14.7964 6.31332 15.208 6.31206 15.461 6.05743C15.7141 5.80281 15.7128 5.39125 15.4582 5.1382C11.3217 1.02717 4.65402 1.02507 0.540307 5.13966C0.286493 5.39353 0.286537 5.80509 0.540405 6.0589C0.794273 6.31272 1.20583 6.31267 1.45964 6.0588Z" fill="#FF3C49"/>
    <path d="M7.98778 6.64839C7.20794 6.64839 6.43573 6.802 5.71525 7.10044C4.99477 7.39888 4.34013 7.83632 3.78871 8.38777C3.53487 8.64161 3.12332 8.64162 2.86947 8.38779C2.61562 8.13396 2.61561 7.7224 2.86945 7.46855C3.54158 6.79638 4.33954 6.26318 5.21774 5.8994C6.09595 5.53562 7.03721 5.34839 7.98778 5.34839C8.93835 5.34839 9.87961 5.53562 10.7578 5.8994C10.945 5.97693 11.1285 6.06215 11.3079 6.15477C11.0242 6.45109 10.85 6.85299 10.85 7.2956V7.38369C10.6591 7.27872 10.4623 7.18411 10.2603 7.10044C9.53984 6.802 8.76763 6.64839 7.98778 6.64839Z" fill="#FF3C49"/>
    <path d="M10.85 9.88597V10.6299C10.8285 10.6607 10.804 10.69 10.7765 10.7175C10.5227 10.9714 10.1111 10.9714 9.85724 10.7176C9.3614 10.2219 8.68898 9.94346 7.98785 9.94346C7.28673 9.94346 6.61431 10.2219 6.11846 10.7176C5.86458 10.9714 5.45302 10.9714 5.19922 10.7175C4.94542 10.4636 4.94548 10.052 5.19936 9.79825C5.93899 9.05884 6.94201 8.64346 7.98785 8.64346C9.03369 8.64346 10.0367 9.05884 10.7763 9.79825C10.8039 9.82577 10.8284 9.85514 10.85 9.88597Z" fill="#FF3C49"/>
    <path d="M11.85 7.2956C11.85 7.03876 11.9989 6.81672 12.2152 6.71115C12.3012 6.66916 12.3978 6.6456 12.5 6.6456C12.859 6.6456 13.15 6.93661 13.15 7.2956V10.9956C13.15 11.3546 12.859 11.6456 12.5 11.6456C12.141 11.6456 11.85 11.3546 11.85 10.9956V7.2956Z" fill="#FF3C49"/>
    <path d="M7.33752 12.5869C7.33752 12.2279 7.62671 11.9369 7.98343 11.9369H7.99162C8.34834 11.9369 8.63752 12.2279 8.63752 12.5869C8.63752 12.9459 8.34834 13.2369 7.99162 13.2369H7.98343C7.62671 13.2369 7.33752 12.9459 7.33752 12.5869Z" fill="#FF3C49"/>
    <path d="M12.5 13.9456C12.859 13.9456 13.15 13.6546 13.15 13.2956C13.15 12.9366 12.859 12.6456 12.5 12.6456C12.141 12.6456 11.85 12.9366 11.85 13.2956C11.85 13.6546 12.141 13.9456 12.5 13.9456Z" fill="#FF3C49"/>
</svg>
