<svg width="16" height="16" viewBox="0 0 16 16" fill="none" xmlns="http://www.w3.org/2000/svg">
<path fill-rule="evenodd" clip-rule="evenodd" d="M2.3501 2.99998C2.3501 2.64099 2.64111 2.34998 3.0001 2.34998H6.0001C6.35908 2.34998 6.6501 2.64099 6.6501 2.99998V13C6.6501 13.359 6.35908 13.65 6.0001 13.65H3.0001C2.64111 13.65 2.3501 13.359 2.3501 13V2.99998ZM3.6501 3.64998V12.35H5.3501V3.64998H3.6501Z" fill="#292A43"/>
<path fill-rule="evenodd" clip-rule="evenodd" d="M9.3501 2.99998C9.3501 2.64099 9.64111 2.34998 10.0001 2.34998H13.0001C13.3591 2.34998 13.6501 2.64099 13.6501 2.99998V13C13.6501 13.359 13.3591 13.65 13.0001 13.65H10.0001C9.64111 13.65 9.3501 13.359 9.3501 13V2.99998ZM10.6501 3.64998V12.35H12.3501V3.64998H10.6501Z" fill="#292A43"/>
</svg>
