<svg width="16" height="16" viewBox="0 0 16 16" fill="none" xmlns="http://www.w3.org/2000/svg">
<path d="M11.5333 5V2.75C11.5333 2.55109 11.4561 2.36032 11.3185 2.21967C11.181 2.07902 10.9945 2 10.8 2H3.46667C3.07768 2 2.70463 2.15804 2.42958 2.43934C2.15452 2.72064 2 3.10218 2 3.5C2 3.89782 2.15452 4.27936 2.42958 4.56066C2.70463 4.84196 3.07768 5 3.46667 5H12.2667C12.4612 5 12.6477 5.07902 12.7852 5.21967C12.9227 5.36032 13 5.55109 13 5.75V8M13 11V13.25C13 13.4489 12.9227 13.6397 12.7852 13.7803C12.6477 13.921 12.4612 14 12.2667 14H3.46667C3.07768 14 2.70463 13.842 2.42958 13.5607C2.15452 13.2794 2 12.8978 2 12.5V3.5" stroke="#292A43" stroke-width="1.3" stroke-linecap="round" stroke-linejoin="round"/>
<path d="M14 8V11H11.3333C10.9797 11 10.6406 10.842 10.3905 10.5607C10.1405 10.2794 10 9.89782 10 9.5C10 9.10218 10.1405 8.72064 10.3905 8.43934C10.6406 8.15804 10.9797 8 11.3333 8H14Z" stroke="#292A43" stroke-width="1.3" stroke-linecap="round" stroke-linejoin="round"/>
</svg>
