<svg width="20" height="20" viewBox="0 0 20 20" fill="none" xmlns="http://www.w3.org/2000/svg">
<g clip-path="url(#clip0_15139_2761)">
<path fill-rule="evenodd" clip-rule="evenodd" d="M2.33251 5.43104L15.8555 1.80757C16.1222 1.7361 16.3964 1.89439 16.4678 2.16113L17.5144 6.06682C18.3697 6.2938 19 7.07332 19 8.00005V9.45104C19.4543 8.96341 19.6549 8.25969 19.4697 7.56845L17.9167 1.7729C17.6309 0.705965 16.5342 0.0728 15.4672 0.358684L1.94428 3.98215C0.877352 4.26803 0.244187 5.36471 0.530071 6.43164L0.999981 8.18537V8.00005C0.999981 7.24585 1.41744 6.58916 2.03389 6.24843L1.97896 6.04341C1.90749 5.77668 2.06578 5.50251 2.33251 5.43104Z" fill="#292A43"/>
<path fill-rule="evenodd" clip-rule="evenodd" d="M17 7.5H3C2.72386 7.5 2.5 7.72386 2.5 8V16C2.5 16.2761 2.72386 16.5 3 16.5H17C17.2761 16.5 17.5 16.2761 17.5 16V8C17.5 7.72386 17.2761 7.5 17 7.5ZM3 6C1.89543 6 1 6.89543 1 8V16C1 17.1046 1.89543 18 3 18H17C18.1046 18 19 17.1046 19 16V8C19 6.89543 18.1046 6 17 6H3Z" fill="#292A43"/>
<path fill-rule="evenodd" clip-rule="evenodd" d="M7.52051 15.0721H8.02805V15.4C8.02805 15.445 8.03301 15.4889 8.04242 15.5311C8.10223 15.7994 8.34172 16 8.62805 16H8.76799C9.05432 16 9.29381 15.7994 9.35362 15.5311C9.36302 15.4889 9.36799 15.445 9.36799 15.4V15.0721H11.1693C11.4383 15.0721 11.6596 14.8681 11.6869 14.6063C11.6888 14.5883 11.6898 14.5701 11.6898 14.5516C11.6898 14.2642 11.4567 14.0311 11.1693 14.0311H9.36799V13.1485H10.9389C11.0167 13.1485 11.0935 13.1469 11.1693 13.1435C11.3997 13.1335 11.6212 13.1081 11.8338 13.0674C11.837 13.0668 11.8402 13.0662 11.8434 13.0656C11.9524 13.0445 12.0591 13.0193 12.1634 12.9901C12.2337 12.9704 12.3022 12.9489 12.3688 12.9255C12.5348 12.8673 12.6892 12.7976 12.832 12.7166C12.9391 12.6558 13.0397 12.5885 13.1337 12.5149C13.3426 12.3453 13.5168 12.1417 13.6564 11.9041C13.6637 11.8916 13.6709 11.8791 13.678 11.8664C13.7103 11.8091 13.7406 11.7499 13.769 11.6888C13.9179 11.3679 13.9948 11.0187 13.9997 10.6413C13.9999 10.6284 14 10.6155 14 10.6025V10.546C14 10.0977 13.9349 9.7165 13.8047 9.40245C13.8022 9.39642 13.7997 9.39042 13.7971 9.38443C13.7917 9.37169 13.7862 9.35906 13.7805 9.34653C13.6419 9.02216 13.4417 8.7619 13.1799 8.56577C13.1238 8.52218 13.0653 8.48136 13.0044 8.4433C12.9834 8.4302 12.9621 8.41743 12.9406 8.40499C12.7319 8.28463 12.496 8.1949 12.2327 8.13578C12.1295 8.11051 12.023 8.08876 11.9131 8.07054C11.8999 8.06834 11.8866 8.06619 11.8732 8.06409C11.601 8.02136 11.3089 8 10.9967 8H8.62805C8.29668 8 8.02805 8.26863 8.02805 8.6V12.0396H7.55446C7.24824 12.0396 7 12.2878 7 12.5941C7 12.5956 7.00001 12.5972 7.00002 12.5988C7.00247 12.8915 7.23166 13.13 7.52051 13.1475C7.53174 13.1482 7.54306 13.1485 7.55446 13.1485H8.02805V14.0311H7.52051C7.23304 14.0311 7 14.2642 7 14.5516C7 14.5588 7.00014 14.5659 7.00043 14.5729C7.01161 14.8505 7.24018 15.0721 7.52051 15.0721ZM9.36799 12.0396H10.8812C10.9006 12.0396 10.9198 12.0394 10.9389 12.0391C11.1632 12.0353 11.3711 12.0091 11.5627 11.9604C11.664 11.9356 11.7594 11.9041 11.8487 11.866C11.9496 11.823 12.043 11.7715 12.1287 11.7115C12.2047 11.6583 12.2731 11.5976 12.3338 11.5294C12.3387 11.5239 12.3435 11.5183 12.3483 11.5127C12.4106 11.4401 12.4644 11.3592 12.5099 11.2702C12.5337 11.2271 12.5549 11.1818 12.5734 11.1341C12.633 10.981 12.6657 10.8038 12.6716 10.6025C12.6716 10.5835 12.6714 10.5646 12.6711 10.546C12.6662 10.2922 12.6278 10.081 12.5561 9.9123C12.5546 9.9085 12.553 9.90472 12.5514 9.90095C12.5479 9.89266 12.5444 9.88446 12.5407 9.87633C12.4988 9.78251 12.4467 9.69957 12.3845 9.6275C12.3792 9.62129 12.3737 9.61517 12.3682 9.60912C12.3209 9.55711 12.268 9.51107 12.2096 9.471C12.1366 9.41454 12.0549 9.36746 11.9646 9.32978C11.9573 9.32672 11.9499 9.32372 11.9425 9.32079C11.8579 9.28743 11.7659 9.26206 11.6667 9.2447C11.4717 9.20377 11.2484 9.18134 10.9967 9.17743C10.9701 9.17701 10.9431 9.1768 10.9158 9.1768H9.36799V12.0396Z" fill="#292A43"/>
</g>
<defs>
<clipPath id="clip0_15139_2761">
<rect width="20" height="20" fill="white"/>
</clipPath>
</defs>
</svg>
