<svg width="24" height="24" viewBox="0 0 24 24" fill="none" xmlns="http://www.w3.org/2000/svg">
<path d="M14 3V7C14 7.26522 14.1054 7.51957 14.2929 7.70711C14.4804 7.89464 14.7348 8 15 8H19" stroke="#292A43" stroke-width="1.5" stroke-linecap="round" stroke-linejoin="round"/>
<path d="M17 21H7C6.46957 21 5.96086 20.7893 5.58579 20.4142C5.21071 20.0391 5 19.5304 5 19V5C5 4.46957 5.21071 3.96086 5.58579 3.58579C5.96086 3.21071 6.46957 3 7 3H14L19 8V19C19 19.5304 18.7893 20.0391 18.4142 20.4142C18.0391 20.7893 17.5304 21 17 21Z" stroke="#292A43" stroke-width="1.5" stroke-linecap="round" stroke-linejoin="round"/>
<path d="M16.7408 12C16.884 12 17 12.1265 17 12.2825V12.6667C17 12.8227 16.884 12.9492 16.7408 12.9492H15.2273V13.678H16.4298C16.573 13.678 16.689 13.8044 16.689 13.9605V14.3333C16.689 14.4893 16.573 14.6158 16.4298 14.6158H15.2273V15.7175C15.2273 15.8735 15.1113 16 14.9681 16H14.5483C14.4051 16 14.2891 15.8735 14.2891 15.7175V12.2825C14.2891 12.1265 14.4051 12 14.5483 12H16.7408Z" fill="#292A43"/>
<path d="M10.7266 16C10.5834 16 10.4674 15.8735 10.4674 15.7175V12.2825C10.4674 12.1265 10.5834 12 10.7266 12H11.9032C12.1934 12 12.4543 12.0433 12.6859 12.1299C12.9208 12.2128 13.1195 12.3371 13.282 12.5028C13.4444 12.6686 13.5688 12.8757 13.6552 13.1243C13.745 13.3729 13.7899 13.661 13.7899 13.9887C13.7899 14.6591 13.6241 15.162 13.2923 15.4972C12.964 15.8324 12.5044 16 11.9135 16H10.7266ZM11.9239 15.0565C12.0967 15.0565 12.2418 15.032 12.3593 14.9831C12.4768 14.9303 12.5701 14.8588 12.6392 14.7684C12.7118 14.6742 12.7636 14.5631 12.7947 14.435C12.8258 14.3032 12.8414 14.1601 12.8414 14.0056C12.8414 13.855 12.8258 13.7156 12.7947 13.5876C12.7671 13.4595 12.717 13.3484 12.6444 13.2542C12.5718 13.1601 12.4733 13.0866 12.3489 13.0339C12.228 12.9774 12.0742 12.9492 11.8876 12.9492H11.4056V15.0565H11.9239Z" fill="#292A43"/>
<path d="M8.53946 12C8.7537 12 8.94894 12.0245 9.12518 12.0734C9.30487 12.1186 9.45864 12.1977 9.5865 12.3107C9.71781 12.42 9.81802 12.565 9.88713 12.7458C9.9597 12.9266 9.99598 13.1507 9.99598 13.4181C9.99253 13.693 9.94242 13.9284 9.84567 14.1243C9.75237 14.3202 9.62451 14.4783 9.4621 14.5989C9.33424 14.6968 9.18738 14.7684 9.02151 14.8136C8.85564 14.855 8.68286 14.8757 8.50318 14.8757H7.93819V15.7175C7.93819 15.8735 7.82215 16 7.67902 16H7.25917C7.11603 16 7 15.8735 7 15.7175V12.2825C7 12.1265 7.11603 12 7.25917 12H8.53946ZM8.50318 13.9661C8.68286 13.9661 8.82109 13.9209 8.91784 13.8305C9.01806 13.7363 9.06989 13.6083 9.07334 13.4463C9.0768 13.2768 9.03361 13.1525 8.94376 13.0734C8.85392 12.9906 8.70533 12.9492 8.49799 12.9492H7.93819V13.9661H8.50318Z" fill="#292A43"/>
</svg>
