<svg width="16" height="16" viewBox="0 0 16 16" fill="none" xmlns="http://www.w3.org/2000/svg">
<path fill-rule="evenodd" clip-rule="evenodd" d="M6.0001 3.31666C5.99568 3.31666 5.99144 3.31842 5.98831 3.32154C5.98519 3.32467 5.98343 3.32891 5.98343 3.33333C5.98343 3.85934 5.77447 4.36381 5.40253 4.73576C5.03058 5.10771 4.52611 5.31666 4.0001 5.31666H3.33343C3.1522 5.31666 2.97839 5.38866 2.85024 5.51681C2.72209 5.64496 2.6501 5.81876 2.6501 6V12C2.6501 12.1812 2.72209 12.355 2.85024 12.4832C2.97839 12.6113 3.1522 12.6833 3.33343 12.6833H12.6668C12.848 12.6833 13.0218 12.6113 13.15 12.4832C13.2781 12.355 13.3501 12.1812 13.3501 12V6C13.3501 5.81877 13.2781 5.64496 13.15 5.51681C13.0218 5.38866 12.848 5.31666 12.6668 5.31666H12.0001C11.4741 5.31666 10.9696 5.10771 10.5977 4.73576C10.2257 4.36381 10.0168 3.85934 10.0168 3.33333C10.0168 3.32891 10.015 3.32467 10.0119 3.32154C10.0088 3.31842 10.0045 3.31666 10.0001 3.31666H6.0001ZM3.33343 4.01666C2.80742 4.01666 2.30295 4.22562 1.931 4.59757C1.55906 4.96951 1.3501 5.47398 1.3501 6V12C1.3501 12.526 1.55906 13.0305 1.931 13.4024C2.30295 13.7744 2.80742 13.9833 3.33343 13.9833H12.6668C13.1928 13.9833 13.6972 13.7744 14.0692 13.4024C14.4411 13.0305 14.6501 12.526 14.6501 12V6C14.6501 5.47398 14.4411 4.96951 14.0692 4.59757C13.6972 4.22562 13.1928 4.01666 12.6668 4.01666H12.0001C11.8189 4.01666 11.6451 3.94467 11.5169 3.81652C11.3888 3.68837 11.3168 3.51456 11.3168 3.33333C11.3168 2.98413 11.178 2.64923 10.9311 2.40231C10.6842 2.15538 10.3493 2.01666 10.0001 2.01666H6.0001C5.6509 2.01666 5.316 2.15538 5.06907 2.40231C4.82215 2.64923 4.68343 2.98413 4.68343 3.33333C4.68343 3.51456 4.61144 3.68837 4.48329 3.81652C4.35514 3.94467 4.18133 4.01666 4.0001 4.01666H3.33343Z" fill="#292A43"/>
<path fill-rule="evenodd" clip-rule="evenodd" d="M8.0001 7.31666C7.25451 7.31666 6.6501 7.92108 6.6501 8.66666C6.6501 9.41225 7.25451 10.0167 8.0001 10.0167C8.74568 10.0167 9.3501 9.41225 9.3501 8.66666C9.3501 7.92108 8.74568 7.31666 8.0001 7.31666ZM5.3501 8.66666C5.3501 7.20311 6.53654 6.01666 8.0001 6.01666C9.46365 6.01666 10.6501 7.20311 10.6501 8.66666C10.6501 10.1302 9.46365 11.3167 8.0001 11.3167C6.53654 11.3167 5.3501 10.1302 5.3501 8.66666Z" fill="#292A43"/>
</svg>
