<svg width="16" height="16" viewBox="0 0 16 16" fill="none" xmlns="http://www.w3.org/2000/svg">
<path fill-rule="evenodd" clip-rule="evenodd" d="M5.64715 1.34998C6.00614 1.34998 6.29715 1.64099 6.29715 1.99998V6.23527C6.29715 6.35035 6.2666 6.46337 6.20861 6.56278L4.6501 9.23452V9.82055H11.5854V9.23452L10.0269 6.56278C9.96888 6.46337 9.93832 6.35035 9.93832 6.23527V1.99998C9.93832 1.64099 10.2293 1.34998 10.5883 1.34998C10.9473 1.34998 11.2383 1.64099 11.2383 1.99998V6.05954L12.7968 8.73128C12.8548 8.83068 12.8854 8.94371 12.8854 9.05879V10.4706C12.8854 10.8295 12.5944 11.1206 12.2354 11.1206H4.0001C3.64111 11.1206 3.3501 10.8295 3.3501 10.4706V9.05879C3.3501 8.94371 3.38065 8.83068 3.43864 8.73128L4.99715 6.05954V1.99998C4.99715 1.64099 5.28817 1.34998 5.64715 1.34998Z" fill="#292A43"/>
<path fill-rule="evenodd" clip-rule="evenodd" d="M8.11729 9.82062C8.47627 9.82062 8.76729 10.1116 8.76729 10.4706V14C8.76729 14.359 8.47627 14.65 8.11729 14.65C7.7583 14.65 7.46729 14.359 7.46729 14V10.4706C7.46729 10.1116 7.7583 9.82062 8.11729 9.82062Z" fill="#292A43"/>
<path fill-rule="evenodd" clip-rule="evenodd" d="M4.17358 1.99998C4.17358 1.64099 4.4646 1.34998 4.82358 1.34998H11.4118C11.7708 1.34998 12.0618 1.64099 12.0618 1.99998C12.0618 2.35896 11.7708 2.64998 11.4118 2.64998H4.82358C4.4646 2.64998 4.17358 2.35896 4.17358 1.99998Z" fill="#292A43"/>
<path d="M2 1L14.0032 13.0032" stroke="#292A43" stroke-width="1.3" stroke-linecap="round" stroke-linejoin="round"/>
</svg>
