<svg width="28" height="28" viewBox="0 0 28 28" fill="none" xmlns="http://www.w3.org/2000/svg">
<path fill-rule="evenodd" clip-rule="evenodd" d="M12.1475 10.614C11.9163 10.4695 11.6249 10.4618 11.3864 10.594C11.148 10.7262 11 10.9774 11 11.25V18.75C11 19.0226 11.148 19.2738 11.3864 19.406C11.6249 19.5382 11.9163 19.5305 12.1475 19.386L18.1475 15.636C18.3668 15.4989 18.5 15.2586 18.5 15C18.5 14.7414 18.3668 14.5011 18.1475 14.364L12.1475 10.614ZM16.3349 15L12.5 17.3968V12.6032L16.3349 15Z" fill="currentColor"/>
<path fill-rule="evenodd" clip-rule="evenodd" d="M11.2929 3.29289L14 6H20.7C23.0748 6 25 7.92518 25 10.3V19.7C25 22.0748 23.0748 24 20.7 24H7.3C4.92518 24 3 22.0748 3 19.7V7.3C3 4.92517 4.92518 3 7.3 3H10.5858C10.851 3 11.1054 3.10536 11.2929 3.29289ZM13.3787 7.5H20.7C22.2464 7.5 23.5 8.7536 23.5 10.3V19.7C23.5 21.2464 22.2464 22.5 20.7 22.5H7.3C5.7536 22.5 4.5 21.2464 4.5 19.7V7.3C4.5 5.7536 5.7536 4.5 7.3 4.5H10.3787L13.3787 7.5Z" fill="currentColor"/>
</svg>
