<svg width="16" height="16" viewBox="0 0 16 16" fill="none" xmlns="http://www.w3.org/2000/svg">
<path fill-rule="evenodd" clip-rule="evenodd" d="M8.6501 1.99998C8.6501 1.64099 8.35908 1.34998 8.0001 1.34998C7.64111 1.34998 7.3501 1.64099 7.3501 1.99998V7.34998H2.00015C1.64116 7.34998 1.35015 7.64099 1.35015 7.99998C1.35015 8.35896 1.64116 8.64997 2.00015 8.64997H7.3501V14C7.3501 14.359 7.64111 14.65 8.0001 14.65C8.35908 14.65 8.6501 14.359 8.6501 14V8.64998H14.0001C14.3591 8.64998 14.6501 8.35896 14.6501 7.99998C14.6501 7.64099 14.3591 7.34998 14.0001 7.34998H8.6501V1.99998Z" fill="#292A43"/>
</svg>
