<svg width="16" height="16" viewBox="0 0 16 16" fill="none" xmlns="http://www.w3.org/2000/svg">
<path fill-rule="evenodd" clip-rule="evenodd" d="M9.1665 3.33329C9.1665 2.68896 8.64417 2.16663 7.99984 2.16663C7.3555 2.16663 6.83317 2.68896 6.83317 3.33329C6.83317 3.97762 7.3555 4.49996 7.99984 4.49996C8.64417 4.49996 9.1665 3.97763 9.1665 3.33329ZM9.1665 8.00004C9.1665 7.35571 8.64417 6.83337 7.99984 6.83337C7.3555 6.83337 6.83317 7.35571 6.83317 8.00004C6.83317 8.64437 7.3555 9.16671 7.99984 9.16671C8.64417 9.16671 9.1665 8.64437 9.1665 8.00004ZM7.99984 11.5C8.64417 11.5 9.1665 12.0223 9.1665 12.6667C9.1665 13.311 8.64417 13.8333 7.99984 13.8333C7.3555 13.8333 6.83317 13.311 6.83317 12.6667C6.83317 12.0223 7.3555 11.5 7.99984 11.5Z" fill="#292A43"/>
</svg>
