<svg width="16" height="16" viewBox="0 0 16 16" fill="none" xmlns="http://www.w3.org/2000/svg">
<path fill-rule="evenodd" clip-rule="evenodd" d="M3.33317 6.83331C2.68884 6.83331 2.1665 7.35565 2.1665 7.99998C2.1665 8.64431 2.68884 9.16665 3.33317 9.16665C3.9775 9.16665 4.49984 8.64431 4.49984 7.99998C4.49984 7.35565 3.9775 6.83331 3.33317 6.83331ZM7.99992 6.83331C7.35559 6.83331 6.83325 7.35565 6.83325 7.99998C6.83325 8.64431 7.35559 9.16665 7.99992 9.16665C8.64425 9.16665 9.16659 8.64431 9.16659 7.99998C9.16659 7.35565 8.64425 6.83331 7.99992 6.83331ZM11.4999 7.99998C11.4999 7.35565 12.0222 6.83331 12.6665 6.83331C13.3109 6.83331 13.8332 7.35565 13.8332 7.99998C13.8332 8.64431 13.3109 9.16665 12.6665 9.16665C12.0222 9.16665 11.4999 8.64431 11.4999 7.99998Z" fill="#292A43"/>
</svg>
