<svg width="16" height="16" viewBox="0 0 16 16" fill="none" xmlns="http://www.w3.org/2000/svg">
<path d="M11.3333 11.3333H12.6667C13.0203 11.3333 13.3594 11.1929 13.6095 10.9428C13.8595 10.6928 14 10.3536 14 10V7.33333C14 6.97971 13.8595 6.64057 13.6095 6.39052C13.3594 6.14048 13.0203 6 12.6667 6H3.33333C2.97971 6 2.64057 6.14048 2.39052 6.39052C2.14048 6.64057 2 6.97971 2 7.33333V10C2 10.3536 2.14048 10.6928 2.39052 10.9428C2.64057 11.1929 2.97971 11.3333 3.33333 11.3333H4.66667" stroke="#292A43" stroke-width="1.3" stroke-linecap="round" stroke-linejoin="round"/>
<path d="M11.3334 6V3.33333C11.3334 2.97971 11.1929 2.64057 10.9429 2.39052C10.6928 2.14048 10.3537 2 10.0001 2H6.00008C5.64646 2 5.30732 2.14048 5.05727 2.39052C4.80722 2.64057 4.66675 2.97971 4.66675 3.33333V6" stroke="#292A43" stroke-width="1.3" stroke-linecap="round" stroke-linejoin="round"/>
<path d="M10.0001 8.66666H6.00008C5.2637 8.66666 4.66675 9.26361 4.66675 9.99999V12.6667C4.66675 13.403 5.2637 14 6.00008 14H10.0001C10.7365 14 11.3334 13.403 11.3334 12.6667V9.99999C11.3334 9.26361 10.7365 8.66666 10.0001 8.66666Z" stroke="#292A43" stroke-width="1.3" stroke-linecap="round" stroke-linejoin="round"/>
</svg>
