<svg width="20" height="20" viewBox="0 0 20 20" fill="none" xmlns="http://www.w3.org/2000/svg">
<path d="M7.81799 10.0607L3.57535 14.3033" stroke="white" stroke-width="1.3" stroke-linecap="round"/>
<path d="M8.52509 13.5962L5.69666 16.4246" stroke="white" stroke-width="1.3" stroke-linecap="round"/>
<path d="M18.071 1.92896L14.5355 5.46449" stroke="white" stroke-width="1.3" stroke-linecap="round"/>
<circle cx="13.1213" cy="6.87866" r="1.35" transform="rotate(-45 13.1213 6.87866)" stroke="white" stroke-width="1.3"/>
<path fill-rule="evenodd" clip-rule="evenodd" d="M14.5355 13.9498L18.2269 10.2584C18.5558 9.92945 18.4 9.32895 18.071 9.00001C17.29 8.21896 17.29 6.95263 18.071 6.17158C18.4 5.84265 18.5558 5.24214 18.2269 4.9132L15.0868 1.77311C14.7578 1.44417 14.1573 1.60001 13.8284 1.92894C13.0474 2.70999 11.781 2.70999 11 1.92894C10.671 1.60001 10.0705 1.44417 9.7416 1.77311L6.05023 5.46448L6.96947 6.38372L10.3024 3.0508C11.5227 4.06937 13.3057 4.06937 14.526 3.0508L16.9492 5.47399C15.9306 6.69432 15.9306 8.47728 16.9492 9.69761L13.6163 13.0305L14.5355 13.9498Z" fill="white"/>
<path fill-rule="evenodd" clip-rule="evenodd" d="M6.05024 5.46447L1.10049 10.4142C0.319444 11.1953 0.319444 12.4616 1.10049 13.2426L6.75735 18.8995C7.5384 19.6805 8.80473 19.6805 9.58577 18.8995L14.5355 13.9498L13.6163 13.0305L8.66654 17.9803C8.39317 18.2536 7.94995 18.2536 7.67659 17.9803L2.01973 12.3234C1.74636 12.05 1.74636 11.6068 2.01973 11.3335L6.96948 6.38371L6.05024 5.46447Z" fill="white"/>
</svg>
