<svg width="16" height="16" viewBox="0 0 16 16" fill="none" xmlns="http://www.w3.org/2000/svg">
<path d="M10.6666 13.3315C9.88216 13.7567 8.97136 14 7.99996 14C5.05444 14 2.66663 11.7626 2.66663 9.00267C2.66663 8.24847 2.76607 7.5416 2.93681 6.8856M12.784 11.2141C13.1357 10.5474 13.3333 9.79667 13.3333 9.00267C13.3333 6.50838 11.9769 4.55874 11.0413 3.62957C10.8678 3.45723 10.5788 3.53337 10.4808 3.75525C9.98276 4.88193 8.94516 6.50405 7.61903 6.50405C6.79829 6.61391 5.54455 5.91229 6.55651 2.43245C6.64763 2.11912 6.31311 1.86742 6.05759 2.07693C5.39553 2.61977 4.63364 3.41373 3.99996 4.43161" stroke="#292A43" stroke-width="1.3" stroke-linecap="round"/>
</svg>
