<svg width="16" height="16" viewBox="0 0 16 16" fill="none" xmlns="http://www.w3.org/2000/svg">
<g clip-path="url(#clip0_11242_162586)">
<circle cx="8" cy="8" r="3.35" stroke="#292A43" stroke-width="1.3"/>
<circle cx="8" cy="8" r="2" fill="#292A43"/>
<path d="M1.5 4.75002V3.12501C1.5 2.69403 1.6712 2.2807 1.97595 1.97595C2.2807 1.67121 2.69402 1.5 3.125 1.5H4.75" stroke="#292A43" stroke-width="1.3" stroke-linecap="round" stroke-linejoin="round"/>
<path d="M1.5 11.25V12.875C1.5 13.306 1.6712 13.7193 1.97595 14.024C2.2807 14.3288 2.69402 14.5 3.125 14.5H4.75" stroke="#292A43" stroke-width="1.3" stroke-linecap="round" stroke-linejoin="round"/>
<path d="M11.25 1.5H12.875C13.306 1.5 13.7193 1.67121 14.024 1.97595C14.3288 2.2807 14.5 2.69403 14.5 3.12501V4.75002" stroke="#292A43" stroke-width="1.3" stroke-linecap="round" stroke-linejoin="round"/>
<path d="M11.25 14.5H12.875C13.306 14.5 13.7193 14.3288 14.024 14.024C14.3288 13.7193 14.5 13.306 14.5 12.875V11.25" stroke="#292A43" stroke-width="1.3" stroke-linecap="round" stroke-linejoin="round"/>
</g>
<defs>
<clipPath id="clip0_11242_162586">
<rect width="16" height="16" fill="white"/>
</clipPath>
</defs>
</svg>
