<svg width="16" height="16" viewBox="0 0 16 16" fill="none" xmlns="http://www.w3.org/2000/svg">
<g clip-path="url(#clip0_2084_209618)">
<path fill-rule="evenodd" clip-rule="evenodd" d="M8.0001 2.64998C5.04537 2.64998 2.6501 5.04525 2.6501 7.99998C2.6501 10.9547 5.04537 13.35 8.0001 13.35C9.97954 13.35 11.7087 12.2753 12.6348 10.6745C12.8145 10.3638 13.2121 10.2576 13.5229 10.4373C13.8336 10.6171 13.9398 11.0147 13.76 11.3254C12.6112 13.3114 10.4624 14.65 8.0001 14.65C4.3274 14.65 1.3501 11.6727 1.3501 7.99998C1.3501 4.32728 4.3274 1.34998 8.0001 1.34998C11.0996 1.34998 13.7024 3.46991 14.4406 6.33796C14.53 6.68561 14.3207 7.03998 13.9731 7.12946C13.6254 7.21894 13.2711 7.00965 13.1816 6.66199C12.5876 4.35436 10.4921 2.64998 8.0001 2.64998Z" fill="#292A43"/>
<path fill-rule="evenodd" clip-rule="evenodd" d="M14.0142 9.84994C14.3732 9.84994 14.6642 10.141 14.6642 10.4999L14.6642 14C14.6642 14.3589 14.3732 14.65 14.0142 14.65C13.6552 14.65 13.3642 14.3589 13.3642 14L13.3642 11.1499L10.5 11.1499C10.141 11.1499 9.84999 10.8589 9.84999 10.4999C9.84999 10.141 10.141 9.84994 10.5 9.84994L14.0142 9.84994Z" fill="#292A43"/>
</g>
<defs>
<clipPath id="clip0_2084_209618">
<rect width="16" height="16" fill="white"/>
</clipPath>
</defs>
</svg>
