<svg width="16" height="16" viewBox="0 0 16 16" fill="none" xmlns="http://www.w3.org/2000/svg">
<path fill-rule="evenodd" clip-rule="evenodd" d="M0.350098 5.99998C0.350098 3.43185 2.43197 1.34998 5.0001 1.34998H6.0001C6.35908 1.34998 6.6501 1.64099 6.6501 1.99998C6.6501 2.35896 6.35908 2.64998 6.0001 2.64998H5.0001C3.14994 2.64998 1.6501 4.14982 1.6501 5.99998C1.6501 7.85013 3.14994 9.34998 5.0001 9.34998H15.0001C15.3591 9.34998 15.6501 9.64099 15.6501 9.99998C15.6501 10.359 15.3591 10.65 15.0001 10.65H5.0001C2.43197 10.65 0.350098 8.5681 0.350098 5.99998Z" fill="#292A43"/>
<path fill-rule="evenodd" clip-rule="evenodd" d="M10.5405 5.54036C10.7943 5.28652 11.2059 5.28652 11.4597 5.54036L15.4597 9.54036C15.7136 9.7942 15.7136 10.2058 15.4597 10.4596L11.4597 14.4596C11.2059 14.7134 10.7943 14.7134 10.5405 14.4596C10.2866 14.2058 10.2866 13.7942 10.5405 13.5404L14.0809 9.99998L10.5405 6.45959C10.2866 6.20575 10.2866 5.7942 10.5405 5.54036Z" fill="#292A43"/>
</svg>
