<svg width="16" height="16" viewBox="0 0 16 16" fill="none" xmlns="http://www.w3.org/2000/svg">
<path d="M5.12269 3.01755H3.70514C3.32919 3.01755 2.96863 3.1669 2.70279 3.43274C2.43695 3.69858 2.2876 4.05914 2.2876 4.43509V12.9404C2.2876 13.3163 2.43695 13.6769 2.70279 13.9427C2.96863 14.2086 3.32919 14.3579 3.70514 14.3579H7.74301" stroke="#292A43" stroke-width="1.3" stroke-linecap="round" stroke-linejoin="round"/>
<path d="M12.2104 9.39648V12.2316H15.0455" stroke="#292A43" stroke-width="1.3" stroke-linecap="round" stroke-linejoin="round"/>
<path d="M12.2106 7.27018V4.43509C12.2106 4.05914 12.0612 3.69858 11.7954 3.43274C11.5295 3.1669 11.169 3.01755 10.793 3.01755H9.37549" stroke="#292A43" stroke-width="1.3" stroke-linecap="round" stroke-linejoin="round"/>
<path d="M7.95789 1.60001H6.54035C5.75746 1.60001 5.1228 2.23466 5.1228 3.01755C5.1228 3.80044 5.75746 4.43509 6.54035 4.43509H7.95789C8.74078 4.43509 9.37543 3.80044 9.37543 3.01755C9.37543 2.23466 8.74078 1.60001 7.95789 1.60001Z" stroke="#292A43" stroke-width="1.3" stroke-linecap="round" stroke-linejoin="round"/>
<path d="M12.2106 15.0667C13.7764 15.0667 15.0457 13.7973 15.0457 12.2316C15.0457 10.6658 13.7764 9.39648 12.2106 9.39648C10.6448 9.39648 9.37549 10.6658 9.37549 12.2316C9.37549 13.7973 10.6448 15.0667 12.2106 15.0667Z" stroke="#292A43" stroke-width="1.3" stroke-linecap="round" stroke-linejoin="round"/>
<path d="M5.1228 7.27017H7.95789" stroke="#292A43" stroke-width="1.3" stroke-linecap="round" stroke-linejoin="round"/>
<path d="M5.1228 10.1053H7.24912" stroke="#292A43" stroke-width="1.3" stroke-linecap="round" stroke-linejoin="round"/>
</svg>
