<svg width="16" height="16" viewBox="0 0 16 16" fill="none" xmlns="http://www.w3.org/2000/svg">
<path d="M5.99992 3.33334H4.66659C4.31296 3.33334 3.97382 3.47382 3.72378 3.72387C3.47373 3.97392 3.33325 4.31305 3.33325 4.66668V12.6667C3.33325 13.0203 3.47373 13.3594 3.72378 13.6095C3.97382 13.8595 4.31296 14 4.66659 14H11.3333C11.6869 14 12.026 13.8595 12.2761 13.6095C12.5261 13.3594 12.6666 13.0203 12.6666 12.6667V4.66668C12.6666 4.31305 12.5261 3.97392 12.2761 3.72387C12.026 3.47382 11.6869 3.33334 11.3333 3.33334H9.99992" stroke="#292A43" stroke-width="1.3" stroke-linecap="round" stroke-linejoin="round"/>
<path d="M8.66667 2H7.33333C6.59695 2 6 2.59695 6 3.33333C6 4.06971 6.59695 4.66667 7.33333 4.66667H8.66667C9.40305 4.66667 10 4.06971 10 3.33333C10 2.59695 9.40305 2 8.66667 2Z" stroke="#292A43" stroke-width="1.3" stroke-linecap="round" stroke-linejoin="round"/>
<path d="M6 11.3333V8" stroke="#292A43" stroke-width="1.3" stroke-linecap="round" stroke-linejoin="round"/>
<path d="M8 11.3333V10.6667" stroke="#292A43" stroke-width="1.3" stroke-linecap="round" stroke-linejoin="round"/>
<path d="M10 11.3333V9.33334" stroke="#292A43" stroke-width="1.3" stroke-linecap="round" stroke-linejoin="round"/>
</svg>
