<svg width="16" height="16" viewBox="0 0 16 16" fill="none" xmlns="http://www.w3.org/2000/svg">
<path fill-rule="evenodd" clip-rule="evenodd" d="M7.90155 2.39647C8.05652 2.33448 8.22939 2.33448 8.38436 2.39647L15.5272 5.25361C15.774 5.35232 15.9358 5.59133 15.9358 5.85712V10.1428C15.9358 10.5018 15.6448 10.7928 15.2858 10.7928C14.9268 10.7928 14.6358 10.5018 14.6358 10.1428V6.81719L8.38436 9.31777C8.22939 9.37976 8.05652 9.37976 7.90155 9.31777L0.758694 6.46063C0.511916 6.36192 0.350098 6.12291 0.350098 5.85712C0.350098 5.59133 0.511916 5.35232 0.758694 5.25361L7.90155 2.39647ZM13.5356 5.85712L8.14296 8.01419L2.75028 5.85712L8.14296 3.70005L13.5356 5.85712Z" fill="#292A43"/>
<path fill-rule="evenodd" clip-rule="evenodd" d="M3.85752 6.34991C4.2165 6.34991 4.50752 6.64093 4.50752 6.99991V10.8571C4.50752 11.0545 4.68028 11.4293 5.40347 11.7909C6.09624 12.1373 7.08149 12.3499 8.14323 12.3499C9.20498 12.3499 10.1902 12.1373 10.883 11.7909C11.6062 11.4293 11.7789 11.0545 11.7789 10.8571V6.99991C11.7789 6.64093 12.07 6.34991 12.4289 6.34991C12.7879 6.34991 13.0789 6.64093 13.0789 6.99991V10.8571C13.0789 11.7963 12.3487 12.5115 11.4644 12.9537C10.5497 13.411 9.35477 13.6499 8.14323 13.6499C6.9317 13.6499 5.73677 13.411 4.82209 12.9537C3.93781 12.5115 3.20752 11.7963 3.20752 10.8571V6.99991C3.20752 6.64093 3.49853 6.34991 3.85752 6.34991Z" fill="#292A43"/>
</svg>
