<svg width="16" height="16" viewBox="0 0 16 16" fill="none" xmlns="http://www.w3.org/2000/svg">
<path d="M3 1H1V3" stroke="#292A43" stroke-width="1.3" stroke-linecap="round" stroke-linejoin="round"/>
<path d="M3 15H1V13" stroke="#292A43" stroke-width="1.3" stroke-linecap="round" stroke-linejoin="round"/>
<path d="M13 1H15V3" stroke="#292A43" stroke-width="1.3" stroke-linecap="round" stroke-linejoin="round"/>
<path d="M13 15H15V13" stroke="#292A43" stroke-width="1.3" stroke-linecap="round" stroke-linejoin="round"/>
<path d="M4.11111 5.14062H4.66667C4.96135 5.14062 5.24397 5.02539 5.45234 4.82027C5.66071 4.61516 5.77778 4.33696 5.77778 4.04688C5.77778 3.90183 5.83631 3.76274 5.9405 3.66018C6.04468 3.55762 6.18599 3.5 6.33333 3.5H9.66667C9.81401 3.5 9.95532 3.55762 10.0595 3.66018C10.1637 3.76274 10.2222 3.90183 10.2222 4.04688C10.2222 4.33696 10.3393 4.61516 10.5477 4.82027C10.756 5.02539 11.0386 5.14062 11.3333 5.14062H11.8889C12.1836 5.14062 12.4662 5.25586 12.6746 5.46098C12.8829 5.66609 13 5.94429 13 6.23438V11.1562C13 11.4463 12.8829 11.7245 12.6746 11.9296C12.4662 12.1348 12.1836 12.25 11.8889 12.25H4.11111C3.81643 12.25 3.53381 12.1348 3.32544 11.9296C3.11706 11.7245 3 11.4463 3 11.1562V6.23438C3 5.94429 3.11706 5.66609 3.32544 5.46098C3.53381 5.25586 3.81643 5.14062 4.11111 5.14062" stroke="#292A43" stroke-width="1.3" stroke-linecap="round" stroke-linejoin="round"/>
<path d="M8 9.5C8.69036 9.5 9.25 8.94036 9.25 8.25C9.25 7.55964 8.69036 7 8 7C7.30964 7 6.75 7.55964 6.75 8.25C6.75 8.94036 7.30964 9.5 8 9.5Z" stroke="#292A43" stroke-width="1.3" stroke-linecap="round" stroke-linejoin="round"/>
</svg>
