<svg width="16" height="16" viewBox="0 0 16 16" fill="none" xmlns="http://www.w3.org/2000/svg">
<path fill-rule="evenodd" clip-rule="evenodd" d="M1.77788 2.42778C1.74399 2.42778 1.71149 2.44124 1.68752 2.4652C1.66356 2.48917 1.6501 2.52167 1.6501 2.55556V10.3334C1.6501 10.3673 1.66356 10.3998 1.68752 10.4237C1.71149 10.4477 1.74399 10.4611 1.77788 10.4611H14.2224C14.2563 10.4611 14.2888 10.4477 14.3127 10.4237C14.3367 10.3998 14.3501 10.3673 14.3501 10.3334V8.00002C14.3501 7.64104 14.6412 7.35002 15.0001 7.35002C15.3591 7.35002 15.6501 7.64104 15.6501 8.00002V10.3334C15.6501 10.712 15.4997 11.0752 15.232 11.343C14.9642 11.6107 14.601 11.7611 14.2224 11.7611H1.77788C1.39921 11.7611 1.03605 11.6107 0.768285 11.343C0.500524 11.0752 0.350098 10.712 0.350098 10.3334V2.55556C0.350098 2.17689 0.500524 1.81373 0.768285 1.54596C1.03605 1.2782 1.39921 1.12778 1.77788 1.12778H8.7779C9.13689 1.12778 9.4279 1.41879 9.4279 1.77778C9.4279 2.13676 9.13689 2.42778 8.7779 2.42778H1.77788Z" fill="#292A43"/>
<path fill-rule="evenodd" clip-rule="evenodd" d="M3.46118 14.2223C3.46118 13.8633 3.7522 13.5723 4.11118 13.5723H11.889C12.248 13.5723 12.539 13.8633 12.539 14.2223C12.539 14.5813 12.248 14.8723 11.889 14.8723H4.11118C3.7522 14.8723 3.46118 14.5813 3.46118 14.2223Z" fill="#292A43"/>
<path fill-rule="evenodd" clip-rule="evenodd" d="M5.66685 10.4612C6.02583 10.4612 6.31685 10.7522 6.31685 11.1112V14.2223C6.31685 14.5813 6.02583 14.8723 5.66685 14.8723C5.30786 14.8723 5.01685 14.5813 5.01685 14.2223V11.1112C5.01685 10.7522 5.30786 10.4612 5.66685 10.4612Z" fill="#292A43"/>
<path fill-rule="evenodd" clip-rule="evenodd" d="M10.3333 10.4612C10.6923 10.4612 10.9833 10.7522 10.9833 11.1112V14.2223C10.9833 14.5813 10.6923 14.8723 10.3333 14.8723C9.97436 14.8723 9.68335 14.5813 9.68335 14.2223V11.1112C9.68335 10.7522 9.97436 10.4612 10.3333 10.4612Z" fill="#292A43"/>
<path fill-rule="evenodd" clip-rule="evenodd" d="M11.239 1.77778C11.239 1.41879 11.53 1.12778 11.889 1.12778H14.0001C14.9114 1.12778 15.6501 1.86651 15.6501 2.77778V4.8889C15.6501 5.24788 15.3591 5.5389 15.0001 5.5389C14.6411 5.5389 14.3501 5.24788 14.3501 4.8889V2.77778C14.3501 2.58448 14.1934 2.42778 14.0001 2.42778H11.889C11.53 2.42778 11.239 2.13676 11.239 1.77778Z" fill="#292A43"/>
<path fill-rule="evenodd" clip-rule="evenodd" d="M14.9597 1.81813C15.2136 2.07197 15.2136 2.48352 14.9597 2.73737L11.5708 6.1263C11.317 6.38014 10.9054 6.38014 10.6516 6.1263C10.3977 5.87246 10.3977 5.4609 10.6516 5.20706L14.0405 1.81813C14.2943 1.56429 14.7059 1.56429 14.9597 1.81813Z" fill="#292A43"/>
</svg>
