<svg width="16" height="16" viewBox="0 0 16 16" fill="none" xmlns="http://www.w3.org/2000/svg">
<path fill-rule="evenodd" clip-rule="evenodd" d="M2.6501 6.66664C2.6501 4.4483 4.44842 2.64998 6.66676 2.64998C8.88511 2.64998 10.6834 4.4483 10.6834 6.66664C10.6834 8.88499 8.88511 10.6833 6.66676 10.6833C4.44842 10.6833 2.6501 8.88499 2.6501 6.66664ZM6.66676 1.34998C3.73045 1.34998 1.3501 3.73033 1.3501 6.66664C1.3501 9.60296 3.73045 11.9833 6.66676 11.9833C7.90066 11.9833 9.03639 11.563 9.93856 10.8577L13.5405 14.4596C13.7943 14.7134 14.2059 14.7134 14.4597 14.4596C14.7136 14.2058 14.7136 13.7942 14.4597 13.5404L10.8578 9.93844C11.5631 9.03627 11.9834 7.90054 11.9834 6.66664C11.9834 3.73033 9.60308 1.34998 6.66676 1.34998Z" fill="#292A43"/>
</svg>
