<svg width="28" height="28" viewBox="0 0 28 28" fill="none" xmlns="http://www.w3.org/2000/svg">
<path d="M14.5351 8.22447C14.3941 8.08088 14.2013 8 14 8C13.7987 8 13.6059 8.08088 13.4649 8.22447L10.9649 10.7699C10.6747 11.0654 10.6789 11.5403 10.9745 11.8305C11.27 12.1208 11.7448 12.1165 12.0351 11.821L13.25 10.584V15.75C13.25 16.1642 13.5858 16.5 14 16.5C14.4142 16.5 14.75 16.1642 14.75 15.75V10.584L15.9649 11.821C16.2552 12.1165 16.73 12.1208 17.0255 11.8305C17.3211 11.5403 17.3253 11.0654 17.0351 10.7699L14.5351 8.22447Z" fill="currentColor"/>
<path fill-rule="evenodd" clip-rule="evenodd" d="M7.3 4.5C4.92518 4.5 3 6.42518 3 8.8V15.2C3 17.5748 4.92518 19.5 7.3 19.5H10V23.5H7.75C7.33579 23.5 7 23.8358 7 24.25C7 24.6642 7.33579 25 7.75 25H20.25C20.6642 25 21 24.6642 21 24.25C21 23.8358 20.6642 23.5 20.25 23.5H18V19.5H20.7C23.0748 19.5 25 17.5748 25 15.2V8.8C25 6.42518 23.0748 4.5 20.7 4.5H7.3ZM20.7 6H7.3C5.7536 6 4.5 7.2536 4.5 8.8V15.2C4.5 16.7464 5.7536 18 7.3 18H20.7C22.2464 18 23.5 16.7464 23.5 15.2V8.8C23.5 7.2536 22.2464 6 20.7 6ZM16.5 19.5V23.5H11.5V19.5H16.5Z" fill="currentColor"/>
</svg>
