<svg width="16" height="19" viewBox="0 0 16 19" fill="none" xmlns="http://www.w3.org/2000/svg">
<path fill-rule="evenodd" clip-rule="evenodd" d="M4.4555 4.83623C5.52309 4.00726 6.87715 3.57506 8.26536 3.63667C9.65358 3.69827 10.9579 4.24833 11.9387 5.16398C12.9176 6.07781 13.5018 7.28562 13.6152 8.55228C13.7284 9.81721 13.3682 11.0938 12.5756 12.1462C11.7805 13.202 10.6022 13.96 9.24823 14.2536C7.89431 14.5471 6.47933 14.3508 5.2713 13.7089C5.14394 13.6412 5.00051 13.622 4.86261 13.6541L2.69906 14.158L3.23616 12.3944C3.30345 12.1735 3.27323 11.9296 3.1548 11.7379C2.4684 10.6268 2.228 9.32796 2.45949 8.07625C2.69158 6.82127 3.38938 5.66405 4.4555 4.83623ZM1.85633 15.8504C1.79688 15.8655 1.73517 15.8712 1.67291 15.8667C1.59314 15.8611 1.51617 15.8388 1.44535 15.8025C1.35945 15.7587 1.28553 15.6957 1.22626 15.6197C1.16682 15.5438 1.1207 15.4531 1.09299 15.3514C1.06999 15.2677 1.06017 15.1788 1.06529 15.0889C1.06921 15.0188 1.08209 14.9505 1.10289 14.8859L1.90338 12.2576C1.16173 10.8982 0.901755 9.31878 1.18684 7.77726C1.49382 6.11734 2.40477 4.6493 3.71798 3.62961C5.02971 2.61106 6.66362 2.09921 8.3165 2.17256C9.96935 2.24591 11.5523 2.90062 12.768 4.03555C13.9857 5.17231 14.7579 6.72135 14.9086 8.40522C15.0595 10.0908 14.5734 11.7577 13.5667 13.0944C12.5626 14.4276 11.1112 15.3417 9.49382 15.6924C7.95017 16.0271 6.33517 15.8319 4.91864 15.1373L1.85633 15.8504ZM8.74988 9.01682C8.74988 8.54996 8.41409 8.17149 7.99988 8.17149C7.58566 8.17149 7.24988 8.54996 7.24988 9.01682V9.02465C7.24988 9.49151 7.58566 9.86998 7.99988 9.86998C8.41409 9.86998 8.74988 9.49151 8.74988 9.02465V9.01682ZM5.33325 8.17149C5.74747 8.17149 6.08325 8.54996 6.08325 9.01682V9.02465C6.08325 9.49151 5.74747 9.86998 5.33325 9.86998C4.91904 9.86998 4.58325 9.49151 4.58325 9.02465V9.01682C4.58325 8.54996 4.91904 8.17149 5.33325 8.17149ZM11.4165 9.01682C11.4165 8.54996 11.0807 8.17149 10.6665 8.17149C10.2523 8.17149 9.9165 8.54996 9.9165 9.01682V9.02465C9.9165 9.49151 10.2523 9.86998 10.6665 9.86998C11.0807 9.86998 11.4165 9.49151 11.4165 9.02465V9.01682Z" fill="#292A43"/>
</svg>
