<svg width="40" height="41" viewBox="0 0 40 41" fill="none" xmlns="http://www.w3.org/2000/svg">
<path d="M30.6667 12.4677C32.0812 12.4677 33.4377 13.1007 34.4379 14.2274C35.4381 15.3541 36 16.8823 36 18.4757C36 20.0692 35.4381 21.5974 34.4379 22.7241C33.4377 23.8508 32.0812 24.4838 30.6667 24.4838M16.4447 12.4677V34.4973C16.4447 35.0285 16.2574 35.5378 15.924 35.9134C15.5906 36.289 15.1384 36.5 14.6669 36.5H12.8891C12.4176 36.5 11.9654 36.289 11.632 35.9134C11.2986 35.5378 11.1113 35.0285 11.1113 34.4973V24.4838M20 12.4676L28.0427 4.91749C28.2764 4.69821 28.5607 4.55851 28.8624 4.51476C29.164 4.47101 29.4705 4.52502 29.7459 4.67046C30.0212 4.8159 30.2541 5.04675 30.4172 5.33595C30.5803 5.62515 30.6668 5.96073 30.6667 6.30335V30.6481C30.6668 30.9907 30.5803 31.3263 30.4172 31.6155C30.2541 31.9047 30.0212 32.1356 29.7459 32.281C29.4705 32.4264 29.164 32.4805 28.8624 32.4367C28.5607 32.393 28.2764 32.2533 28.0427 32.034L20 24.4838H5.77778C5.30628 24.4838 4.8541 24.2728 4.5207 23.8972C4.1873 23.5217 4 23.0123 4 22.4811V14.4703C4 13.9392 4.1873 13.4298 4.5207 13.0542C4.8541 12.6786 5.30628 12.4676 5.77778 12.4676H20Z" stroke="currentColor" stroke-width="2.8" stroke-linecap="round" stroke-linejoin="round"/>
</svg>
