<svg width="16" height="16" viewBox="0 0 16 16" fill="none" xmlns="http://www.w3.org/2000/svg">
<path id="Star 3 (Stroke)" fill-rule="evenodd" clip-rule="evenodd" d="M5.6755 5.39381C5.62468 5.52268 5.52268 5.62468 5.39381 5.6755L0.679348 7.53486C0.257275 7.70132 0.257274 8.29866 0.679347 8.46512L5.39381 10.3245C5.52268 10.3753 5.62468 10.4773 5.6755 10.6062L7.53486 15.3206C7.70132 15.7427 8.29866 15.7427 8.46512 15.3206L10.3245 10.6062C10.3753 10.4773 10.4773 10.3753 10.6062 10.3245L15.3206 8.46512C15.7427 8.29866 15.7427 7.70132 15.3206 7.53486L10.6062 5.6755C10.4773 5.62468 10.3753 5.52268 10.3245 5.39381L8.46512 0.679348C8.29866 0.257275 7.70132 0.257274 7.53486 0.679347L5.6755 5.39381ZM7.99999 3.04328L6.88484 5.87077C6.70188 6.33467 6.33467 6.70188 5.87077 6.88484L3.04328 7.99999L5.87077 9.11514C6.33467 9.2981 6.70188 9.66531 6.88484 10.1292L7.99999 12.9567L9.11514 10.1292C9.2981 9.6653 9.66531 9.2981 10.1292 9.11514L12.9567 7.99999L10.1292 6.88484C9.66531 6.70188 9.2981 6.33467 9.11514 5.87077L7.99999 3.04328Z" fill="#292A43"/>
</svg>
