<svg width="16" height="16" viewBox="0 0 16 16" fill="none" xmlns="http://www.w3.org/2000/svg">
<g clip-path="url(#clip0_16303_3199)">
<path d="M13.0724 5.48643L13.8393 4.71953C14.059 4.4998 14.059 4.14385 13.8393 3.92412C13.6196 3.70439 13.2636 3.70439 13.0439 3.92412L12.277 4.69102C11.3261 3.89634 10.1368 3.38032 8.8335 3.26342V2.74247H9.3493C9.8082 2.74247 10.1815 2.3692 10.1815 1.91052V0.832215C10.1815 0.373309 9.80823 0 9.3493 0H7.19269C6.73379 0 6.36048 0.373277 6.36048 0.832215V1.91052C6.36048 2.3692 6.73376 2.74247 7.19269 2.74247H7.70849V3.26342C6.40506 3.38031 5.21577 3.89634 4.26501 4.69102L3.49811 3.92412C3.27838 3.70439 2.92243 3.70439 2.7027 3.92412C2.48297 4.14384 2.48297 4.4998 2.7027 4.71953L3.4696 5.48643C2.56169 6.57277 2.01349 7.96935 2.01349 9.49241C2.01349 12.943 4.82047 15.75 8.27109 15.75C11.7217 15.75 14.5287 12.943 14.5287 9.49241C14.5287 7.96925 13.9805 6.57267 13.0726 5.48643H13.0724ZM8.27087 14.625C5.44077 14.625 3.13827 12.3225 3.13827 9.49241C3.13827 6.66232 5.44077 4.35981 8.27087 4.35981C11.101 4.35981 13.4035 6.66232 13.4035 9.49241C13.4035 12.3225 11.101 14.625 8.27087 14.625ZM7.48536 1.12494H9.05647V1.61737H7.48536V1.12494Z" fill="#FF8A00"/>
<path d="M10.5371 8.9299H8.83339V7.126C8.83339 6.81537 8.58153 6.5635 8.27089 6.5635C7.96026 6.5635 7.70839 6.81537 7.70839 7.126V9.4924C7.70839 9.80304 7.96026 10.0549 8.27089 10.0549H10.5371C10.8477 10.0549 11.0996 9.80304 11.0996 9.4924C11.0996 9.18177 10.8477 8.9299 10.5371 8.9299Z" fill="#FF8A00"/>
</g>
<defs>
<clipPath id="clip0_16303_3199">
<rect width="16" height="16" fill="white"/>
</clipPath>
</defs>
</svg>
