<svg width="20" height="20" viewBox="0 0 20 20" fill="none" xmlns="http://www.w3.org/2000/svg">
<g clip-path="url(#clip0_963_204139)">
<path fill-rule="evenodd" clip-rule="evenodd" d="M10.2415 3.3965C10.0865 3.33451 9.91366 3.33451 9.75869 3.3965L0.758694 6.9965C0.511916 7.09521 0.350098 7.33422 0.350098 7.60001C0.350098 7.86579 0.511916 8.1048 0.758694 8.20352L4.3501 9.64008V14.1429C4.3501 15.2264 5.09764 16.1307 6.14207 16.7275C7.19803 17.3309 8.58649 17.65 10.0001 17.65C11.4137 17.65 12.8022 17.3309 13.8581 16.7275C14.9026 16.1307 15.6501 15.2264 15.6501 14.1429V9.64008L18.3501 8.56008V13C18.3501 13.359 18.6411 13.65 19.0001 13.65C19.3591 13.65 19.6501 13.359 19.6501 13V7.60001C19.6501 7.33422 19.4883 7.09521 19.2415 6.9965L10.2415 3.3965ZM14.3501 10.1601L10.2415 11.8035C10.0865 11.8655 9.91366 11.8655 9.75869 11.8035L5.6501 10.1601V14.1429C5.6501 14.5748 5.95613 15.124 6.78705 15.5988C7.60646 16.067 8.76154 16.35 10.0001 16.35C11.2387 16.35 12.3937 16.067 13.2131 15.5988C14.0441 15.124 14.3501 14.5748 14.3501 14.1429V10.1601ZM10.0001 10.4999L17.2499 7.60001L10.0001 4.70008L2.75028 7.60001L10.0001 10.4999Z" fill="#292A43"/>
</g>
<defs>
<clipPath id="clip0_963_204139">
<rect width="20" height="20" fill="white"/>
</clipPath>
</defs>
</svg>
