<svg width="24" height="24" viewBox="0 0 24 24" fill="none" xmlns="http://www.w3.org/2000/svg">
<path fill-rule="evenodd" clip-rule="evenodd" d="M12.014 9.83574C10.8108 9.83574 9.83541 10.8111 9.83541 12.0143C9.83541 13.2175 10.8108 14.1929 12.014 14.1929C13.2172 14.1929 14.1925 13.2175 14.1925 12.0143C14.1925 10.8111 13.2172 9.83574 12.014 9.83574ZM11.1068 12.0143C11.1068 11.5133 11.513 11.1072 12.014 11.1072C12.515 11.1072 12.9211 11.5133 12.9211 12.0143C12.9211 12.5153 12.515 12.9215 12.014 12.9215C11.513 12.9215 11.1068 12.5153 11.1068 12.0143Z" fill="#292A43"/>
<path fill-rule="evenodd" clip-rule="evenodd" d="M10.4714 6.75C10.1664 6.75 9.87392 6.87116 9.65826 7.08683C9.44259 7.30249 9.32143 7.595 9.32143 7.9C9.32143 8.00419 9.28004 8.10412 9.20636 8.17779C9.13269 8.25147 9.03276 8.29286 8.92857 8.29286H8.41429C7.97289 8.29286 7.54957 8.4682 7.23746 8.78032C6.92534 9.09243 6.75 9.51575 6.75 9.95714V14.5857C6.75 15.0271 6.92534 15.4504 7.23746 15.7625C7.54957 16.0747 7.97289 16.25 8.41429 16.25H15.6143C16.0557 16.25 16.479 16.0747 16.7911 15.7625C17.1032 15.4504 17.2786 15.0271 17.2786 14.5857V9.95714C17.2786 9.51575 17.1032 9.09243 16.7911 8.78031C16.479 8.4682 16.0557 8.29286 15.6143 8.29286H15.1C14.9958 8.29286 14.8959 8.25147 14.8222 8.17779C14.7485 8.10412 14.7071 8.00419 14.7071 7.9C14.7071 7.595 14.586 7.30249 14.3703 7.08683C14.1546 6.87116 13.8621 6.75 13.5571 6.75H10.4714ZM10.1054 9.07683C10.3888 8.79346 10.5594 8.41843 10.5884 8.02143H13.4401C13.4692 8.41843 13.6398 8.79346 13.9232 9.07683C14.2353 9.38894 14.6586 9.56429 15.1 9.56429H15.6143C15.7185 9.56429 15.8184 9.60568 15.8921 9.67935C15.9658 9.75303 16.0071 9.85295 16.0071 9.95714V14.5857C16.0071 14.6899 15.9658 14.7898 15.8921 14.8635C15.8184 14.9372 15.7185 14.9786 15.6143 14.9786H8.41429C8.31009 14.9786 8.21017 14.9372 8.13649 14.8635C8.06282 14.7898 8.02143 14.6899 8.02143 14.5857V9.95714C8.02143 9.85295 8.06282 9.75303 8.13649 9.67935C8.21017 9.60568 8.31009 9.56429 8.41429 9.56429H8.92857C9.36997 9.56429 9.79328 9.38894 10.1054 9.07683Z" fill="#292A43"/>
<path d="M16.3246 2.98326C16.6234 3.12655 16.7271 3.49361 16.5661 3.78326C16.4052 4.07292 16.0406 4.17523 15.7407 4.03438C14.5767 3.4878 13.3046 3.20191 12.0138 3.19992C10.5226 3.19762 9.05532 3.5743 7.74962 4.29459C6.44393 5.01488 5.34268 6.05516 4.54927 7.31777C3.90851 8.33746 3.4855 9.47514 3.30297 10.6594L4.48671 9.75105C4.70578 9.58294 5.01966 9.62425 5.18777 9.84332C5.35588 10.0624 5.31457 10.3763 5.0955 10.5444L2.87417 12.249C2.56747 12.4844 2.12804 12.4265 1.89269 12.1198L0.188076 9.89848C0.0199636 9.67941 0.0612749 9.36554 0.280348 9.19742C0.49942 9.02931 0.813296 9.07062 0.981408 9.28969L2.08202 10.7239C2.26657 9.28936 2.76059 7.90884 3.53322 6.6793C4.43482 5.24452 5.68624 4.06238 7.16999 3.24387C8.65374 2.42535 10.3212 1.99731 12.0157 1.99992C13.5099 2.00222 14.9819 2.33929 16.3246 2.98326Z" fill="#292A43"/>
<path d="M23.0188 14.7103C23.187 14.9294 23.5008 14.9707 23.7199 14.8026C23.939 14.6345 23.9803 14.3206 23.8122 14.1015L22.1076 11.8802C21.8722 11.5735 21.4328 11.5156 21.1261 11.751L18.9048 13.4556C18.6857 13.6237 18.6444 13.9376 18.8125 14.1567C18.9806 14.3757 19.2945 14.417 19.5135 14.2489L20.6973 13.3406C20.5148 14.5248 20.0918 15.6625 19.451 16.6822C18.6576 17.9448 17.5563 18.9851 16.2506 19.7054C14.9449 20.4257 13.4776 20.8024 11.9864 20.8001C10.6956 20.7981 9.42359 20.5122 8.2596 19.9656C7.95965 19.8247 7.59511 19.9271 7.43416 20.2167C7.2732 20.5064 7.37684 20.8734 7.67563 21.0167C9.01833 21.6607 10.4904 21.9977 11.9846 22C13.6791 22.0027 15.3465 21.5746 16.8303 20.7561C18.314 19.9376 19.5654 18.7555 20.467 17.3207C21.2397 16.0911 21.7337 14.7106 21.9182 13.2761L23.0188 14.7103Z" fill="#292A43"/>
</svg>
