<svg width="21" height="20" viewBox="0 0 21 20" fill="none" xmlns="http://www.w3.org/2000/svg">
<path d="M18.571 1.92896L15.0355 5.46449" stroke="#4A5368" stroke-width="1.3" stroke-linecap="round"/>
<path fill-rule="evenodd" clip-rule="evenodd" d="M15.0356 13.9496L18.7269 10.2583C19.0559 9.92933 18.9 9.32883 18.5711 8.99989C17.7901 8.21884 17.7901 6.95251 18.5711 6.17146C18.9 5.84252 19.0559 5.24202 18.7269 4.91308L15.5868 1.77299C15.2579 1.44405 14.6574 1.59988 14.3285 1.92882C13.5474 2.70987 12.2811 2.70987 11.5 1.92882C11.1711 1.59988 10.5706 1.44405 10.2417 1.77299L6.55029 5.46436L7.46953 6.38359L10.8024 3.05068C12.0228 4.06925 13.8057 4.06925 15.0261 3.05068L17.4493 5.47387C16.4307 6.6942 16.4307 8.47715 17.4492 9.69748L14.1163 13.0304L15.0356 13.9496Z" fill="#4A5368"/>
<path fill-rule="evenodd" clip-rule="evenodd" d="M5.47082 10.8153L5.8297 11.1742L5.59787 11.4061C5.56602 11.4379 5.53851 11.4724 5.51532 11.5089C5.36788 11.741 5.3954 12.0521 5.59787 12.2546L5.69682 12.3535C5.89929 12.556 6.21045 12.5835 6.44247 12.4361C6.47896 12.4129 6.5135 12.3854 6.54535 12.3535L6.77718 12.1217L8.05087 13.3954C8.24109 13.5856 8.5419 13.5978 8.74632 13.4321C8.76035 13.4207 8.77393 13.4085 8.78698 13.3954C8.99026 13.1921 8.99026 12.8626 8.78698 12.6593L7.51329 11.3856L8.13739 10.7615L9.24822 11.8723C9.30319 11.9273 9.35865 11.9804 9.41459 12.0317C9.58466 12.1875 9.75924 12.3262 9.93833 12.4478C9.94102 12.4496 9.94371 12.4514 9.94641 12.4532C10.0384 12.5154 10.1316 12.573 10.226 12.6261C10.2897 12.6619 10.3533 12.6951 10.4169 12.7257C10.5755 12.8019 10.734 12.8619 10.8922 12.9055C11.011 12.9382 11.1296 12.9618 11.2482 12.9762C11.5158 13.004 11.783 12.9832 12.0497 12.9139C12.0637 12.9103 12.0777 12.9065 12.0917 12.9026C12.155 12.8849 12.2183 12.8645 12.2815 12.8413C12.6138 12.7197 12.9151 12.5272 13.1854 12.2638C13.1946 12.2548 13.2038 12.2457 13.213 12.2366L13.253 12.1966C13.57 11.8796 13.7935 11.564 13.9235 11.2499C13.926 11.2438 13.9285 11.2378 13.9309 11.2318C13.9361 11.2189 13.9411 11.2061 13.9459 11.1932C14.0773 10.8659 14.1197 10.5402 14.0733 10.2164C14.0645 10.146 14.052 10.0757 14.0358 10.0057C14.0302 9.98162 14.0242 9.95755 14.0177 9.93351C13.9553 9.7009 13.852 9.47059 13.7076 9.24261C13.6525 9.15175 13.5925 9.06106 13.5277 8.97053C13.5199 8.95959 13.512 8.94865 13.5041 8.93772C13.3418 8.71505 13.1503 8.49335 12.9296 8.27263L11.2547 6.59774C11.0204 6.36343 10.6405 6.36343 10.4062 6.59774L7.97403 9.02991L7.63914 8.69502C7.42262 8.47849 7.07155 8.4785 6.85503 8.69502C6.85391 8.69614 6.8528 8.69726 6.85169 8.69838C6.64648 8.90706 6.63983 9.23783 6.83174 9.45442C6.8392 9.46283 6.84696 9.47108 6.85503 9.47914L7.18991 9.81403L6.56582 10.4381L6.20693 10.0792C6.00366 9.87596 5.67409 9.87596 5.47082 10.0792C5.46577 10.0843 5.46084 10.0894 5.45604 10.0946C5.26767 10.2988 5.27259 10.6171 5.47082 10.8153ZM8.9215 9.97738L9.9915 11.0474C10.0052 11.0611 10.0189 11.0746 10.0327 11.0879C10.194 11.2437 10.3595 11.3722 10.5294 11.4733C10.6186 11.5274 10.7083 11.5725 10.7984 11.6088C10.9002 11.6497 11.0026 11.6793 11.1057 11.6975C11.197 11.7136 11.2883 11.719 11.3794 11.7137C11.3868 11.7133 11.3941 11.7128 11.4015 11.7123C11.4969 11.7049 11.5921 11.6858 11.6873 11.655C11.7345 11.6414 11.7815 11.6243 11.8284 11.6037C11.9788 11.5376 12.1272 11.4354 12.2737 11.2972C12.2872 11.2838 12.3004 11.2703 12.3133 11.2569C12.4893 11.0739 12.6115 10.8975 12.6801 10.7275C12.6817 10.7237 12.6832 10.7199 12.6848 10.7161C12.6882 10.7078 12.6915 10.6995 12.6946 10.6912C12.7313 10.5952 12.7531 10.4997 12.7601 10.4048C12.7607 10.3966 12.7612 10.3884 12.7616 10.3803C12.7649 10.31 12.7601 10.2401 12.7471 10.1704C12.7354 10.0789 12.7109 9.98783 12.6737 9.89735C12.6707 9.89001 12.6676 9.88266 12.6644 9.87532C12.6282 9.79192 12.5811 9.70898 12.5232 9.6265C12.4143 9.45968 12.2722 9.28591 12.097 9.10519C12.0785 9.08606 12.0596 9.06686 12.0403 9.04758L10.9458 7.95308L8.9215 9.97738Z" fill="#4A5368"/>
<path fill-rule="evenodd" clip-rule="evenodd" d="M6.55024 5.46441L1.60049 10.4142C0.819444 11.1952 0.819444 12.4615 1.60049 13.2426L7.25735 18.8994C8.0384 19.6805 9.30473 19.6805 10.0858 18.8994L15.0355 13.9497L14.1163 13.0305L9.16654 17.9802C8.89317 18.2536 8.44995 18.2536 8.17659 17.9802L2.51973 12.3233C2.24636 12.05 2.24636 11.6068 2.51973 11.3334L7.46948 6.38365L6.55024 5.46441Z" fill="#4A5368"/>
</svg>
