<svg width="16" height="16" viewBox="0 0 16 16" fill="none" xmlns="http://www.w3.org/2000/svg">
<path fill-rule="evenodd" clip-rule="evenodd" d="M8.0001 1.65001C6.70223 1.65001 5.6501 2.70214 5.6501 4.00001C5.6501 5.29788 6.70223 6.35001 8.0001 6.35001C9.29797 6.35001 10.3501 5.29788 10.3501 4.00001C10.3501 2.70214 9.29797 1.65001 8.0001 1.65001ZM4.3501 4.00001C4.3501 1.98417 5.98426 0.350006 8.0001 0.350006C10.0159 0.350006 11.6501 1.98417 11.6501 4.00001C11.6501 6.01585 10.0159 7.65001 8.0001 7.65001C5.98426 7.65001 4.3501 6.01585 4.3501 4.00001Z" fill="#292A43"/>
<path fill-rule="evenodd" clip-rule="evenodd" d="M6.0001 9.65001C4.14994 9.65001 2.6501 11.1499 2.6501 13V15C2.6501 15.359 2.35908 15.65 2.0001 15.65C1.64111 15.65 1.3501 15.359 1.3501 15V13C1.3501 10.4319 3.43197 8.35001 6.0001 8.35001H10.0001C12.5682 8.35001 14.6501 10.4319 14.6501 13V15C14.6501 15.359 14.3591 15.65 14.0001 15.65C13.6411 15.65 13.3501 15.359 13.3501 15V13C13.3501 11.1499 11.8503 9.65001 10.0001 9.65001H6.0001Z" fill="#292A43"/>
<path fill-rule="evenodd" clip-rule="evenodd" d="M5.7227 8.58397C5.95247 8.43079 6.2629 8.49288 6.41608 8.72264L7.58403 10.4746C7.78194 10.7714 8.21817 10.7714 8.41608 10.4746L9.58403 8.72264C9.7372 8.49288 10.0476 8.43079 10.2774 8.58397C10.5072 8.73714 10.5693 9.04758 10.4161 9.27734L9.24813 11.0293C8.6544 11.9199 7.34571 11.9199 6.75198 11.0293L5.58403 9.27734C5.43085 9.04758 5.49294 8.73714 5.7227 8.58397Z" fill="#292A43"/>
<path fill-rule="evenodd" clip-rule="evenodd" d="M8.35355 11.1464C8.54882 11.3417 8.54882 11.6583 8.35355 11.8536L7.14645 13.0607C7.05268 13.1544 7 13.2816 7 13.4142V15C7 15.2761 6.77614 15.5 6.5 15.5C6.22386 15.5 6 15.2761 6 15V13.4142C6 13.0164 6.15804 12.6349 6.43934 12.3536L7.64645 11.1464C7.84171 10.9512 8.15829 10.9512 8.35355 11.1464Z" fill="#292A43"/>
<path fill-rule="evenodd" clip-rule="evenodd" d="M7.64645 11.1464C7.45118 11.3417 7.45118 11.6583 7.64645 11.8536L8.85355 13.0607C8.94732 13.1544 9 13.2816 9 13.4142V15C9 15.2761 9.22386 15.5 9.5 15.5C9.77614 15.5 10 15.2761 10 15V13.4142C10 13.0164 9.84196 12.6349 9.56066 12.3536L8.35355 11.1464C8.15829 10.9512 7.84171 10.9512 7.64645 11.1464Z" fill="#292A43"/>
</svg>
