<svg width="20" height="21" viewBox="0 0 20 21" fill="none" xmlns="http://www.w3.org/2000/svg">
<path fill-rule="evenodd" clip-rule="evenodd" d="M7.49993 3.89033C6.01797 3.89033 4.8166 5.0917 4.8166 6.57367C4.8166 8.05563 6.01797 9.257 7.49993 9.257C8.9819 9.257 10.1833 8.05563 10.1833 6.57367C10.1833 5.0917 8.9819 3.89033 7.49993 3.89033ZM3.5166 6.57367C3.5166 4.37373 5.3 2.59033 7.49993 2.59033C9.69987 2.59033 11.4833 4.37373 11.4833 6.57367C11.4833 8.7736 9.69987 10.557 7.49993 10.557C5.3 10.557 3.5166 8.7736 3.5166 6.57367Z" fill="#292A43"/>
<path fill-rule="evenodd" clip-rule="evenodd" d="M5.83343 13.8903C5.12177 13.8903 4.43925 14.173 3.93603 14.6763C3.4328 15.1795 3.1501 15.862 3.1501 16.5737V18.2403C3.1501 18.5993 2.85908 18.8903 2.5001 18.8903C2.14111 18.8903 1.8501 18.5993 1.8501 18.2403V16.5737C1.8501 15.5172 2.26977 14.504 3.01679 13.757C3.76381 13.01 4.77698 12.5903 5.83343 12.5903H9.16676C10.2232 12.5903 11.2364 13.01 11.9834 13.757C12.7304 14.504 13.1501 15.5172 13.1501 16.5737V18.2403C13.1501 18.5993 12.8591 18.8903 12.5001 18.8903C12.1411 18.8903 11.8501 18.5993 11.8501 18.2403V16.5737C11.8501 15.862 11.5674 15.1795 11.0642 14.6763C10.5609 14.173 9.87843 13.8903 9.16676 13.8903H5.83343Z" fill="#292A43"/>
<path fill-rule="evenodd" clip-rule="evenodd" d="M12.7036 3.18742C12.7926 2.83965 13.1467 2.62991 13.4945 2.71896C14.3513 2.93834 15.1108 3.43665 15.6531 4.13534C16.1954 4.83403 16.4898 5.69334 16.4898 6.57781C16.4898 7.46228 16.1954 8.32159 15.6531 9.02028C15.1108 9.71897 14.3513 10.2173 13.4945 10.4367C13.1467 10.5257 12.7926 10.316 12.7036 9.9682C12.6145 9.62044 12.8243 9.26633 13.172 9.17729C13.7492 9.0295 14.2608 8.69382 14.6262 8.22316C14.9915 7.75249 15.1898 7.17362 15.1898 6.57781C15.1898 5.982 14.9915 5.40313 14.6262 4.93246C14.2608 4.4618 13.7492 4.12612 13.172 3.97833C12.8243 3.88929 12.6145 3.53518 12.7036 3.18742Z" fill="#292A43"/>
<path fill-rule="evenodd" clip-rule="evenodd" d="M14.3704 13.203C14.4601 12.8554 14.8147 12.6464 15.1623 12.7361C16.0135 12.9559 16.7682 13.4511 17.3085 14.1446C17.8489 14.8381 18.1447 15.6909 18.1498 16.5701L18.1498 16.5738H18.1498V18.2405C18.1498 18.5995 17.8588 18.8905 17.4998 18.8905C17.1408 18.8905 16.8498 18.5995 16.8498 18.2405V16.5758C16.846 15.9842 16.6468 15.4104 16.2831 14.9437C15.9191 14.4765 15.4107 14.1429 14.8373 13.9949C14.4897 13.9051 14.2807 13.5506 14.3704 13.203Z" fill="#292A43"/>
</svg>
