<svg width="16" height="16" viewBox="0 0 16 16" fill="none" xmlns="http://www.w3.org/2000/svg">
<path d="M2 14H4.66667L13.3333 5.33333C13.687 4.97971 13.8856 4.5001 13.8856 4C13.8856 3.4999 13.687 3.02029 13.3333 2.66666C12.9797 2.31304 12.5001 2.11438 12 2.11438C11.4999 2.11438 11.0203 2.31304 10.6667 2.66666L2 11.3333V14Z" stroke="#292A43" stroke-width="1.3" stroke-linecap="round" stroke-linejoin="round"/>
<path d="M9.66675 3.66666L12.3334 6.33332" stroke="#292A43" stroke-width="1.3" stroke-linecap="round" stroke-linejoin="round"/>
<path d="M8 5.33333L4.66667 2L2 4.66667L5.33333 8" stroke="#292A43" stroke-width="1.3" stroke-linecap="round" stroke-linejoin="round"/>
<path d="M4.66675 5.33334L3.66675 6.33334" stroke="#292A43" stroke-width="1.3" stroke-linecap="round" stroke-linejoin="round"/>
<path d="M10.6667 8L14 11.3333L11.3333 14L8 10.6667" stroke="#292A43" stroke-width="1.3" stroke-linecap="round" stroke-linejoin="round"/>
<path d="M10.6667 11.3333L9.66675 12.3333" stroke="#292A43" stroke-width="1.3" stroke-linecap="round" stroke-linejoin="round"/>
</svg>
