<svg width="35" height="40" viewBox="0 0 35 40" fill="none" xmlns="http://www.w3.org/2000/svg">
<g clip-path="url(#clip0_11503_13055)">
<path d="M14.567 22.3301C20.621 22.3301 25.54 17.2816 25.54 11.068C25.54 4.85437 20.621 0 14.567 0C8.70212 0 3.7832 5.04854 3.7832 11.2621C3.7832 17.4757 8.70212 22.3301 14.567 22.3301ZM14.567 2.91262C18.9183 2.91262 22.5129 6.60194 22.5129 11.068C22.5129 15.534 19.1075 19.4175 14.567 19.4175C10.2156 19.4175 6.62104 15.7282 6.62104 11.2621C6.62104 6.79612 10.2156 2.91262 14.567 2.91262Z" fill="#FF8A00"/>
<path d="M17.2562 28.1812C18.1407 28.2966 18.9995 27.6532 18.9995 26.7611V26.7611C18.9995 26.108 18.5287 25.5507 17.88 25.4752C16.7589 25.3447 15.3921 25.2422 14.5673 25.2422C10.5943 25.2422 6.99974 26.7956 4.1619 29.7082C1.86024 32.0705 0.41578 35.166 -0.0473357 38.3575C-0.160981 39.1407 0.474443 39.8053 1.26582 39.8053V39.8053C2.02939 39.8053 2.63248 39.1825 2.74814 38.4277C2.8563 37.7218 3.06128 37.016 3.40514 36.3102C5.46091 30.6836 11.6163 27.4454 17.2562 28.1812Z" fill="#FF8A00"/>
<path d="M31.7074 33.9809C32.5117 33.9809 33.1637 33.3289 33.1637 32.5246V32.5246C33.1637 31.7203 32.5117 31.0682 31.7074 31.0682H25.7853L28.6823 27.9463C29.1791 27.4108 29.169 26.5799 28.6593 26.0568V26.0568C28.1211 25.5044 27.2333 25.5044 26.6951 26.0568L20.2988 32.6216L26.6884 39.0114C27.2324 39.5554 28.1162 39.5497 28.6531 38.9986V38.9986C29.1663 38.472 29.1765 37.6354 28.6763 37.0964L25.7853 33.9809H31.7074Z" fill="#FF8A00"/>
</g>
<defs>
<clipPath id="clip0_11503_13055">
<rect width="35" height="40" fill="white"/>
</clipPath>
</defs>
</svg>
