<svg width="16" height="16" viewBox="0 0 16 16" fill="none" xmlns="http://www.w3.org/2000/svg">
<path fill-rule="evenodd" clip-rule="evenodd" d="M8.00002 2.64998C6.88624 2.64998 5.98335 3.55287 5.98335 4.66664C5.98335 5.78042 6.88624 6.68331 8.00002 6.68331C9.11379 6.68331 10.0167 5.78042 10.0167 4.66664C10.0167 3.55287 9.11379 2.64998 8.00002 2.64998ZM4.68335 4.66664C4.68335 2.8349 6.16827 1.34998 8.00002 1.34998C9.83176 1.34998 11.3167 2.8349 11.3167 4.66664C11.3167 6.49839 9.83176 7.98331 8.00002 7.98331C6.16827 7.98331 4.68335 6.49839 4.68335 4.66664Z" fill="#292A43"/>
<path fill-rule="evenodd" clip-rule="evenodd" d="M6.66676 10.65C6.13191 10.65 5.61896 10.8624 5.24077 11.2406C4.86257 11.6188 4.6501 12.1318 4.6501 12.6666V14C4.6501 14.359 4.35908 14.65 4.0001 14.65C3.64111 14.65 3.3501 14.359 3.3501 14V12.6666C3.3501 11.787 3.69953 10.9434 4.32153 10.3214C4.94352 9.69941 5.78713 9.34998 6.66676 9.34998H9.33343C10.2131 9.34998 11.0567 9.69941 11.6787 10.3214C12.3007 10.9434 12.6501 11.787 12.6501 12.6666V14C12.6501 14.359 12.3591 14.65 12.0001 14.65C11.6411 14.65 11.3501 14.359 11.3501 14V12.6666C11.3501 12.1318 11.1376 11.6188 10.7594 11.2406C10.3812 10.8624 9.86828 10.65 9.33343 10.65H6.66676Z" fill="#292A43"/>
</svg>
