<svg width="28" height="28" viewBox="0 0 28 28" fill="none" xmlns="http://www.w3.org/2000/svg">
<path d="M4.50061 3.48945C4.22139 3.21022 3.76867 3.21022 3.48945 3.48945C3.21022 3.76867 3.21022 4.22139 3.48945 4.50061L5.44444 6.4556C4.18474 6.89095 3.28003 8.08733 3.28003 9.49503V19.495C3.28003 21.2706 4.71943 22.71 6.49503 22.71H16.495C17.9027 22.71 19.0991 21.8053 19.5345 20.5456L24.4894 25.5006C24.7687 25.7798 25.2214 25.7798 25.5006 25.5006C25.7798 25.2214 25.7798 24.7687 25.5006 24.4894L4.50061 3.48945Z" fill="#FF3C49"/>
<path d="M24.0786 20.4578C23.8119 20.4722 23.5515 20.4173 23.3158 20.3047L9.29119 6.28003H16.495C18.2706 6.28003 19.71 7.71943 19.71 9.49503V10.8368L23.1806 8.75802C23.4498 8.59683 23.7598 8.51508 24.0786 8.53228C24.3969 8.54946 24.6954 8.66368 24.9461 8.84923C25.1954 9.03378 25.3878 9.28121 25.5165 9.55757C25.6451 9.83393 25.7099 10.138 25.71 10.4423V18.5474C25.7099 18.8517 25.6451 19.1561 25.5165 19.4325C25.3878 19.7089 25.1954 19.9563 24.9461 20.1408C24.6954 20.3264 24.3969 20.4406 24.0786 20.4578Z" fill="#FF3C49"/>
</svg>
