<svg width="28" height="28" viewBox="0 0 28 28" fill="none" xmlns="http://www.w3.org/2000/svg">
<path d="M19 12.1035L23.553 9.37637C23.7054 9.28511 23.8748 9.24203 24.045 9.25121C24.2152 9.2604 24.3806 9.32155 24.5256 9.42886C24.6706 9.53617 24.7902 9.68609 24.8733 9.86438C24.9563 10.0427 24.9999 10.2434 25 10.4476V18.5524C24.9999 18.7566 24.9563 18.9573 24.8733 19.1356C24.7902 19.3139 24.6706 19.4638 24.5256 19.5711C24.3806 19.6785 24.2152 19.7396 24.045 19.7488C23.8748 19.758 23.7054 19.7149 23.553 19.6236L19 16.8965V12.1035Z" stroke="currentColor" stroke-width="1.43" stroke-linecap="round" stroke-linejoin="round"/>
<path d="M16.5 7H6.5C5.11929 7 4 8.11929 4 9.5V19.5C4 20.8807 5.11929 22 6.5 22H16.5C17.8807 22 19 20.8807 19 19.5V9.5C19 8.11929 17.8807 7 16.5 7Z" stroke="currentColor" stroke-width="1.43" stroke-linecap="round" stroke-linejoin="round"/>
</svg>
