<svg width="16" height="16" viewBox="0 0 16 16" fill="none" xmlns="http://www.w3.org/2000/svg">
<path fill-rule="evenodd" clip-rule="evenodd" d="M0.540478 0.540356C0.794319 0.286515 1.20588 0.286515 1.45972 0.540356L15.4597 14.5404C15.7136 14.7942 15.7136 15.2058 15.4597 15.4596C15.2059 15.7134 14.7943 15.7134 14.5405 15.4596L0.540478 1.45959C0.286637 1.20575 0.286637 0.794197 0.540478 0.540356Z" fill="#292A43"/>
<path fill-rule="evenodd" clip-rule="evenodd" d="M14.1651 5.25561C14.1651 5.25563 14.1652 5.2556 14.1651 5.25561L10.9833 6.84615V7.22217C10.9833 7.58115 10.6923 7.87217 10.3333 7.87217C9.97436 7.87217 9.68335 7.58115 9.68335 7.22217V6.44439C9.68335 6.19817 9.82247 5.97308 10.0427 5.86299L13.5839 4.09276C13.8016 3.98402 14.0434 3.93264 14.2865 3.94358C14.5295 3.95453 14.7657 4.0274 14.9727 4.15526C15.1797 4.28313 15.3505 4.46177 15.4691 4.67421C15.5876 4.88666 15.6499 5.12588 15.65 5.36915V10.6302C15.65 10.6303 15.65 10.6301 15.65 10.6302C15.6501 10.9276 15.5572 11.2178 15.3845 11.4599C15.2117 11.7021 14.9676 11.8842 14.6863 11.9809C14.3468 12.0976 13.977 11.9169 13.8603 11.5774C13.7436 11.2379 13.9243 10.8681 14.2638 10.7515C14.2889 10.7428 14.3108 10.7265 14.3263 10.7048C14.3417 10.6832 14.35 10.6572 14.35 10.6306V5.36985C14.35 5.34807 14.3444 5.32666 14.3338 5.30765C14.3232 5.28864 14.3079 5.27266 14.2894 5.26121C14.2709 5.24977 14.2497 5.24325 14.228 5.24227C14.2063 5.24129 14.1846 5.24591 14.1651 5.25561Z" fill="#292A43"/>
<path fill-rule="evenodd" clip-rule="evenodd" d="M2.55565 3.98329C2.31548 3.98329 2.08515 4.0787 1.91533 4.24852C1.7455 4.41834 1.6501 4.64868 1.6501 4.88884V11.1111C1.6501 11.3512 1.7455 11.5816 1.91533 11.7514C2.08515 11.9212 2.31549 12.0166 2.55565 12.0166H8.77787C9.01804 12.0166 9.24837 11.9212 9.4182 11.7514C9.58802 11.5816 9.68343 11.3512 9.68343 11.1111V10.3333C9.68343 9.9743 9.97445 9.68329 10.3334 9.68329C10.6924 9.68329 10.9834 9.9743 10.9834 10.3333V11.1111C10.9834 11.696 10.7511 12.257 10.3374 12.6706C9.92382 13.0842 9.36283 13.3166 8.77787 13.3166H2.55565C1.9707 13.3166 1.40971 13.0843 0.99609 12.6706C0.582468 12.257 0.350098 11.696 0.350098 11.1111V4.88884C0.350098 4.30389 0.582468 3.7429 0.99609 3.32928C1.40971 2.91566 1.9707 2.68329 2.55565 2.68329H3.33343C3.69242 2.68329 3.98343 2.9743 3.98343 3.33329C3.98343 3.69227 3.69242 3.98329 3.33343 3.98329H2.55565ZM5.84402 3.08454C5.94463 2.84166 6.18164 2.68329 6.44454 2.68329H8.77787C9.36283 2.68329 9.92382 2.91566 10.3374 3.32928C10.7511 3.7429 10.9834 4.30389 10.9834 4.88884V7.22218C10.9834 7.48508 10.8251 7.72209 10.5822 7.8227C10.3393 7.92331 10.0597 7.8677 9.87381 7.6818L5.98492 3.79291C5.79902 3.60701 5.74341 3.32743 5.84402 3.08454ZM8.01378 3.98329L9.68343 5.65294V4.88884C9.68343 4.64868 9.58802 4.41834 9.4182 4.24852C9.24837 4.07869 9.01804 3.98329 8.77787 3.98329H8.01378Z" fill="#292A43"/>
</svg>
