<svg width="16" height="16" viewBox="0 0 16 16" fill="none" xmlns="http://www.w3.org/2000/svg">
<g clip-path="url(#clip0_3385_432786)">
<path fill-rule="evenodd" clip-rule="evenodd" d="M14.32 4.82149L11.6501 6.42071V8.8793L14.32 10.4785C14.3221 10.4748 14.3242 10.4706 14.3264 10.466C14.3402 10.4363 14.3501 10.3964 14.3501 10.3513V4.94869C14.3501 4.90357 14.3402 4.86369 14.3264 4.83398C14.3242 4.82939 14.3221 4.82523 14.32 4.82149ZM13.7015 3.67658C13.9093 3.55216 14.15 3.48835 14.3985 3.50176C14.6466 3.51515 14.8779 3.60416 15.0706 3.74682C15.2621 3.88859 15.408 4.07717 15.5048 4.28519C15.6017 4.4932 15.65 4.721 15.6501 4.94811V10.3516C15.65 10.5787 15.6017 10.8068 15.5048 11.0148C15.408 11.2228 15.2621 11.4114 15.0706 11.5532C14.8779 11.6958 14.6466 11.7849 14.3985 11.7983C14.15 11.8117 13.9093 11.7478 13.7015 11.6234L10.6661 9.80526C10.4701 9.68785 10.3501 9.47614 10.3501 9.24764V6.05237C10.3501 5.82387 10.4701 5.61216 10.6661 5.49474L13.7015 3.67658Z" fill="#292A43"/>
<path fill-rule="evenodd" clip-rule="evenodd" d="M2.66676 3.3C2.10527 3.3 1.6501 3.75518 1.6501 4.31667V10.9833C1.6501 11.5448 2.10527 12 2.66676 12H9.33343C9.89492 12 10.3501 11.5448 10.3501 10.9833V4.31667C10.3501 3.75518 9.89492 3.3 9.33343 3.3H2.66676ZM0.350098 4.31667C0.350098 3.03721 1.3873 2 2.66676 2H9.33343C10.6129 2 11.6501 3.03721 11.6501 4.31667V10.9833C11.6501 12.2628 10.6129 13.3 9.33343 13.3H2.66676C1.3873 13.3 0.350098 12.2628 0.350098 10.9833V4.31667Z" fill="#292A43"/>
<path d="M9.96604 11.9799C10.217 11.6209 10.1824 11.1228 9.86195 10.8022C9.50246 10.4425 8.9194 10.4422 8.55965 10.8017C8.2168 11.1443 8.0241 11.6091 8.02393 12.0938C8.02375 12.5785 8.21613 13.0434 8.55874 13.3862C8.90134 13.7291 9.36611 13.9218 9.8508 13.922C10.3355 13.9221 10.8004 13.7298 11.1432 13.3872C11.503 13.0277 11.5032 12.4446 11.1437 12.0849C10.8233 11.7642 10.3253 11.7292 9.96604 11.9799Z" fill="#292A43" stroke="white" stroke-linecap="round" stroke-linejoin="round"/>
<path d="M8.53921 8.6738L8.40395 8.20097C8.87545 8.06609 9.36363 7.99844 9.85404 8.00003M8.53921 8.6738L9.85316 8.50003M8.53921 8.6738L8.40395 8.20097C8.10108 8.28761 7.86431 8.52274 7.77476 8.82315M8.53921 8.6738L7.77476 8.82315M9.85404 8.00003C9.85431 8.00003 9.85458 8.00003 9.85485 8.00003L9.85316 8.50003M9.85404 8.00003C9.85377 8.00003 9.8535 8.00003 9.85323 8.00003L9.85316 8.50003M9.85404 8.00003C12.1087 8.00068 13.8763 9.34771 15.1843 11.6367C15.3461 11.9198 15.3461 12.2674 15.1842 12.5506C14.8037 13.2163 14.386 13.8024 13.9266 14.2995C13.7566 14.4834 13.5191 14.5901 13.2687 14.5951C13.2451 14.5956 13.2216 14.5952 13.1982 14.5938M9.85316 8.50003C11.8678 8.50032 13.4959 9.68989 14.7502 11.8847C14.8241 12.0141 14.8241 12.173 14.7502 12.3024C14.3848 12.9416 13.9886 13.4957 13.5594 13.9601C13.4817 14.0442 13.3731 14.0929 13.2587 14.0952C13.1961 14.0965 13.1347 14.0837 13.0786 14.0587C13.175 14.2259 13.2133 14.4126 13.1982 14.5938M13.1982 14.5938C13.1758 14.8625 13.0362 15.1189 12.7953 15.2814C11.9066 15.8808 10.9192 16.1871 9.85241 16.1871C7.59703 16.1871 5.82888 14.84 4.52051 12.5504C4.3587 12.2673 4.35872 11.9197 4.52056 11.6366C5.18892 10.4673 5.97558 9.53946 6.9025 8.91072L7.18318 9.32451L6.9025 8.91072C7.16954 8.72959 7.49765 8.70757 7.77476 8.82315M13.1982 14.5938C13.0112 14.5832 12.8322 14.5159 12.6849 14.4013C12.7342 14.572 12.671 14.7621 12.5157 14.8668L7.77476 8.82315M9.52134 9.35464L9.84971 9.68265L9.85092 9.34175C9.85079 9.34175 9.85067 9.34175 9.85054 9.34175C9.8416 9.34172 9.83266 9.34172 9.82373 9.34175C9.82359 9.34175 9.82346 9.34175 9.82333 9.34175C9.72245 9.34211 9.62171 9.34642 9.52134 9.35464ZM8.27712 10.0082L11.9364 13.6635C11.8775 13.6873 11.8202 13.7175 11.7655 13.7545C11.1758 14.1522 10.546 14.3454 9.85241 14.3454C8.59255 14.3454 7.4358 13.6975 6.39736 12.0937C6.88891 11.3357 7.40624 10.7945 7.93635 10.4349C8.09658 10.3262 8.21172 10.1759 8.27712 10.0082Z" fill="#292A43" stroke="white" stroke-linecap="round" stroke-linejoin="round"/>
</g>
<defs>
<clipPath id="clip0_3385_432786">
<rect width="16" height="16" fill="white"/>
</clipPath>
</defs>
</svg>
