<svg width="16" height="16" viewBox="0 0 16 16" fill="none" xmlns="http://www.w3.org/2000/svg">
<g clip-path="url(#clip0_16949_12644)">
<path d="M4 14L14 4L12 2L2 12L4 14Z" stroke="#292A43" stroke-width="1.3" stroke-linecap="round" stroke-linejoin="round"/>
<path d="M10 4L12 6" stroke="#292A43" stroke-width="1.3" stroke-linecap="round" stroke-linejoin="round"/>
<path d="M6.00008 2C6.00008 2.35362 6.14056 2.69276 6.39061 2.94281C6.64065 3.19286 6.97979 3.33333 7.33341 3.33333C6.97979 3.33333 6.64065 3.47381 6.39061 3.72386C6.14056 3.97391 6.00008 4.31304 6.00008 4.66667C6.00008 4.31304 5.85961 3.97391 5.60956 3.72386C5.35951 3.47381 5.02037 3.33333 4.66675 3.33333C5.02037 3.33333 5.35951 3.19286 5.60956 2.94281C5.85961 2.69276 6.00008 2.35362 6.00008 2Z" stroke="#292A43" stroke-width="1.3" stroke-linecap="round" stroke-linejoin="round"/>
<path d="M12.6666 8.6665C12.6666 9.02013 12.8071 9.35926 13.0571 9.60931C13.3072 9.85936 13.6463 9.99984 13.9999 9.99984C13.6463 9.99984 13.3072 10.1403 13.0571 10.3904C12.8071 10.6404 12.6666 10.9795 12.6666 11.3332C12.6666 10.9795 12.5261 10.6404 12.2761 10.3904C12.026 10.1403 11.6869 9.99984 11.3333 9.99984C11.6869 9.99984 12.026 9.85936 12.2761 9.60931C12.5261 9.35926 12.6666 9.02013 12.6666 8.6665Z" stroke="#292A43" stroke-width="1.3" stroke-linecap="round" stroke-linejoin="round"/>
</g>
<defs>
<clipPath id="clip0_16949_12644">
<rect width="16" height="16" fill="white"/>
</clipPath>
</defs>
</svg>
