<svg width="16" height="16" viewBox="0 0 16 16" fill="none" xmlns="http://www.w3.org/2000/svg">
<path fill-rule="evenodd" clip-rule="evenodd" d="M7.33765 12.8825C7.33765 12.5236 7.62866 12.2325 7.98765 12.2325H7.99588C8.35487 12.2325 8.64588 12.5236 8.64588 12.8825C8.64588 13.2415 8.35487 13.5325 7.99588 13.5325H7.98765C7.62866 13.5325 7.33765 13.2415 7.33765 12.8825Z" fill="#292A43"/>
<path fill-rule="evenodd" clip-rule="evenodd" d="M7.98797 10.2391C7.28685 10.2391 6.61443 10.5176 6.11858 11.0133C5.8647 11.2671 5.45315 11.267 5.19934 11.0132C4.94554 10.7593 4.9456 10.3477 5.19948 10.0939C5.93911 9.35452 6.94214 8.93915 7.98797 8.93915C9.03381 8.93915 10.0368 9.35452 10.7765 10.0939C11.0303 10.3477 11.0304 10.7593 10.7766 11.0132C10.5228 11.267 10.1112 11.2671 9.85737 11.0133C9.36152 10.5176 8.6891 10.2391 7.98797 10.2391Z" fill="#292A43"/>
<path fill-rule="evenodd" clip-rule="evenodd" d="M7.98791 6.94404C7.20806 6.94404 6.43585 7.09765 5.71537 7.39609C4.99489 7.69454 4.34025 8.13197 3.78883 8.68342C3.535 8.93727 3.12344 8.93728 2.86959 8.68344C2.61574 8.42961 2.61573 8.01805 2.86957 7.76421C3.5417 7.09203 4.33966 6.55884 5.21787 6.19506C6.09607 5.83128 7.03734 5.64404 7.98791 5.64404C8.93848 5.64404 9.87974 5.83128 10.7579 6.19506C11.6362 6.55884 12.4341 7.09203 13.1062 7.76421C13.3601 8.01805 13.3601 8.42961 13.1062 8.68344C12.8524 8.93728 12.4408 8.93727 12.187 8.68342C11.6356 8.13197 10.9809 7.69454 10.2604 7.39609C9.53996 7.09765 8.76775 6.94404 7.98791 6.94404Z" fill="#292A43"/>
<path fill-rule="evenodd" clip-rule="evenodd" d="M14.5419 6.35592C10.9108 2.74719 5.06417 2.74929 1.45977 6.35446C1.20595 6.60833 0.794395 6.60837 0.540527 6.35456C0.286659 6.10074 0.286615 5.68918 0.540429 5.43532C4.65415 1.32072 11.3218 1.32282 15.4583 5.43385C15.7129 5.68691 15.7142 6.09846 15.4611 6.35309C15.2081 6.60771 14.7965 6.60898 14.5419 6.35592Z" fill="#292A43"/>
</svg>
