<svg width="16" height="16" viewBox="0 0 16 16" fill="none" xmlns="http://www.w3.org/2000/svg">
<path d="M13.3334 11.3333V3.33333C13.3334 2.586 12.7474 2 12.0001 2C11.2527 2 10.6667 2.586 10.6667 3.33333V11.3333L12.0001 12.6667L13.3334 11.3333Z" stroke="#292A43" stroke-width="1.3" stroke-linecap="round" stroke-linejoin="round"/>
<path d="M10.6667 4.66669H13.3334" stroke="#292A43" stroke-width="1.3" stroke-linecap="round" stroke-linejoin="round"/>
<path d="M12 12.6666H3.33333C2.97971 12.6666 2.64057 12.5262 2.39052 12.2761C2.14048 12.0261 2 11.6869 2 11.3333C2 10.9797 2.14048 10.6406 2.39052 10.3905C2.64057 10.1405 2.97971 9.99998 3.33333 9.99998H6C6.35362 9.99998 6.69276 9.8595 6.94281 9.60946C7.19286 9.35941 7.33333 9.02027 7.33333 8.66665C7.33333 8.31302 7.19286 7.97389 6.94281 7.72384C6.69276 7.47379 6.35362 7.33331 6 7.33331H4" stroke="#292A43" stroke-width="1.3" stroke-linecap="round" stroke-linejoin="round"/>
</svg>
